<?xml version="1.0" encoding="UTF-8"?><svg id="DESSIN" xmlns="http://www.w3.org/2000/svg" viewBox="0 0 1000 700"><defs><style>.cls-1{fill:#ea4900;}.cls-1,.cls-2{stroke-width:0px;}.cls-2{fill:#ea4900;}</style></defs><path class="cls-2" d="M562.2,232.93c-.47-1.02-1.2-1.95-2.2-2.77-1-.76-2.08-1.26-3.26-1.5-1.17-.23-2.39-.29-3.65-.18-1.26.12-2.49.37-3.7.75-1.2.38-2.33.81-3.39,1.27-2.81,1.35-5.44,2.92-7.87,4.71-2.43,1.79-4.79,3.77-7.08,5.94-3.52,3.34-6.86,6.91-10.03,10.69s-6.28,7.61-9.32,11.48c-1.7,2.35-3.45,4.68-5.23,6.99-1.79,2.32-3.53,4.62-5.23,6.91-.94,1.23-1.89,2.52-2.86,3.87-.97,1.35-1.98,2.68-3.03,4-1.06,1.32-2.16,2.58-3.3,3.78-1.14,1.2-2.39,2.24-3.74,3.12-.47.12-.85.21-1.14.26-.76.18-1.51.4-2.24.66-.74.26-1.45.63-2.16,1.1-.65.35-1.34.88-2.07,1.58-.73.7-1.32,1.45-1.76,2.24-.44.79-.62,1.58-.53,2.38.09.79.63,1.45,1.63,1.98.94.59,1.92.8,2.95.66,1.02-.15,2.04-.54,3.03-1.19.47-.29.91-.56,1.32-.79.41-.23.82-.5,1.23-.79,2.7-1.46,5.28-2.08,7.74-1.85,2.46.23,4.95.82,7.48,1.76,1.64.88,3.26,1.58,4.84,2.11,2.81.88,5.53,1.01,8.14.4,2.61-.62,5.03-1.66,7.26-3.12.82-.53,1.94-1.41,3.34-2.64.35-.3.7-.64,1.06-.99.03.13.05.25.08.38.35,1.29,1.05,2.52,2.11,3.7,1.11,1.23,2.58,2.05,4.4,2.46,1.82.41,3.75.51,5.81.31,2.05-.2,4.06-.67,6.03-1.41,1.96-.73,3.62-1.6,4.97-2.59,1.11-.88,2.11-1.72,2.99-2.51.88-.79,1.47-1.33,1.76-1.63.59-.59,1.11-1.16,1.58-1.72.47-.56.91-1.07,1.32-1.54.29-.41.4-.84.31-1.28-.09-.44-.28-.79-.57-1.06-.29-.26-.65-.42-1.06-.48-.41-.06-.79.12-1.14.53-.59.7-1.17,1.38-1.76,2.02-.59.65-1.23,1.26-1.94,1.85-.82.7-1.83,1.5-3.04,2.38-1.2.88-2.48,1.47-3.83,1.76-1,.23-2.08.38-3.25.44-1.17.06-2.3-.01-3.39-.22-1.09-.2-2.07-.54-2.95-1.01-.88-.47-1.53-1.11-1.94-1.94-.12-.41-.13-.8-.04-1.19.09-.38.37-.69.84-.92h.18c.64-.12,1.35-.25,2.11-.4.76-.15,1.58-.31,2.46-.48,1.23-.18,2.51-.45,3.83-.84,1.32-.38,2.58-.84,3.78-1.36,1.2-.53,2.29-1.16,3.25-1.89.97-.73,1.77-1.57,2.42-2.51,1.11-1.76,1.32-3.41.62-4.97-.7-1.55-2.17-2.56-4.4-3.03-.88-.18-1.94-.22-3.17-.13-1.23.09-2.23.25-2.99.48-2.46.82-4.71,1.92-6.73,3.3-2.02,1.38-3.8,3.03-5.32,4.97-.88,1.05-1.64,2.19-2.29,3.39-.35.65-.62,1.3-.83,1.97-.24.25-.49.51-.75.76-.65.62-1.29,1.16-1.94,1.63-.65.47-1.25.88-1.8,1.23-.56.35-1.01.62-1.36.79-2.05,1.05-4.27,1.8-6.64,2.24-2.38.44-4.79.07-7.26-1.1-2.46-1.17-4.93-2.17-7.39-2.99-.88-.47-1.47-1.03-1.76-1.67-.47-.94-.57-1.91-.31-2.9.26-1,.66-1.96,1.19-2.9.35-.41.69-.79,1.01-1.14.32-.35.63-.76.92-1.23.35-.47.7-.89,1.05-1.28.35-.38.7-.8,1.06-1.27.64-.76,1.29-1.55,1.94-2.38.64-.82,1.29-1.64,1.93-2.46,1.52-1.76,3.05-3.55,4.57-5.37,1.52-1.82,3.05-3.66,4.57-5.54,3.11-3.87,6.22-7.77,9.32-11.7,3.11-3.93,6.51-7.53,10.2-10.82,1.17-1.05,2.42-1.99,3.74-2.81,1.32-.82,2.65-1.61,4-2.38.64-.35,1.64-.76,2.99-1.23,1.35-.47,2.68-.73,4-.79,1.32-.06,2.46.23,3.43.88s1.39,1.88,1.28,3.69c-.06.94-.43,1.95-1.1,3.03-.67,1.09-1.25,2.01-1.72,2.77-.59.82-1.44,1.88-2.55,3.17-1.11,1.29-2.41,2.59-3.87,3.91-1.47,1.32-3.09,2.57-4.88,3.74-1.79,1.17-3.68,2.08-5.67,2.73-.53.18-1.07.28-1.63.31-.56.03-1.11.04-1.67.04s-1.11.04-1.67.13-1.1.31-1.63.66c-.82.59-1.25,1.2-1.27,1.85-.03.65.13,1.26.48,1.85.35.53.8.87,1.36,1.01.56.15,1.13.21,1.72.18.59-.03,1.16-.12,1.71-.26.56-.15,1.01-.28,1.36-.4,2.64-.88,5.25-2.04,7.83-3.48,2.58-1.44,5-3.09,7.26-4.97,2.26-1.88,4.31-3.94,6.16-6.2,1.85-2.26,3.39-4.65,4.62-7.17.47-1,.85-2.07,1.14-3.21.29-1.14.41-2.27.35-3.39-.06-1.11-.32-2.18-.79-3.21ZM536.17,286.72c1-1.29,2.21-2.42,3.65-3.39,1.44-.97,2.8-1.63,4.09-1.98v-.09c.88-.12,1.64-.12,2.29,0,.64.12,1.08.47,1.32,1.06.23.59.28,1.13.13,1.63-.15.5-.41.94-.79,1.32-.38.38-.87.75-1.45,1.1-.59.35-1.17.65-1.76.88-1.05.35-2.14.63-3.25.84-1.12.21-2.17.37-3.17.48-.59,0-.97-.18-1.14-.53-.18-.47-.15-.91.09-1.32Z"/><path class="cls-1" d="M408.4,321.08c-19.35,0-34.33,14.51-34.33,33.5s14.79,33.49,34.05,33.49,34.05-14.51,34.05-33.49-14.61-33.5-33.77-33.5ZM408.12,376.9c-12.93,0-22.61-9.58-22.61-22.33s9.77-22.33,22.89-22.33,22.42,9.58,22.42,22.33-9.68,22.33-22.7,22.33Z"/><path class="cls-1" d="M489.81,359.44c0,9.58-6.33,15.35-16.47,15.35s-16.56-5.77-16.56-15.35v-36.5h-10.89v36.32c0,15.91,10.98,26.52,27.45,26.52s27.45-10.61,27.45-26.52v-36.32h-10.98v36.5Z"/><rect class="cls-1" x="509.82" y="322.94" width="10.98" height="65.13"/><polygon class="cls-1" points="542.48 322.94 531.5 322.94 531.5 388.07 572.63 388.07 572.63 377.37 542.48 377.37 542.48 322.94"/><polygon class="cls-1" points="588.36 322.94 577.38 322.94 577.38 388.07 618.5 388.07 618.5 377.37 588.36 377.37 588.36 322.94"/><path class="cls-1" d="M739.02,317.43l-2.44,51.01-37.49-45.5h-8.65v20.73c-1.49,1.82-3.14,3.5-4.93,5-.57.48-1.11.92-1.64,1.36-2.51-16.23-16.07-28.02-33.35-28.02-19.35,0-34.33,14.51-34.33,33.5s14.79,33.49,34.05,33.49c16.73,0,29.97-10.85,33.26-26.05,2.73-1.25,4.92-2.82,6.94-4.45v29.57h10.98v-45.59l37.59,45.59h8.47l2.53-70.64h-10.98ZM672.9,354.68c-4.38.21-8.2-1.22-10.37-2.28l-.27-.13c-1.31-.63-3.76-1.81-5.68-4.15-3.24-3.94-4.92-9.39-4.7-14.88,11.87.64,20.63,9.57,21.02,21.44ZM650.23,377.83c-12.93,0-22.61-9.58-22.61-22.33,0-9.46,5.38-17.16,13.52-20.52.16,7.34,2.64,14.44,7.16,19.93,3.42,4.16,7.54,6.15,9.3,7l.23.11c2.77,1.35,7.39,3.1,12.91,3.35-3.56,7.5-11.16,12.46-20.51,12.46Z"/><path class="cls-1" d="M355.43,342.55c5.03-3.59,7.82-8.88,7.82-15.24,0-11.69-9.49-19.85-23.08-19.85h-31.25v45.14c-16.15,4.65-22.56,24.77-13.09,38.93,5.68,9.27,17.03,12.63,26.97,13.03,16.96,1.07,36.64-5.25,44.18-21.84,4.26-9.62,4.3-21.26-1.46-30.27-2.66-4.11-6.08-7.44-10.08-9.91ZM320.94,318.41h18.69c7.14,0,11.58,3.57,11.58,9.32s-4.68,10.16-10.92,10.29c-4.81-.25-9.74.05-14.11,0h0s-5.24,0-5.24,0v-19.63ZM349.87,385.55c-10.35,7.9-30.01,10.54-41.38,3.12-7.58-5.84-8.06-18.84.35-24.17,4.17-2.67,10.7-3.12,14.87-.13,2.66,2.58,3.58,6.67,3.5,10.67,0,0,10.78,0,10.78,0-.19-12.17-6.38-21.24-17.05-23.13v-3.04h6.66c.48,0,.95,0,1.41,0h8.24c1.92.06,3.83.19,5.8.48,5.07,1.01,10.04,4.78,12.66,9.15,5.15,8.74,2.26,21.02-5.85,27.04Z"/><path class="cls-1" d="M475.13,443.25l5.33,1.7c4.53,1.44,6.72,6.34,5.1,11.43-1.62,5.09-6.25,7.82-10.78,6.37l-5.33-1.7,5.68-17.8ZM475.47,460.44c3.45,1.1,6.76-.87,7.99-4.74,1.23-3.87-.32-7.39-3.77-8.49l-3.18-1.01-4.22,13.23,3.18,1.01Z"/><path class="cls-1" d="M491.13,447.44l9.17,1.54-.39,2.37-6.99-1.17-.87,5.22,6.8,1.14-.4,2.4-6.8-1.14-1.01,6.09,6.99,1.17-.4,2.37-9.17-1.54,3.07-18.44Z"/><path class="cls-1" d="M500.13,465.33l1.86-1.43c.93,1.64,2.14,2.59,3.49,2.81,1.78.29,3.26-.72,3.52-2.35.2-1.21-.43-2.13-1.51-3.03l-2.57-2.04c-1.88-1.47-2.64-3.1-2.31-5.1.46-2.82,2.8-4.52,5.67-4.06,1.8.29,3.39,1.33,4.49,3.21l-1.7,1.48c-.87-1.38-2.03-2.17-3.17-2.35-1.52-.25-2.78.61-3,1.98-.18,1.11.41,1.96,1.49,2.83l2.59,2.07c1.97,1.53,2.6,3.31,2.28,5.31-.5,3.08-3.04,4.92-6.17,4.41-2.04-.33-3.78-1.58-4.97-3.75Z"/><path class="cls-1" d="M523.96,452.29l9.29.46-.12,2.4-7.08-.35-.26,5.28,6.89.34-.12,2.43-6.89-.34-.3,6.16,7.08.35-.12,2.4-9.29-.46.91-18.66Z"/><path class="cls-1" d="M547.58,465.53l-7.75.26-1.9,5.7-2.35.08,6.5-19.09,2.4-.08,7.78,18.6-2.4.08-2.28-5.56ZM546.64,463.21l-3.27-8.07-2.75,8.27,6.02-.2Z"/><path class="cls-1" d="M554.45,463.52l-1.45-11.35,2.19-.28,1.45,11.38c.39,3.07,2.45,4.74,5.31,4.38,2.86-.37,4.41-2.5,4.02-5.57l-1.45-11.38,2.19-.28,1.45,11.35c.57,4.5-1.75,7.78-5.92,8.31-4.15.53-7.21-2.04-7.79-6.56Z"/><path class="cls-1" d="M576.51,457.84l-7.79-7.78,2.63-.58,5.95,6.02,2.89-7.97,2.6-.57-3.8,10.33,7.94,7.91-2.63.58-6.07-6.13-2.96,8.12-2.63.58,3.86-10.51Z"/><path class="cls-1" d="M591.13,444.61l2.33-.84,10.22,12.36-.1-16.03,2.28-.83-.03,19.88-1.87.68-12.82-15.22Z"/><path class="cls-1" d="M617.86,454.25l-2.02.89-7.51-17.1,2.02-.89,7.51,17.11Z"/><path class="cls-1" d="M612.95,436.13l2.2-1.14,11.73,10.94-2.17-15.9,2.15-1.12,2.54,19.74-1.77.92-14.68-13.44Z"/><path class="cls-1" d="M629.08,427.48l7.88-4.94,1.27,2.04-6.01,3.76,2.8,4.48,5.84-3.66,1.29,2.06-5.85,3.66,3.27,5.23,6.01-3.76,1.27,2.04-7.88,4.94-9.91-15.85Z"/><path class="cls-1" d="M647.99,434.49l.3-2.33c1.81.5,3.34.32,4.45-.49,1.46-1.06,1.79-2.81.82-4.15-.72-1-1.81-1.19-3.21-1.07l-3.26.38c-2.37.3-4.06-.32-5.25-1.97-1.67-2.31-1.22-5.18,1.13-6.88,1.48-1.07,3.34-1.45,5.45-.91l-.15,2.25c-1.6-.36-2.97-.09-3.91.58-1.25.9-1.53,2.39-.72,3.52.66.91,1.68,1.09,3.06.95l3.29-.37c2.48-.31,4.19.5,5.37,2.14,1.83,2.53,1.34,5.62-1.23,7.48-1.67,1.21-3.8,1.56-6.16.86Z"/><path class="cls-1" d="M401.5,430.47c1.57,2.76.79,5.51-2.01,7.1l-5.32,3.03-9.25-16.25,5.01-2.85c2.69-1.53,5.3-.83,6.77,1.74.95,1.67.96,3.29.1,4.64,1.92-.26,3.59.63,4.7,2.58ZM390.74,430.17l3.13-1.78c1.55-.88,1.93-2.3,1.04-3.85-.86-1.51-2.27-1.9-3.82-1.03l-3.13,1.78,2.77,4.87ZM399.52,431.36c-.95-1.67-2.54-2.09-4.19-1.15l-3.45,1.96,3.04,5.34,3.45-1.96c1.65-.94,2.1-2.52,1.15-4.19Z"/><path class="cls-1" d="M415.64,430.34l-6.42-5.1-2.71,1.05,2.57,6.6-2.06.8-6.79-17.42,5.69-2.21c3.2-1.25,6.09.07,7.37,3.35,1.08,2.76.39,5.3-1.8,6.78l6.61,5.19-2.46.96ZM405.67,424.13l3.61-1.4c1.97-.77,2.71-2.43,1.93-4.45-.78-2.02-2.45-2.71-4.42-1.95l-3.61,1.4,2.49,6.4Z"/><path class="cls-1" d="M430.03,420.43l-7.54,1.85-.69,5.97-2.29.56,2.43-20,2.33-.57,11.45,16.59-2.33.57-3.37-4.97ZM428.63,418.35l-4.87-7.21-.99,8.65,5.86-1.44Z"/><path class="cls-1" d="M436.43,422.18l1.39-1.89c1.35,1.31,2.78,1.89,4.14,1.72,1.79-.22,2.92-1.6,2.72-3.24-.15-1.22-1.01-1.92-2.3-2.48l-3.03-1.24c-2.22-.88-3.4-2.24-3.65-4.25-.35-2.83,1.42-5.13,4.3-5.48,1.81-.23,3.62.33,5.21,1.83l-1.22,1.9c-1.22-1.08-2.56-1.51-3.7-1.37-1.53.19-2.49,1.36-2.32,2.74.14,1.11.95,1.76,2.22,2.3l3.06,1.26c2.32.92,3.43,2.45,3.68,4.46.39,3.1-1.53,5.57-4.68,5.96-2.05.25-4.08-.46-5.82-2.21Z"/><path class="cls-1" d="M449,420.69l1.56-1.75c1.22,1.44,2.58,2.15,3.95,2.11,1.8-.05,3.07-1.31,3.02-2.97-.03-1.23-.82-2.01-2.04-2.69l-2.9-1.52c-2.12-1.09-3.17-2.56-3.23-4.59-.08-2.85,1.91-4.97,4.82-5.05,1.83-.05,3.58.67,5.02,2.32l-1.39,1.77c-1.12-1.2-2.4-1.75-3.56-1.72-1.54.04-2.62,1.11-2.58,2.5.03,1.12.77,1.85,1.99,2.51l2.93,1.55c2.22,1.14,3.18,2.77,3.23,4.8.08,3.12-2.07,5.4-5.24,5.49-2.07.06-4.02-.85-5.58-2.76Z"/><path class="cls-1" d="M464.48,404.51l9.27.68-.18,2.4-7.07-.52-.39,5.27,6.88.5-.18,2.42-6.88-.5-.45,6.15,7.07.52-.18,2.4-9.27-.68,1.38-18.64Z"/><path class="cls-1" d="M485.11,425.96l-2.79-7.7-2.86-.52-1.28,6.96-2.17-.4,3.37-18.38,6,1.1c3.38.62,5.14,3.25,4.51,6.72-.53,2.92-2.45,4.71-5.08,4.82l2.9,7.89-2.6-.48ZM479.88,415.45l3.8.7c2.08.38,3.59-.65,3.98-2.77.39-2.13-.66-3.59-2.74-3.98l-3.8-.7-1.24,6.75Z"/><path class="cls-1" d="M493.18,427.87l-2.14-.54,4.56-18.12,2.14.54-4.56,18.12Z"/><path class="cls-1" d="M503.2,411.2l8.87,2.78-.72,2.29-6.76-2.12-1.58,5.04,6.58,2.06-.73,2.32-6.58-2.06-1.84,5.88,6.76,2.12-.72,2.29-8.87-2.79,5.58-17.83Z"/><path class="cls-2" d="M328.68,439.95c-1.02,0-2.05-.02-3.08-.07-2.81-.13-5.67-.44-8.52-.92-2.77-.47-5.57-1.11-8.3-1.89-2.69-.77-5.34-1.7-7.9-2.75-1.5-.58-3.02-1.23-4.49-1.93-1.54-.73-3.04-1.52-4.47-2.35-1.5-.88-2.95-1.81-4.3-2.78-1.42-1.02-2.77-2.1-4.01-3.22-1.31-1.17-2.52-2.41-3.61-3.67-1.15-1.33-2.19-2.72-3.09-4.15-.95-1.49-1.77-3.05-2.43-4.63-.7-1.65-1.25-3.37-1.65-5.11l3.48-.79c.35,1.53.84,3.05,1.45,4.51.59,1.4,1.32,2.78,2.16,4.11.81,1.27,1.74,2.53,2.78,3.73.99,1.15,2.1,2.28,3.29,3.35,1.15,1.03,2.39,2.03,3.71,2.97,1.26.9,2.61,1.77,4.01,2.59,1.34.78,2.76,1.52,4.2,2.21,1.39.66,2.83,1.28,4.28,1.83,2.47,1.02,5.01,1.9,7.57,2.64,2.61.75,5.27,1.36,7.91,1.8,2.7.46,5.43.75,8.09.88,2.74.13,5.45.08,8.07-.15,2.7-.24,5.34-.67,7.85-1.28,2.6-.64,5.1-1.48,7.43-2.51,2.43-1.07,4.73-2.36,6.85-3.83l2.04,2.93c-2.31,1.61-4.81,3.01-7.45,4.17-2.53,1.11-5.22,2.03-8.02,2.71-2.68.66-5.5,1.12-8.38,1.37-1.79.16-3.62.24-5.46.24Z"/><path class="cls-2" d="M288.18,452.69c-2.58-1.1-5.16-2.38-7.67-3.82-2.44-1.4-4.84-2.97-7.13-4.65-2.25-1.66-4.42-3.45-6.46-5.32-1.21-1.06-2.41-2.2-3.54-3.36-1.19-1.22-2.32-2.48-3.38-3.76-1.11-1.34-2.14-2.72-3.07-4.09-.98-1.44-1.87-2.93-2.65-4.41-.82-1.55-1.53-3.13-2.12-4.7-.62-1.65-1.11-3.31-1.46-4.96-.37-1.73-.6-3.47-.68-5.19-.08-1.79,0-3.59.23-5.36l3.54.47c-.21,1.56-.27,3.15-.2,4.73.07,1.52.27,3.07.6,4.6.32,1.47.76,2.97,1.31,4.46.53,1.42,1.18,2.86,1.93,4.28.72,1.36,1.54,2.73,2.45,4.07.87,1.28,1.83,2.57,2.87,3.82.99,1.2,2.06,2.39,3.18,3.53,1.07,1.1,2.21,2.17,3.38,3.21,1.97,1.81,4.04,3.52,6.18,5.1,2.19,1.61,4.47,3.1,6.79,4.43,2.38,1.37,4.83,2.59,7.28,3.63l-1.39,3.29Z"/></svg>