<?xml version="1.0" encoding="UTF-8" standalone="no"?>
<svg
   id="DESSIN"
   viewBox="0 0 500.02017 243.14339"
   version="1.1"
   sodipodi:docname="logo-restaurant-le-bouillon.svg"
   width="500.02017"
   height="243.14339"
   inkscape:version="1.3.1 (9b9bdc1480, 2023-11-25, custom)"
   xmlns:inkscape="http://www.inkscape.org/namespaces/inkscape"
   xmlns:sodipodi="http://sodipodi.sourceforge.net/DTD/sodipodi-0.dtd"
   xmlns="http://www.w3.org/2000/svg"
   xmlns:svg="http://www.w3.org/2000/svg">
  <sodipodi:namedview
     id="namedview28"
     pagecolor="#505050"
     bordercolor="#ffffff"
     borderopacity="1"
     inkscape:showpageshadow="0"
     inkscape:pageopacity="0"
     inkscape:pagecheckerboard="1"
     inkscape:deskcolor="#505050"
     inkscape:zoom="0.684"
     inkscape:cx="250"
     inkscape:cy="121.34503"
     inkscape:window-width="1366"
     inkscape:window-height="704"
     inkscape:window-x="1920"
     inkscape:window-y="339"
     inkscape:window-maximized="1"
     inkscape:current-layer="DESSIN" />
  <defs
     id="defs1">
    <style
       id="style1">.cls-1{fill:#ea4900;}.cls-1,.cls-2{stroke-width:0px;}.cls-2{fill:#ea4900;}</style>
  </defs>
  <path
     class="cls-2"
     d="m 312.21016,4.5033824 c -0.47,-1.02 -1.2,-1.95 -2.2,-2.77 -1,-0.76000005 -2.08,-1.26000005 -3.26,-1.50000005 -1.17,-0.23 -2.39,-0.29 -3.65,-0.18 -1.26,0.12 -2.49,0.37 -3.7,0.75 -1.2,0.38000005 -2.33,0.81000005 -3.39,1.27000005 -2.81,1.35 -5.44,2.92 -7.87,4.71 -2.43,1.79 -4.79,3.7699996 -7.08,5.9399996 -3.52,3.34 -6.86,6.91 -10.03,10.69 -3.17,3.78 -6.28,7.61 -9.32,11.48 -1.7,2.35 -3.45,4.68 -5.23,6.99 -1.79,2.32 -3.53,4.62 -5.23,6.91 -0.94,1.23 -1.89,2.52 -2.86,3.87 -0.97,1.35 -1.98,2.68 -3.03,4 -1.06,1.32 -2.16,2.58 -3.3,3.78 -1.14,1.2 -2.39,2.24 -3.74,3.12 -0.47,0.12 -0.85,0.21 -1.14,0.26 -0.76,0.18 -1.51,0.4 -2.24,0.66 -0.74,0.26 -1.45,0.63 -2.16,1.1 -0.65,0.35 -1.34,0.88 -2.07,1.58 -0.73,0.7 -1.32,1.45 -1.76,2.24 -0.44,0.79 -0.62,1.58 -0.53,2.38 0.09,0.79 0.63,1.45 1.63,1.98 0.94,0.59 1.92,0.8 2.95,0.66 1.02,-0.15 2.04,-0.54 3.03,-1.19 0.47,-0.29 0.91,-0.56 1.32,-0.79 0.41,-0.23 0.82,-0.5 1.23,-0.79 2.7,-1.46 5.28,-2.08 7.74,-1.85 2.46,0.23 4.95,0.82 7.48,1.76 1.64,0.88 3.26,1.58 4.84,2.11 2.81,0.88 5.53,1.01 8.14,0.4 2.61,-0.62 5.03,-1.66 7.26,-3.12 0.82,-0.53 1.94,-1.41 3.34,-2.64 0.35,-0.3 0.7,-0.64 1.06,-0.99 0.03,0.13 0.05,0.25 0.08,0.38 0.35,1.29 1.05,2.52 2.11,3.7 1.11,1.23 2.58,2.05 4.4,2.46 1.82,0.41 3.75,0.51 5.81,0.31 2.05,-0.2 4.06,-0.67 6.03,-1.41 1.96,-0.73 3.62,-1.6 4.97,-2.59 1.11,-0.88 2.11,-1.72 2.99,-2.51 0.88,-0.79 1.47,-1.33 1.76,-1.63 0.59,-0.59 1.11,-1.16 1.58,-1.72 0.47,-0.56 0.91,-1.07 1.32,-1.54 0.29,-0.41 0.4,-0.84 0.31,-1.28 -0.09,-0.44 -0.28,-0.79 -0.57,-1.06 -0.29,-0.26 -0.65,-0.42 -1.06,-0.48 -0.41,-0.06 -0.79,0.12 -1.14,0.53 -0.59,0.7 -1.17,1.38 -1.76,2.02 -0.59,0.65 -1.23,1.26 -1.94,1.85 -0.82,0.7 -1.83,1.5 -3.04,2.38 -1.2,0.88 -2.48,1.47 -3.83,1.76 -1,0.23 -2.08,0.38 -3.25,0.44 -1.17,0.06 -2.3,-0.01 -3.39,-0.22 -1.09,-0.2 -2.07,-0.54 -2.95,-1.01 -0.88,-0.47 -1.53,-1.11 -1.94,-1.94 -0.12,-0.41 -0.13,-0.8 -0.04,-1.19 0.09,-0.38 0.37,-0.69 0.84,-0.92 h 0.18 c 0.64,-0.12 1.35,-0.25 2.11,-0.4 0.76,-0.15 1.58,-0.31 2.46,-0.48 1.23,-0.18 2.51,-0.45 3.83,-0.84 1.32,-0.38 2.58,-0.84 3.78,-1.36 1.2,-0.53 2.29,-1.16 3.25,-1.89 0.97,-0.73 1.77,-1.57 2.42,-2.51 1.11,-1.76 1.32,-3.41 0.62,-4.97 -0.7,-1.55 -2.17,-2.56 -4.4,-3.03 -0.88,-0.18 -1.94,-0.22 -3.17,-0.13 -1.23,0.09 -2.23,0.25 -2.99,0.48 -2.46,0.82 -4.71,1.92 -6.73,3.3 -2.02,1.38 -3.8,3.03 -5.32,4.97 -0.88,1.05 -1.64,2.19 -2.29,3.39 -0.35,0.65 -0.62,1.3 -0.83,1.97 -0.24,0.25 -0.49,0.51 -0.75,0.76 -0.65,0.62 -1.29,1.16 -1.94,1.63 -0.65,0.47 -1.25,0.88 -1.8,1.23 -0.56,0.35 -1.01,0.62 -1.36,0.79 -2.05,1.05 -4.27,1.8 -6.64,2.24 -2.38,0.44 -4.79,0.07 -7.26,-1.1 -2.46,-1.17 -4.93,-2.17 -7.39,-2.99 -0.88,-0.47 -1.47,-1.03 -1.76,-1.67 -0.47,-0.94 -0.57,-1.91 -0.31,-2.9 0.26,-1 0.66,-1.96 1.19,-2.9 0.35,-0.41 0.69,-0.79 1.01,-1.14 0.32,-0.35 0.63,-0.76 0.92,-1.23 0.35,-0.47 0.7,-0.89 1.05,-1.28 0.35,-0.38 0.7,-0.8 1.06,-1.27 0.64,-0.76 1.29,-1.55 1.94,-2.38 0.64,-0.82 1.29,-1.64 1.93,-2.46 1.52,-1.76 3.05,-3.55 4.57,-5.37 1.52,-1.82 3.05,-3.66 4.57,-5.54 3.11,-3.87 6.22,-7.77 9.32,-11.7 3.11,-3.93 6.51,-7.53 10.2,-10.82 1.17,-1.05 2.42,-1.99 3.74,-2.81 1.32,-0.82 2.65,-1.6099996 4,-2.3799996 0.64,-0.35 1.64,-0.76 2.99,-1.23 1.35,-0.47 2.68,-0.73 4,-0.79 1.32,-0.06 2.46,0.23 3.43,0.88 0.97,0.65 1.39,1.88 1.28,3.6899996 -0.06,0.94 -0.43,1.95 -1.1,3.03 -0.67,1.09 -1.25,2.01 -1.72,2.77 -0.59,0.82 -1.44,1.88 -2.55,3.17 -1.11,1.29 -2.41,2.59 -3.87,3.91 -1.47,1.32 -3.09,2.57 -4.88,3.74 -1.79,1.17 -3.68,2.08 -5.67,2.73 -0.53,0.18 -1.07,0.28 -1.63,0.31 -0.56,0.03 -1.11,0.04 -1.67,0.04 -0.56,0 -1.11,0.04 -1.67,0.13 -0.56,0.09 -1.1,0.31 -1.63,0.66 -0.82,0.59 -1.25,1.2 -1.27,1.85 -0.03,0.65 0.13,1.26 0.48,1.85 0.35,0.53 0.8,0.87 1.36,1.01 0.56,0.15 1.13,0.21 1.72,0.18 0.59,-0.03 1.16,-0.12 1.71,-0.26 0.56,-0.15 1.01,-0.28 1.36,-0.4 2.64,-0.88 5.25,-2.04 7.83,-3.48 2.58,-1.44 5,-3.09 7.26,-4.97 2.26,-1.88 4.31,-3.94 6.16,-6.2 1.85,-2.26 3.39,-4.65 4.62,-7.17 0.47,-1 0.85,-2.07 1.14,-3.21 0.29,-1.1399996 0.41,-2.2699996 0.35,-3.3899996 -0.06,-1.11 -0.32,-2.18 -0.79,-3.21 z m -26.03,53.7899996 c 1,-1.29 2.21,-2.42 3.65,-3.39 1.44,-0.97 2.8,-1.63 4.09,-1.98 v -0.09 c 0.88,-0.12 1.64,-0.12 2.29,0 0.64,0.12 1.08,0.47 1.32,1.06 0.23,0.59 0.28,1.13 0.13,1.63 -0.15,0.5 -0.41,0.94 -0.79,1.32 -0.38,0.38 -0.87,0.75 -1.45,1.1 -0.59,0.35 -1.17,0.65 -1.76,0.88 -1.05,0.35 -2.14,0.63 -3.25,0.84 -1.12,0.21 -2.17,0.37 -3.17,0.48 -0.59,0 -0.97,-0.18 -1.14,-0.53 -0.18,-0.47 -0.15,-0.91 0.09,-1.32 z"
     id="path1" />
  <path
     class="cls-1"
     d="m 158.41016,92.653382 c -19.35,0 -34.33,14.509998 -34.33,33.499998 0,18.99 14.79,33.49 34.05,33.49 19.26,0 34.05,-14.51 34.05,-33.49 0,-18.98 -14.61,-33.499998 -33.77,-33.499998 z m -0.28,55.819998 c -12.93,0 -22.61,-9.58 -22.61,-22.33 0,-12.75 9.77,-22.33 22.89,-22.33 13.12,0 22.42,9.58 22.42,22.33 0,12.75 -9.68,22.33 -22.7,22.33 z"
     id="path2" />
  <path
     class="cls-1"
     d="m 239.82016,131.01338 c 0,9.58 -6.33,15.35 -16.47,15.35 -10.14,0 -16.56,-5.77 -16.56,-15.35 V 94.513382 h -10.89 v 36.319998 c 0,15.91 10.98,26.52 27.45,26.52 16.47,0 27.45,-10.61 27.45,-26.52 V 94.513382 h -10.98 z"
     id="path3" />
  <rect
     class="cls-1"
     x="259.83017"
     y="94.513382"
     width="10.98"
     height="65.129997"
     id="rect3" />
  <polygon
     class="cls-1"
     points="531.5,388.07 572.63,388.07 572.63,377.37 542.48,377.37 542.48,322.94 531.5,322.94 "
     id="polygon3"
     transform="translate(-249.98984,-228.42662)" />
  <polygon
     class="cls-1"
     points="577.38,388.07 618.5,388.07 618.5,377.37 588.36,377.37 588.36,322.94 577.38,322.94 "
     id="polygon4"
     transform="translate(-249.98984,-228.42662)" />
  <path
     class="cls-1"
     d="m 489.03016,89.003382 -2.44,51.009998 -37.49,-45.499998 h -8.65 v 20.729998 c -1.49,1.82 -3.14,3.5 -4.93,5 -0.57,0.48 -1.11,0.92 -1.64,1.36 -2.51,-16.23 -16.07,-28.019998 -33.35,-28.019998 -19.35,0 -34.33,14.509998 -34.33,33.499998 0,18.99 14.79,33.49 34.05,33.49 16.73,0 29.97,-10.85 33.26,-26.05 2.73,-1.25 4.92,-2.82 6.94,-4.45 v 29.57 h 10.98 v -45.59 l 37.59,45.59 h 8.47 l 2.53,-70.639998 h -10.98 z m -66.12,37.249998 c -4.38,0.21 -8.2,-1.22 -10.37,-2.28 l -0.27,-0.13 c -1.31,-0.63 -3.76,-1.81 -5.68,-4.15 -3.24,-3.94 -4.92,-9.39 -4.7,-14.88 11.87,0.64 20.63,9.57 21.02,21.44 z m -22.67,23.15 c -12.93,0 -22.61,-9.58 -22.61,-22.33 0,-9.46 5.38,-17.16 13.52,-20.52 0.16,7.34 2.64,14.44 7.16,19.93 3.42,4.16 7.54,6.15 9.3,7 l 0.23,0.11 c 2.77,1.35 7.39,3.1 12.91,3.35 -3.56,7.5 -11.16,12.46 -20.51,12.46 z"
     id="path4" />
  <path
     class="cls-1"
     d="m 105.44016,114.12338 c 5.03,-3.59 7.82,-8.88 7.82,-15.239998 0,-11.69 -9.49,-19.85 -23.080002,-19.85 h -31.25 v 45.139998 c -16.15,4.65 -22.56,24.77 -13.09,38.93 5.68,9.27 17.03,12.63 26.97,13.03 16.96,1.07 36.640002,-5.25 44.180002,-21.84 4.26,-9.62 4.3,-21.26 -1.46,-30.27 -2.66,-4.11 -6.08,-7.44 -10.08,-9.91 z M 70.950158,89.983382 h 18.69 c 7.14,0 11.580002,3.57 11.580002,9.32 0,5.749998 -4.680002,10.159998 -10.920002,10.289998 -4.81,-0.25 -9.74,0.05 -14.11,0 v 0 c 0,0 -5.24,0 -5.24,0 V 89.963382 Z m 28.93,67.139998 c -10.35,7.9 -30.01,10.54 -41.38,3.12 -7.58,-5.84 -8.06,-18.84 0.35,-24.17 4.17,-2.67 10.7,-3.12 14.87,-0.13 2.66,2.58 3.58,6.67 3.5,10.67 0,0 10.78,0 10.78,0 -0.19,-12.17 -6.38,-21.24 -17.05,-23.13 v -3.04 h 6.66 c 0.48,0 0.95,0 1.41,0 h 8.24 c 1.92,0.06 3.83,0.19 5.8,0.48 5.07,1.01 10.040002,4.78 12.660002,9.15 5.15,8.74 2.26,21.02 -5.850002,27.04 z"
     id="path5" />
  <path
     class="cls-1"
     d="m 225.14016,214.82338 5.33,1.7 c 4.53,1.44 6.72,6.34 5.1,11.43 -1.62,5.09 -6.25,7.82 -10.78,6.37 l -5.33,-1.7 z m 0.34,17.19 c 3.45,1.1 6.76,-0.87 7.99,-4.74 1.23,-3.87 -0.32,-7.39 -3.77,-8.49 l -3.18,-1.01 -4.22,13.23 z"
     id="path6" />
  <path
     class="cls-1"
     d="m 241.14016,219.01338 9.17,1.54 -0.39,2.37 -6.99,-1.17 -0.87,5.22 6.8,1.14 -0.4,2.4 -6.8,-1.14 -1.01,6.09 6.99,1.17 -0.4,2.37 -9.17,-1.54 3.07,-18.44 z"
     id="path7" />
  <path
     class="cls-1"
     d="m 250.14016,236.90338 1.86,-1.43 c 0.93,1.64 2.14,2.59 3.49,2.81 1.78,0.29 3.26,-0.72 3.52,-2.35 0.2,-1.21 -0.43,-2.13 -1.51,-3.03 l -2.57,-2.04 c -1.88,-1.47 -2.64,-3.1 -2.31,-5.1 0.46,-2.82 2.8,-4.52 5.67,-4.06 1.8,0.29 3.39,1.33 4.49,3.21 l -1.7,1.48 c -0.87,-1.38 -2.03,-2.17 -3.17,-2.35 -1.52,-0.25 -2.78,0.61 -3,1.98 -0.18,1.11 0.41,1.96 1.49,2.83 l 2.59,2.07 c 1.97,1.53 2.6,3.31 2.28,5.31 -0.5,3.08 -3.04,4.92 -6.17,4.41 -2.04,-0.33 -3.78,-1.58 -4.97,-3.75 z"
     id="path8" />
  <path
     class="cls-1"
     d="m 273.97016,223.86338 9.29,0.46 -0.12,2.4 -7.08,-0.35 -0.26,5.28 6.89,0.34 -0.12,2.43 -6.89,-0.34 -0.3,6.16 7.08,0.35 -0.12,2.4 -9.29,-0.46 0.91,-18.66 z"
     id="path9" />
  <path
     class="cls-1"
     d="m 297.59016,237.10338 -7.75,0.26 -1.9,5.7 -2.35,0.08 6.5,-19.09 2.4,-0.08 7.78,18.6 -2.4,0.08 -2.28,-5.56 z m -0.94,-2.32 -3.27,-8.07 -2.75,8.27 z"
     id="path10" />
  <path
     class="cls-1"
     d="m 304.46016,235.09338 -1.45,-11.35 2.19,-0.28 1.45,11.38 c 0.39,3.07 2.45,4.74 5.31,4.38 2.86,-0.37 4.41,-2.5 4.02,-5.57 l -1.45,-11.38 2.19,-0.28 1.45,11.35 c 0.57,4.5 -1.75,7.78 -5.92,8.31 -4.15,0.53 -7.21,-2.04 -7.79,-6.56 z"
     id="path11" />
  <path
     class="cls-1"
     d="m 326.52016,229.41338 -7.79,-7.78 2.63,-0.58 5.95,6.02 2.89,-7.97 2.6,-0.57 -3.8,10.33 7.94,7.91 -2.63,0.58 -6.07,-6.13 -2.96,8.12 -2.63,0.58 3.86,-10.51 z"
     id="path12" />
  <path
     class="cls-1"
     d="m 341.14016,216.18338 2.33,-0.84 10.22,12.36 -0.1,-16.03 2.28,-0.83 -0.03,19.88 -1.87,0.68 -12.82,-15.22 z"
     id="path13" />
  <path
     class="cls-1"
     d="m 367.87016,225.82338 -2.02,0.89 -7.51,-17.1 2.02,-0.89 7.51,17.11 z"
     id="path14" />
  <path
     class="cls-1"
     d="m 362.96016,207.70338 2.2,-1.14 11.73,10.94 -2.17,-15.9 2.15,-1.12 2.54,19.74 -1.77,0.92 z"
     id="path15" />
  <path
     class="cls-1"
     d="m 379.09016,199.05338 7.88,-4.94 1.27,2.04 -6.01,3.76 2.8,4.48 5.84,-3.66 1.29,2.06 -5.85,3.66 3.27,5.23 6.01,-3.76 1.27,2.04 -7.88,4.94 -9.91,-15.85 z"
     id="path16" />
  <path
     class="cls-1"
     d="m 398.00016,206.06338 0.3,-2.33 c 1.81,0.5 3.34,0.32 4.45,-0.49 1.46,-1.06 1.79,-2.81 0.82,-4.15 -0.72,-1 -1.81,-1.19 -3.21,-1.07 l -3.26,0.38 c -2.37,0.3 -4.06,-0.32 -5.25,-1.97 -1.67,-2.31 -1.22,-5.18 1.13,-6.88 1.48,-1.07 3.34,-1.45 5.45,-0.91 l -0.15,2.25 c -1.6,-0.36 -2.97,-0.09 -3.91,0.58 -1.25,0.9 -1.53,2.39 -0.72,3.52 0.66,0.91 1.68,1.09 3.06,0.95 l 3.29,-0.37 c 2.48,-0.31 4.19,0.5 5.37,2.14 1.83,2.53 1.34,5.62 -1.23,7.48 -1.67,1.21 -3.8,1.56 -6.16,0.86 z"
     id="path17" />
  <path
     class="cls-1"
     d="m 151.51016,202.04338 c 1.57,2.76 0.79,5.51 -2.01,7.1 l -5.32,3.03 -9.25,-16.25 5.01,-2.85 c 2.69,-1.53 5.3,-0.83 6.77,1.74 0.95,1.67 0.96,3.29 0.1,4.64 1.92,-0.26 3.59,0.63 4.7,2.58 z m -10.76,-0.3 3.13,-1.78 c 1.55,-0.88 1.93,-2.3 1.04,-3.85 -0.86,-1.51 -2.27,-1.9 -3.82,-1.03 l -3.13,1.78 2.77,4.87 z m 8.78,1.19 c -0.95,-1.67 -2.54,-2.09 -4.19,-1.15 l -3.45,1.96 3.04,5.34 3.45,-1.96 c 1.65,-0.94 2.1,-2.52 1.15,-4.19 z"
     id="path18" />
  <path
     class="cls-1"
     d="m 165.65016,201.91338 -6.42,-5.1 -2.71,1.05 2.57,6.6 -2.06,0.8 -6.79,-17.42 5.69,-2.21 c 3.2,-1.25 6.09,0.07 7.37,3.35 1.08,2.76 0.39,5.3 -1.8,6.78 l 6.61,5.19 z m -9.97,-6.21 3.61,-1.4 c 1.97,-0.77 2.71,-2.43 1.93,-4.45 -0.78,-2.02 -2.45,-2.71 -4.42,-1.95 l -3.61,1.4 z"
     id="path19" />
  <path
     class="cls-1"
     d="m 180.04016,192.00338 -7.54,1.85 -0.69,5.97 -2.29,0.56 2.43,-20 2.33,-0.57 11.45,16.59 -2.33,0.57 -3.37,-4.97 z m -1.4,-2.08 -4.87,-7.21 -0.99,8.65 z"
     id="path20" />
  <path
     class="cls-1"
     d="m 186.44016,193.75338 1.39,-1.89 c 1.35,1.31 2.78,1.89 4.14,1.72 1.79,-0.22 2.92,-1.6 2.72,-3.24 -0.15,-1.22 -1.01,-1.92 -2.3,-2.48 l -3.03,-1.24 c -2.22,-0.88 -3.4,-2.24 -3.65,-4.25 -0.35,-2.83 1.42,-5.13 4.3,-5.48 1.81,-0.23 3.62,0.33 5.21,1.83 l -1.22,1.9 c -1.22,-1.08 -2.56,-1.51 -3.7,-1.37 -1.53,0.19 -2.49,1.36 -2.32,2.74 0.14,1.11 0.95,1.76 2.22,2.3 l 3.06,1.26 c 2.32,0.92 3.43,2.45 3.68,4.46 0.39,3.1 -1.53,5.57 -4.68,5.96 -2.05,0.25 -4.08,-0.46 -5.82,-2.21 z"
     id="path21" />
  <path
     class="cls-1"
     d="m 199.01016,192.26338 1.56,-1.75 c 1.22,1.44 2.58,2.15 3.95,2.11 1.8,-0.05 3.07,-1.31 3.02,-2.97 -0.03,-1.23 -0.82,-2.01 -2.04,-2.69 l -2.9,-1.52 c -2.12,-1.09 -3.17,-2.56 -3.23,-4.59 -0.08,-2.85 1.91,-4.97 4.82,-5.05 1.83,-0.05 3.58,0.67 5.02,2.32 l -1.39,1.77 c -1.12,-1.2 -2.4,-1.75 -3.56,-1.72 -1.54,0.04 -2.62,1.11 -2.58,2.5 0.03,1.12 0.77,1.85 1.99,2.51 l 2.93,1.55 c 2.22,1.14 3.18,2.77 3.23,4.8 0.08,3.12 -2.07,5.4 -5.24,5.49 -2.07,0.06 -4.02,-0.85 -5.58,-2.76 z"
     id="path22" />
  <path
     class="cls-1"
     d="m 214.49016,176.08338 9.27,0.68 -0.18,2.4 -7.07,-0.52 -0.39,5.27 6.88,0.5 -0.18,2.42 -6.88,-0.5 -0.45,6.15 7.07,0.52 -0.18,2.4 -9.27,-0.68 z"
     id="path23" />
  <path
     class="cls-1"
     d="m 235.12016,197.53338 -2.79,-7.7 -2.86,-0.52 -1.28,6.96 -2.17,-0.4 3.37,-18.38 6,1.1 c 3.38,0.62 5.14,3.25 4.51,6.72 -0.53,2.92 -2.45,4.71 -5.08,4.82 l 2.9,7.89 -2.6,-0.48 z m -5.23,-10.51 3.8,0.7 c 2.08,0.38 3.59,-0.65 3.98,-2.77 0.39,-2.13 -0.66,-3.59 -2.74,-3.98 l -3.8,-0.7 z"
     id="path24" />
  <path
     class="cls-1"
     d="m 243.19016,199.44338 -2.14,-0.54 4.56,-18.12 2.14,0.54 z"
     id="path25" />
  <path
     class="cls-1"
     d="m 253.21016,182.77338 8.87,2.78 -0.72,2.29 -6.76,-2.12 -1.58,5.04 6.58,2.06 -0.73,2.32 -6.58,-2.06 -1.84,5.88 6.76,2.12 -0.72,2.29 -8.87,-2.79 5.58,-17.83 z"
     id="path26" />
  <path
     class="cls-2"
     d="m 78.690158,211.52338 c -1.02,0 -2.05,-0.02 -3.08,-0.07 -2.81,-0.13 -5.67,-0.44 -8.52,-0.92 -2.77,-0.47 -5.57,-1.11 -8.3,-1.89 -2.69,-0.77 -5.34,-1.7 -7.9,-2.75 -1.5,-0.58 -3.02,-1.23 -4.49,-1.93 -1.54,-0.73 -3.04,-1.52 -4.47,-2.35 -1.5,-0.88 -2.95,-1.81 -4.3,-2.78 -1.42,-1.02 -2.77,-2.1 -4.01,-3.22 -1.31,-1.17 -2.52,-2.41 -3.61,-3.67 -1.15,-1.33 -2.19,-2.72 -3.09,-4.15 -0.95,-1.49 -1.77,-3.05 -2.43,-4.63 -0.7,-1.65 -1.25,-3.37 -1.65,-5.11 l 3.48,-0.79 c 0.35,1.53 0.84,3.05 1.45,4.51 0.59,1.4 1.32,2.78 2.16,4.11 0.81,1.27 1.74,2.53 2.78,3.73 0.99,1.15 2.1,2.28 3.29,3.35 1.15,1.03 2.39,2.03 3.71,2.97 1.26,0.9 2.61,1.77 4.01,2.59 1.34,0.78 2.76,1.52 4.2,2.21 1.39,0.66 2.83,1.28 4.28,1.83 2.47,1.02 5.01,1.9 7.57,2.64 2.61,0.75 5.27,1.36 7.91,1.8 2.7,0.46 5.43,0.75 8.09,0.88 2.74,0.13 5.45,0.08 8.07,-0.15 2.7,-0.24 5.34,-0.67 7.85,-1.28 2.6,-0.64 5.1,-1.48 7.43,-2.51 2.430002,-1.07 4.730002,-2.36 6.850002,-3.83 l 2.04,2.93 c -2.31,1.61 -4.81,3.01 -7.45,4.17 -2.530002,1.11 -5.220002,2.03 -8.020002,2.71 -2.68,0.66 -5.5,1.12 -8.38,1.37 -1.79,0.16 -3.62,0.24 -5.46,0.24 z"
     id="path27" />
  <path
     class="cls-2"
     d="m 38.190158,224.26338 c -2.58,-1.1 -5.16,-2.38 -7.67,-3.82 -2.44,-1.4 -4.84,-2.97 -7.13,-4.65 -2.25,-1.66 -4.42,-3.45 -6.46,-5.32 -1.21,-1.06 -2.41,-2.2 -3.54,-3.36 -1.19,-1.22 -2.32,-2.48 -3.38,-3.76 -1.1099999,-1.34 -2.1399999,-2.72 -3.0699999,-4.09 -0.98,-1.44 -1.87,-2.93 -2.65,-4.41 -0.82,-1.55 -1.53,-3.13 -2.12,-4.7 -0.62,-1.65 -1.11,-3.31 -1.45999999,-4.96 -0.37,-1.73 -0.6,-3.47 -0.68,-5.19 -0.08,-1.79 0,-3.59 0.23,-5.36 l 3.53999999,0.47 c -0.21,1.56 -0.27,3.15 -0.2,4.73 0.07,1.52 0.27,3.07 0.6,4.6 0.32,1.47 0.76,2.97 1.31,4.46 0.53,1.42 1.18,2.86 1.93,4.28 0.72,1.36 1.54,2.73 2.45,4.07 0.8699999,1.28 1.8299999,2.57 2.8699999,3.82 0.99,1.2 2.06,2.39 3.18,3.53 1.07,1.1 2.21,2.17 3.38,3.21 1.97,1.81 4.04,3.52 6.18,5.1 2.19,1.61 4.47,3.1 6.79,4.43 2.38,1.37 4.83,2.59 7.28,3.63 l -1.39,3.29 z"
     id="path28" />
</svg>
