<?xml version="1.0" encoding="UTF-8" standalone="no"?>
<!-- Created with Inkscape (http://www.inkscape.org/) -->

<svg
   width="1200mm"
   height="627mm"
   viewBox="0 0 1200 627"
   version="1.1"
   id="svg1"
   inkscape:version="1.3.1 (9b9bdc1480, 2023-11-25, custom)"
   sodipodi:docname="opengraph-image.svg"
   xmlns:inkscape="http://www.inkscape.org/namespaces/inkscape"
   xmlns:sodipodi="http://sodipodi.sourceforge.net/DTD/sodipodi-0.dtd"
   xmlns="http://www.w3.org/2000/svg"
   xmlns:svg="http://www.w3.org/2000/svg">
  <sodipodi:namedview
     id="namedview1"
     pagecolor="#505050"
     bordercolor="#ffffff"
     borderopacity="1"
     inkscape:showpageshadow="0"
     inkscape:pageopacity="0"
     inkscape:pagecheckerboard="1"
     inkscape:deskcolor="#505050"
     inkscape:document-units="mm"
     inkscape:zoom="0.079370951"
     inkscape:cx="1625.2798"
     inkscape:cy="1448.8928"
     inkscape:window-width="1366"
     inkscape:window-height="704"
     inkscape:window-x="1920"
     inkscape:window-y="339"
     inkscape:window-maximized="1"
     inkscape:current-layer="layer1" />
  <defs
     id="defs1" />
  <g
     inkscape:label="Layer 1"
     inkscape:groupmode="layer"
     id="layer1">
    <rect
       style="fill:#ea4900;stroke-width:0.265634;fill-opacity:1"
       id="rect1"
       width="1200"
       height="627"
       x="0"
       y="0" />
    <g
       id="g1"
       transform="translate(12.844788,19.687011)"
       style="fill:#ffffff;fill-opacity:1">
      <path
         class="cls-2"
         d="m 711.33419,60.092696 c -0.93838,-2.036403 -2.39574,-3.893087 -4.39222,-5.530186 -1.99642,-1.517256 -4.15258,-2.515544 -6.50839,-2.994684 -2.33583,-0.459539 -4.77146,-0.578755 -7.28703,-0.359171 -2.51547,0.239185 -4.97112,0.738714 -7.38678,1.497351 -2.39571,0.758619 -4.6517,1.617086 -6.76794,2.535466 -5.61002,2.69521 -10.86071,5.829589 -15.71201,9.403261 -4.85137,3.573601 -9.563,7.526529 -14.1348,11.858838 -7.02754,6.668133 -13.69558,13.795411 -20.02432,21.341987 -6.32873,7.546522 -12.53771,15.192862 -18.60686,22.919122 -3.39395,4.69163 -6.88772,9.34335 -10.4414,13.95516 -3.57367,4.63171 -7.04744,9.22352 -10.44137,13.79541 -1.87668,2.45563 -3.77326,5.03104 -5.70986,7.72625 -1.93657,2.69522 -3.95291,5.35044 -6.04922,7.98574 -2.11626,2.6353 -4.31232,5.15086 -6.58823,7.5466 -2.27598,2.39573 -4.77155,4.47198 -7.46669,6.22889 -0.93837,0.2392 -1.69701,0.41953 -2.27598,0.51915 -1.51727,0.35917 -3.01462,0.79855 -4.47206,1.31761 -1.47735,0.51913 -2.89479,1.25777 -4.31231,2.19607 -1.29762,0.69873 -2.67522,1.75691 -4.13258,3.15445 -1.45743,1.39745 -2.63529,2.8948 -3.51376,4.47197 -0.87846,1.57718 -1.23779,3.15437 -1.05812,4.75155 0.17959,1.57719 1.25777,2.89487 3.2542,3.95298 1.87666,1.17789 3.83316,1.59711 5.8895,1.31763 2.0364,-0.29956 4.07274,-1.07805 6.04923,-2.37574 0.9383,-0.57875 1.81676,-1.11804 2.63531,-1.57718 0.81855,-0.45952 1.63708,-0.99829 2.45563,-1.57719 5.39037,-2.91487 10.54123,-4.15264 15.45244,-3.69343 4.91128,0.45954 9.8824,1.63703 14.93344,3.51369 3.27411,1.75693 6.50839,3.15438 9.66275,4.2125 5.61002,1.75691 11.04029,2.01641 16.25106,0.79863 5.2107,-1.23779 10.04207,-3.31412 14.49413,-6.22891 1.6371,-1.05811 3.8731,-2.81504 6.66814,-5.27061 0.69872,-0.59911 1.39752,-1.27777 2.11623,-1.97649 0.0604,0.25957 0.0996,0.49876 0.16,0.75863 0.69872,2.57539 2.09624,5.03104 4.2125,7.38686 2.21598,2.45564 5.15077,4.09273 8.78428,4.9112 3.63352,0.81855 7.48669,1.01821 11.59934,0.61875 4.09275,-0.39916 8.10557,-1.3377 12.03858,-2.81505 3.91299,-1.45735 7.2271,-3.19428 9.92231,-5.17077 2.21607,-1.75685 4.21249,-3.43387 5.96934,-5.01104 1.75693,-1.57718 2.93479,-2.65531 3.51376,-3.2542 1.17788,-1.17794 2.21607,-2.3159 3.15437,-3.43392 0.93838,-1.11797 1.81675,-2.13617 2.6353,-3.07447 0.57876,-0.81855 0.79856,-1.67702 0.61875,-2.55548 -0.1796,-0.87844 -0.55914,-1.57717 -1.13795,-2.11624 -0.57876,-0.51913 -1.29771,-0.83845 -2.11626,-0.95828 -0.81853,-0.12004 -1.57717,0.23919 -2.27589,1.05811 -1.17795,1.39752 -2.3359,2.75505 -3.51378,4.03284 -1.17786,1.29769 -2.45563,2.51547 -3.87307,3.69342 -1.6371,1.39752 -3.65351,2.99461 -6.06924,4.75154 -2.39574,1.75685 -4.95113,2.93472 -7.64634,3.51369 -1.99643,0.45954 -4.15259,0.75863 -6.48848,0.87846 -2.33581,0.12004 -4.5918,-0.0226 -6.76788,-0.43915 -2.17615,-0.39916 -4.13264,-1.07805 -5.8895,-2.01641 -1.75692,-0.9383 -3.05461,-2.21607 -3.87316,-3.87309 -0.23919,-0.81855 -0.25957,-1.59718 -0.0799,-2.37574 0.17958,-0.75871 0.73872,-1.3776 1.67702,-1.83675 h 0.35917 c 1.2777,-0.2392 2.69514,-0.49877 4.21248,-0.79855 1.51728,-0.29956 3.15436,-0.61875 4.91121,-0.9583 2.45565,-0.35917 5.01111,-0.89846 7.64643,-1.677 2.6353,-0.75872 5.15077,-1.67702 7.5465,-2.71522 2.39574,-1.05811 4.57189,-2.31583 6.48847,-3.77326 1.9365,-1.45744 3.53368,-3.13443 4.83139,-5.01104 2.21607,-3.51376 2.6353,-6.80786 1.23778,-9.92232 -1.39752,-3.09453 -4.33231,-5.11094 -8.78437,-6.04924 -1.75686,-0.35918 -3.8731,-0.43915 -6.32875,-0.25956 -2.45556,0.17958 -4.45204,0.49951 -5.96931,0.95828 -4.91121,1.6371 -9.40327,3.83317 -13.4361,6.5883 -4.03275,2.75505 -7.58642,6.04924 -10.62104,9.92233 -1.75686,2.09625 -3.2742,4.37214 -4.57182,6.76788 -0.69872,1.29769 -1.23785,2.59539 -1.65709,3.933 -0.47914,0.49876 -0.97821,1.0182 -1.49736,1.51735 -1.29769,1.23778 -2.57538,2.31583 -3.87307,3.25418 -1.29769,0.93831 -2.49557,1.75686 -3.5936,2.45565 -1.11796,0.69873 -2.01642,1.23778 -2.71515,1.57719 -4.09273,2.09624 -8.52479,3.59359 -13.25634,4.47199 -4.75155,0.87844 -9.563,0.13956 -14.4942,-2.19608 -4.91123,-2.33582 -9.8425,-4.33224 -14.75371,-5.96934 -1.75686,-0.93837 -2.93479,-2.05632 -3.51376,-3.33411 -0.93831,-1.87666 -1.13797,-3.81316 -0.61875,-5.78967 0.51913,-1.99641 1.31769,-3.91299 2.37582,-5.78967 0.69872,-0.81855 1.37752,-1.57717 2.0164,-2.27598 0.63912,-0.69873 1.2577,-1.51726 1.83668,-2.45556 0.69872,-0.93838 1.39753,-1.77685 2.09624,-2.55548 0.69872,-0.75864 1.39754,-1.59718 2.11626,-2.53547 1.27776,-1.51727 2.57545,-3.09446 3.87307,-4.75155 1.27779,-1.63708 2.57548,-3.27418 3.85317,-4.91121 3.03462,-3.51376 6.08916,-7.08736 9.12378,-10.72094 3.03453,-3.63352 6.08915,-7.30695 9.12369,-11.06029 6.20897,-7.72625 12.41789,-15.51235 18.60686,-23.35835 6.20892,-7.845996 12.99688,-15.033186 20.36372,-21.601489 2.33582,-2.096316 4.83139,-3.972922 7.46669,-5.610004 2.63529,-1.637099 5.2906,-3.214286 7.98574,-4.751554 1.27777,-0.698725 3.2742,-1.517274 5.96941,-2.455649 2.69521,-0.938286 5.35045,-1.457344 7.98575,-1.577169 2.63529,-0.12004 4.91128,0.459522 6.84778,1.756835 1.93659,1.29769 2.77506,3.753339 2.55548,7.366929 -0.12004,1.876589 -0.85847,3.893015 -2.19608,6.049172 -1.33761,2.176152 -2.49555,4.012895 -3.43392,5.530169 -1.17789,1.637099 -2.87488,3.753338 -5.09088,6.328741 -2.21607,2.575385 -4.81146,5.170764 -7.72626,7.806077 -2.93479,2.635302 -6.16898,5.130872 -9.74265,7.466672 -3.5736,2.33583 -7.34686,4.15259 -11.31986,5.45028 -1.05804,0.35917 -2.13616,0.55914 -3.25418,0.61875 -1.11797,0.0604 -2.216,0.0799 -3.33404,0.0799 -1.11803,0 -2.21607,0.0799 -3.33402,0.25958 -1.11803,0.17957 -2.19615,0.61872 -3.25428,1.31768 -1.63701,1.17787 -2.49548,2.39574 -2.53547,3.69343 -0.0604,1.29769 0.25958,2.51547 0.9583,3.69342 0.69871,1.05811 1.59716,1.73684 2.71521,2.01641 1.11795,0.29957 2.25598,0.41953 3.43385,0.35917 1.17786,-0.0604 2.3159,-0.23995 3.41394,-0.51913 1.11796,-0.29956 2.01641,-0.55913 2.71514,-0.79855 5.27059,-1.75693 10.48129,-4.07275 15.63215,-6.94763 5.15079,-2.87488 9.98225,-6.16905 14.49414,-9.92232 4.51197,-3.75334 8.60472,-7.865992 12.29813,-12.377968 3.69342,-4.511976 6.76789,-9.283436 9.22354,-14.314469 0.93837,-1.996504 1.69699,-4.132666 2.27598,-6.408577 0.57874,-2.275983 0.81855,-4.531953 0.69873,-6.767946 -0.12004,-2.21607 -0.63912,-4.352232 -1.57719,-6.408559 z M 659.36676,167.48128 c 1.99648,-2.57538 4.41213,-4.83137 7.28702,-6.76796 2.87488,-1.9365 5.59008,-3.25419 8.16547,-3.95291 v -0.17959 c 1.75685,-0.23994 3.27419,-0.23994 4.57181,0 1.27777,0.2392 2.15616,0.9383 2.6353,2.11625 0.45954,1.17787 0.55914,2.2559 0.25957,3.25419 -0.29956,0.99821 -0.81855,1.87659 -1.57718,2.63531 -0.75864,0.75862 -1.73692,1.49727 -2.89487,2.19606 -1.17787,0.69873 -2.33583,1.29771 -3.51369,1.75685 -2.09632,0.69873 -4.2724,1.25778 -6.48847,1.67702 -2.23599,0.41953 -4.33224,0.73872 -6.32872,0.95828 -1.17788,0 -1.93652,-0.35917 -2.27591,-1.05811 -0.35917,-0.9383 -0.29957,-1.81676 0.17957,-2.63531 z"
         id="path1"
         style="fill:#ffffff;stroke-width:0px;fill-opacity:1" />
      <path
         class="cls-1"
         d="m 404.28131,236.0791 c -38.63118,0 -68.53782,28.96835 -68.53782,66.88081 0,37.91239 29.52733,66.86082 67.97884,66.86082 38.45145,0 67.97886,-28.96835 67.97886,-66.86082 0,-37.89247 -29.16801,-66.88081 -67.41988,-66.88081 z m -0.55912,111.44141 c -25.81399,0 -45.13957,-19.12593 -45.13957,-44.58059 0,-25.45466 19.50524,-44.58053 45.69855,-44.58053 26.19337,0 44.76024,19.12587 44.76024,44.58053 0,25.45466 -19.32558,44.58059 -45.31922,44.58059 z"
         id="path2"
         style="fill:#ffffff;stroke-width:0px;fill-opacity:1" />
      <path
         class="cls-1"
         d="m 566.8117,312.66259 c 0,19.12592 -12.63746,30.64544 -32.88142,30.64544 -20.24389,0 -33.0611,-11.51952 -33.0611,-30.64544 v -72.87014 h -21.74124 v 72.51081 c 0,31.7634 21.92098,52.94565 54.80234,52.94565 32.88142,0 54.8024,-21.18225 54.8024,-52.94565 V 239.79245 H 566.8117 Z"
         id="path3"
         style="fill:#ffffff;stroke-width:0px;fill-opacity:1" />
      <rect
         class="cls-1"
         x="606.76056"
         y="239.79248"
         width="21.920937"
         height="130.02829"
         id="rect3"
         style="fill:#ffffff;stroke-width:0px;fill-opacity:1" />
      <polygon
         class="cls-1"
         points="531.5,322.94 531.5,388.07 572.63,388.07 572.63,377.37 542.48,377.37 542.48,322.94 "
         id="polygon3"
         style="fill:#ffffff;stroke-width:0px;fill-opacity:1"
         transform="matrix(1.9964425,0,0,1.9964425,-411.06577,-404.93868)" />
      <polygon
         class="cls-1"
         points="577.38,322.94 577.38,388.07 618.5,388.07 618.5,377.37 588.36,377.37 588.36,322.94 "
         id="polygon4"
         style="fill:#ffffff;stroke-width:0px;fill-opacity:1"
         transform="matrix(1.9964425,0,0,1.9964425,-411.06577,-404.93868)" />
      <path
         class="cls-1"
         d="m 1064.3452,228.79208 -4.8714,101.83849 -74.84668,-90.83812 h -17.26914 v 41.38623 c -2.97467,3.63352 -6.2688,6.98753 -9.84241,9.98223 -1.13806,0.9583 -2.21609,1.83676 -3.27424,2.71514 -5.01106,-32.4022 -32.08284,-55.94028 -66.58135,-55.94028 -38.63113,0 -68.53784,28.96836 -68.53784,66.88081 0,37.91246 29.52742,66.8609 67.97884,66.8609 33.40042,0 59.83348,-21.66142 66.40165,-52.00736 5.45037,-2.49557 9.82253,-5.63 13.85535,-8.88421 v 59.03482 h 21.92095 v -91.01779 l 75.04617,91.01779 h 16.9099 l 5.051,-141.02865 h -21.921 z m -132.00478,74.36749 c -8.74449,0.41953 -16.37081,-2.43572 -20.70319,-4.55189 l -0.53875,-0.25958 c -2.61545,-1.25777 -7.50664,-3.61359 -11.33987,-8.28521 -6.46838,-7.866 -9.82253,-18.74663 -9.38321,-29.70707 23.69775,1.2777 41.18655,19.10593 41.9652,42.80375 z m -45.25932,46.21761 c -25.81405,0 -45.13965,-19.12594 -45.13965,-44.5806 0,-18.88627 10.74092,-34.25895 26.99188,-40.96699 0.31927,14.65395 5.27066,28.82867 14.29447,39.78913 6.82797,8.30523 15.05324,12.27813 18.56701,13.97507 l 0.45885,0.21957 c 5.53009,2.69516 14.75367,6.18899 25.77391,6.68806 -7.10728,14.97336 -22.2802,24.87569 -40.94701,24.87569 z"
         id="path4"
         style="fill:#ffffff;stroke-width:0px;fill-opacity:1" />
      <path
         class="cls-1"
         d="m 298.52976,278.94269 c 10.04214,-7.1672 15.61215,-17.72842 15.61215,-30.42578 0,-23.33842 -18.94619,-39.6294 -46.07785,-39.6294 h -62.38885 v 90.1194 c -32.24253,9.28345 -45.03974,49.45189 -26.13339,77.72153 11.33978,18.50703 33.99938,25.21508 53.84404,26.01363 33.85965,2.13624 73.14964,-10.48131 88.20282,-43.6023 8.50487,-19.20577 8.58471,-42.44436 -2.91479,-60.43233 -5.31054,-8.20533 -12.13839,-14.85354 -20.12414,-19.78475 z m -68.85732,-48.19411 h 37.31357 c 14.25455,0 23.11876,7.12727 23.11876,18.6068 0,11.47958 -9.34335,20.28388 -21.80115,20.54345 -9.60283,-0.49877 -19.44533,0.0996 -28.16979,0 v 0 c 0,0 -10.46139,0 -10.46139,0 v -39.19017 z m 57.75712,134.04111 c -20.66321,15.7719 -59.91328,21.04252 -82.61282,6.2289 -15.13302,-11.65916 -16.0913,-37.61298 0.69873,-48.25401 8.32515,-5.33046 21.36193,-6.22891 29.68708,-0.25958 5.31051,5.15079 7.14727,13.31627 6.98753,21.30202 0,0 21.52166,0 21.52166,0 -0.37955,-24.29672 -12.73729,-42.40444 -34.03937,-46.17771 v -6.06915 h 13.29634 c 0.9583,0 1.89659,0 2.81497,0 h 16.4507 c 3.83317,0.12004 7.64635,0.37955 11.57934,0.95828 10.122,2.01641 20.04432,9.54294 25.27501,18.2674 10.28165,17.44892 4.51189,41.96528 -11.67924,53.98386 z"
         id="path5"
         style="fill:#ffffff;stroke-width:0px;fill-opacity:1" />
      <path
         class="cls-1"
         d="m 537.50395,479.98444 10.64105,3.39394 c 9.04386,2.87487 13.41609,12.65746 10.18181,22.81936 -3.23419,10.1619 -12.47771,15.61216 -21.52166,12.71736 l -10.64104,-3.39401 z m 0.6791,34.31885 c 6.88772,2.19608 13.49594,-1.73691 15.95157,-9.46317 2.45558,-7.72617 -0.63911,-14.75369 -7.52658,-16.94977 l -6.34874,-2.01643 -8.42496,26.41296 z"
         id="path6"
         style="fill:#ffffff;stroke-width:0px;fill-opacity:1" />
      <path
         class="cls-1"
         d="m 569.447,488.34957 18.30739,3.07446 -0.77863,4.73162 -13.95509,-2.33588 -1.73691,10.42145 13.57576,2.27591 -0.79856,4.79146 -13.57582,-2.27589 -2.01634,12.15831 13.95506,2.33582 -0.79855,4.73162 -18.30737,-3.07452 6.12906,-36.81444 z"
         id="path7"
         style="fill:#ffffff;stroke-width:0px;fill-opacity:1" />
      <path
         class="cls-1"
         d="m 587.41498,524.06588 3.71342,-2.85488 c 1.85668,3.27411 4.27232,5.17078 6.96755,5.61001 3.55368,0.57875 6.50839,-1.43744 7.02745,-4.69163 0.39916,-2.41573 -0.85847,-4.25249 -3.01462,-6.04924 l -5.13087,-4.07274 c -3.75325,-2.93479 -5.27059,-6.18899 -4.61172,-10.18189 0.91838,-5.62994 5.59001,-9.02388 11.31977,-8.10557 3.5936,0.57874 6.76797,2.65529 8.96404,6.40863 l -3.39395,2.95471 c -1.73691,-2.75505 -4.05274,-4.33231 -6.32873,-4.69164 -3.03454,-0.49876 -5.55009,1.21787 -5.98933,3.95293 -0.35917,2.21607 0.81855,3.91308 2.97471,5.64999 l 5.17078,4.13258 c 3.93301,3.05461 5.19078,6.60822 4.5519,10.60114 -0.99822,6.14905 -6.06917,9.82248 -12.31806,8.80429 -4.07275,-0.65873 -7.54652,-3.15437 -9.92234,-7.48661 z"
         id="path8"
         style="fill:#ffffff;stroke-width:0px;fill-opacity:1" />
      <path
         class="cls-1"
         d="m 634.9902,498.03225 18.54697,0.91837 -0.23996,4.79147 -14.13482,-0.69873 -0.51913,10.54121 13.7555,0.67911 -0.23921,4.85131 -13.75549,-0.67835 -0.59911,12.29806 14.13481,0.69872 -0.23921,4.79146 -18.54694,-0.91829 1.81683,-37.25366 z"
         id="path9"
         style="fill:#ffffff;stroke-width:0px;fill-opacity:1" />
      <path
         class="cls-1"
         d="m 682.14618,524.46521 -15.47241,0.51913 -3.79325,11.37968 -4.69164,0.15999 12.97686,-38.11205 4.79147,-0.16 15.53232,37.13384 -4.79145,0.15999 -4.5519,-11.10027 z m -1.87666,-4.6318 -6.52838,-16.11124 -5.4902,16.51054 z"
         id="path10"
         style="fill:#ffffff;stroke-width:0px;fill-opacity:1" />
      <path
         class="cls-1"
         d="m 695.86176,520.45237 -2.89487,-22.65969 4.37223,-0.55914 2.8948,22.71953 c 0.77863,6.12908 4.8913,9.4631 10.60113,8.74438 5.70984,-0.73871 8.8043,-4.99104 8.02574,-11.1201 l -2.89487,-22.71954 4.37222,-0.55913 2.8948,22.65962 c 1.13802,8.98403 -3.49376,15.53234 -11.81892,16.59045 -8.28523,1.05813 -14.3943,-4.07274 -15.55226,-13.09662 z"
         id="path11"
         style="fill:#ffffff;stroke-width:0px;fill-opacity:1" />
      <path
         class="cls-1"
         d="m 739.9033,509.11253 -15.55233,-15.53234 5.25069,-1.15787 11.87883,12.01857 5.76967,-15.91166 5.19078,-1.13794 -7.58651,20.6232 15.85174,15.79189 -5.2506,1.15789 -12.11842,-12.23815 -5.90949,16.21105 -5.2506,1.15796 7.70625,-20.9826 z"
         id="path12"
         style="fill:#ffffff;stroke-width:0px;fill-opacity:1" />
      <path
         class="cls-1"
         d="m 769.09123,482.69957 4.65171,-1.67701 20.40365,24.67603 -0.19995,-32.00297 4.55186,-1.65701 -0.0609,39.6893 -3.73325,1.35753 -25.59448,-30.38587 z"
         id="path13"
         style="fill:#ffffff;stroke-width:0px;fill-opacity:1" />
      <path
         class="cls-1"
         d="m 822.45622,501.94532 -4.03282,1.77685 -14.99339,-34.1392 4.03299,-1.77685 14.99322,34.15912 z"
         id="path14"
         style="fill:#ffffff;stroke-width:0px;fill-opacity:1" />
      <path
         class="cls-1"
         d="m 812.65358,465.76979 4.39222,-2.27599 23.41826,21.84107 -4.3322,-31.74339 4.29225,-2.23599 5.07107,39.40974 -3.53366,1.83674 z"
         id="path15"
         style="fill:#ffffff;stroke-width:0px;fill-opacity:1" />
      <path
         class="cls-1"
         d="m 844.85628,448.50053 15.73191,-9.86242 2.53554,4.07275 -11.99865,7.50659 5.59011,8.94412 11.65914,-7.30702 2.5755,4.11267 -11.67921,7.30702 6.52822,10.44137 11.99866,-7.50658 2.53554,4.07273 -15.73191,9.86241 -19.7848,-31.64364 z"
         id="path16"
         style="fill:#ffffff;stroke-width:0px;fill-opacity:1" />
      <path
         class="cls-1"
         d="m 882.60897,462.4956 0.59912,-4.65172 c 3.61357,0.99822 6.66815,0.63912 8.88406,-0.97822 2.91483,-2.11624 3.5738,-5.61 1.63721,-8.28522 -1.43744,-1.9965 -3.61357,-2.37581 -6.40854,-2.13623 l -6.50852,0.75863 c -4.73156,0.59911 -8.10559,-0.63911 -10.48131,-3.933 -3.33408,-4.61172 -2.43574,-10.34157 2.25604,-13.7355 2.95479,-2.13616 6.66797,-2.89487 10.88049,-1.81677 l -0.29956,4.49199 c -3.19433,-0.7191 -5.92945,-0.17958 -7.80603,1.15795 -2.49558,1.79683 -3.05457,4.77146 -1.43743,7.02745 1.31757,1.81675 3.35396,2.17615 6.10915,1.89666 l 6.56818,-0.73872 c 4.95122,-0.61872 8.36502,0.99822 10.72086,4.27242 3.65352,5.05103 2.67528,11.22001 -2.45564,14.93336 -3.33389,2.41573 -7.58637,3.11445 -12.29804,1.717 z"
         id="path17"
         style="fill:#ffffff;stroke-width:0px;fill-opacity:1" />
      <path
         class="cls-1"
         d="m 390.50589,454.46994 c 3.13438,5.51017 1.57719,11.00037 -4.01289,14.17472 l -10.62106,6.04925 -18.46704,-32.44219 10.00215,-5.68993 c 5.37044,-3.05455 10.58113,-1.65701 13.51592,3.47386 1.8966,3.33402 1.91659,6.5683 0.19996,9.26351 3.83318,-0.51915 7.1672,1.2577 9.38327,5.15079 z m -21.48173,-0.59913 6.24888,-3.55367 c 3.09446,-1.75686 3.8531,-4.59181 2.07625,-7.68626 -1.71691,-3.01462 -4.53188,-3.79325 -7.62641,-2.05634 l -6.24883,3.5536 5.53011,9.72275 z m 17.52875,2.37582 c -1.8966,-3.33411 -5.07095,-4.17257 -8.36507,-2.29598 l -6.8877,3.91308 6.06915,10.66096 6.88772,-3.91301 c 3.2941,-1.87666 4.19256,-5.03103 2.2959,-8.36505 z"
         id="path18"
         style="fill:#ffffff;stroke-width:0px;fill-opacity:1" />
      <path
         class="cls-1"
         d="m 418.73562,454.21037 -12.81721,-10.18182 -5.41036,2.09624 5.13086,13.17652 -4.11265,1.59711 -13.55583,-34.77801 11.35975,-4.41214 c 6.38857,-2.49557 12.15831,0.13957 14.71372,6.68812 2.15616,5.51018 0.77863,10.58113 -3.59359,13.53584 l 13.19651,10.36156 z m -19.90457,-12.39789 7.20718,-2.79504 c 3.93292,-1.53727 5.41036,-4.85137 3.8531,-8.88413 -1.55719,-4.03282 -4.8913,-5.41044 -8.82429,-3.89307 l -7.20711,2.79497 z"
         id="path19"
         style="fill:#ffffff;stroke-width:0px;fill-opacity:1" />
      <path
         class="cls-1"
         d="m 447.46438,434.42563 -15.05318,3.69342 -1.37752,11.91875 -4.57189,1.11802 4.85136,-39.92887 4.65173,-1.13794 22.85926,33.12099 -4.65171,1.13796 -6.72804,-9.92233 z m -2.79504,-4.15258 -9.72267,-14.39437 -1.97649,17.26925 z"
         id="path20"
         style="fill:#ffffff;stroke-width:0px;fill-opacity:1" />
      <path
         class="cls-1"
         d="m 460.24158,437.91939 2.77505,-3.77324 c 2.69523,2.6153 5.55018,3.77324 8.26531,3.43385 3.5736,-0.43915 5.82959,-3.19429 5.43036,-6.46847 -0.29956,-2.43566 -2.01641,-3.83318 -4.59188,-4.9512 l -6.04918,-2.47557 c -4.43214,-1.75686 -6.78794,-4.47206 -7.28702,-8.48488 -0.69872,-5.64994 2.83498,-10.24174 8.58473,-10.94046 3.61352,-0.45954 7.22711,0.65873 10.40139,3.65343 l -2.43564,3.79324 c -2.43565,-2.15615 -5.11087,-3.0146 -7.38685,-2.73512 -3.05454,0.37954 -4.97112,2.71522 -4.63173,5.47027 0.27919,2.21607 1.89667,3.51376 4.43214,4.59179 l 6.10909,2.51556 c 4.63171,1.83668 6.84778,4.89129 7.34693,8.90413 0.77863,6.18897 -3.05454,11.12018 -9.34337,11.89881 -4.09273,0.49878 -8.14547,-0.91836 -11.61933,-4.41213 z"
         id="path21"
         style="fill:#ffffff;stroke-width:0px;fill-opacity:1" />
      <path
         class="cls-1"
         d="m 485.33693,434.9447 3.11445,-3.49378 c 2.43564,2.87487 5.15077,4.29232 7.88592,4.2125 3.59359,-0.0996 6.12906,-2.61532 6.02923,-5.92942 -0.0604,-2.45565 -1.63708,-4.01284 -4.07273,-5.37044 l -5.78968,-3.03462 c -4.23247,-2.17608 -6.32872,-5.11087 -6.44847,-9.16361 -0.16,-5.68991 3.81318,-9.92232 9.62284,-10.08206 3.65344,-0.0996 7.14728,1.3376 10.02215,4.63171 l -2.77512,3.53377 c -2.23599,-2.39574 -4.79147,-3.49385 -7.1073,-3.43394 -3.07452,0.0799 -5.23067,2.21607 -5.15086,4.99111 0.0604,2.236 1.53727,3.69343 3.97293,5.01104 l 5.84958,3.09454 c 4.43214,2.27591 6.34872,5.53011 6.44855,9.58292 0.15999,6.22891 -4.13265,10.78079 -10.46137,10.96045 -4.13267,0.12004 -8.02567,-1.69694 -11.14012,-5.51017 z"
         id="path22"
         style="fill:#ffffff;stroke-width:0px;fill-opacity:1" />
      <path
         class="cls-1"
         d="m 516.24185,402.64224 18.50698,1.3576 -0.35918,4.79148 -14.11489,-1.03814 -0.77856,10.52122 13.73549,0.99821 -0.35917,4.83137 -13.7355,-0.99819 -0.89836,12.27813 14.11481,1.03812 -0.35918,4.79147 -18.50703,-1.35753 z"
         id="path23"
         style="fill:#ffffff;stroke-width:0px;fill-opacity:1" />
      <path
         class="cls-1"
         d="m 557.42844,445.46599 -5.57011,-15.37267 -5.70983,-1.03812 -2.55539,13.89524 -4.33231,-0.79855 6.72805,-36.69461 11.97864,2.19607 c 6.74797,1.23778 10.26173,6.4884 9.00396,13.4161 -1.05813,5.82959 -4.89131,9.40319 -10.14199,9.62283 l 5.78976,15.75193 -5.19078,-0.9583 z m -10.4414,-20.98268 7.58652,1.39752 c 4.15257,0.75864 7.16719,-1.29769 7.94583,-5.53009 0.77856,-4.2525 -1.31769,-7.16729 -5.47028,-7.94583 l -7.58649,-1.39752 z"
         id="path24"
         style="fill:#ffffff;stroke-width:0px;fill-opacity:1" />
      <path
         class="cls-1"
         d="m 573.53975,449.27916 -4.27241,-1.07812 9.10378,-36.17553 4.2724,1.07812 z"
         id="path25"
         style="fill:#ffffff;stroke-width:0px;fill-opacity:1" />
      <path
         class="cls-1"
         d="m 593.54406,415.9985 17.70849,5.55009 -1.43744,4.57182 -13.49601,-4.23241 -3.15435,10.06207 13.1366,4.11265 -1.45745,4.63173 -13.13658,-4.11267 -3.67343,11.73909 13.49591,4.23248 -1.43743,4.57181 -17.70842,-5.57008 11.14019,-35.59657 z"
         id="path26"
         style="fill:#ffffff;stroke-width:0px;fill-opacity:1" />
      <path
         class="cls-2"
         d="m 245.12494,473.39622 c -2.0364,0 -4.09273,-0.0378 -6.14907,-0.13957 -5.61001,-0.25956 -11.31984,-0.87845 -17.00968,-1.83675 -5.5301,-0.93837 -11.1202,-2.21607 -16.57046,-3.77326 -5.37044,-1.53727 -10.66098,-3.394 -15.77192,-5.49025 -2.99461,-1.15796 -6.02923,-2.45565 -8.96402,-3.8531 -3.07454,-1.45743 -6.06917,-3.03461 -8.92405,-4.69164 -2.9947,-1.7569 -5.88957,-3.61359 -8.58471,-5.55016 -2.83496,-2.03633 -5.53018,-4.19249 -8.00574,-6.42848 -2.61539,-2.3359 -5.03103,-4.81147 -7.20718,-7.32701 -2.29591,-2.65522 -4.37223,-5.43029 -6.169,-8.28524 -1.89659,-2.97471 -3.53368,-6.08914 -4.85137,-9.24352 -1.39752,-3.29412 -2.49557,-6.72797 -3.29412,-10.20181 l 6.94763,-1.57719 c 0.69872,3.05454 1.67702,6.08916 2.89487,9.00396 1.17786,2.79504 2.6353,5.55009 4.31231,8.20538 1.61711,2.53548 3.47377,5.05105 5.5501,7.44676 1.97641,2.29591 4.19248,4.5519 6.5683,6.68806 2.2959,2.05633 4.77148,4.05274 7.40677,5.92942 2.51556,1.79682 5.2107,3.53368 8.00574,5.17078 2.67522,1.55726 5.51018,3.03462 8.38507,4.41215 2.77505,1.31768 5.64992,2.55546 8.54479,3.6535 4.93121,2.03634 10.00216,3.79326 15.11303,5.2706 5.2107,1.49735 10.5213,2.71515 15.79189,3.59361 5.39037,0.91836 10.84063,1.49735 16.15123,1.75684 5.47019,0.25957 10.88055,0.15999 16.11124,-0.29957 5.39044,-0.47914 10.66104,-1.33768 15.67207,-2.55546 5.19078,-1.27771 10.1819,-2.95471 14.83362,-5.01113 4.8513,-2.13616 9.44318,-4.71154 13.67559,-7.64633 l 4.07275,5.84958 c -4.61181,3.21429 -9.60285,6.00933 -14.87346,8.32514 -5.05103,2.21607 -10.42147,4.05283 -16.01148,5.41036 -5.35052,1.31768 -10.98045,2.23606 -16.7302,2.73513 -3.5736,0.31918 -7.22711,0.47916 -10.90061,0.47916 z"
         id="path27"
         style="fill:#ffffff;stroke-width:0px;fill-opacity:1" />
      <path
         class="cls-2"
         d="m 164.26898,498.83088 c -5.15078,-2.19607 -10.30164,-4.75155 -15.31268,-7.62643 -4.87129,-2.79504 -9.66275,-5.92942 -14.23463,-9.28344 -4.49199,-3.31409 -8.82429,-6.88778 -12.89703,-10.62113 -2.41566,-2.11615 -4.8114,-4.39213 -7.06738,-6.70803 -2.3758,-2.43565 -4.63179,-4.95113 -6.74795,-7.50661 -2.21607,-2.67521 -4.2724,-5.43035 -6.12916,-8.16548 -1.956487,-2.87488 -3.733337,-5.84951 -5.290527,-8.80429 -1.63708,-3.09445 -3.05453,-6.24882 -4.23248,-9.38327 -1.23778,-3.2941 -2.21607,-6.60822 -2.91479,-9.90232 -0.73872,-3.45385 -1.19786,-6.92771 -1.35761,-10.36156 -0.15999,-3.5736 0,-7.1672 0.45952,-10.70095 l 7.06737,0.93837 c -0.41953,3.11444 -0.53875,6.28873 -0.39916,9.44318 0.13957,3.03453 0.53877,6.12906 1.19788,9.1836 0.63909,2.93479 1.51727,5.92942 2.6153,8.90413 1.058127,2.83496 2.355817,5.70983 3.853167,8.54479 1.43744,2.71514 3.07445,5.45028 4.89128,8.1255 1.73686,2.55546 3.65344,5.13086 5.72976,7.62641 1.97649,2.39574 4.11265,4.77148 6.34865,7.04746 2.13623,2.19608 4.41214,4.33231 6.74804,6.40856 3.933,3.61359 8.06558,7.02752 12.33798,10.18189 4.37222,3.21429 8.92412,6.18898 13.55583,8.84422 4.75155,2.73512 9.64284,5.17078 14.53414,7.2471 l -2.77506,6.5683 z"
         id="path28"
         style="fill:#ffffff;stroke-width:0px;fill-opacity:1" />
    </g>
  </g>
</svg>
