<?xml version="1.0" encoding="utf-8"?>
<svg xmlns="http://www.w3.org/2000/svg" width="362px" height="275px" viewBox="0 0 362 275">
  <symbol id="a">
    <path d="M.249 0C.39 0 .486.078.486.217.486.327.4.4.293.431.197.459.164.474.164.523c0 .04.032.068.076.068C.283.591.319.559.321.5h.156C.467.642.381.724.24.724.1.724.006.638.006.512.006.39.089.33.193.302.295.275.327.255.327.203.327.164.299.133.25.133.2.133.163.165.157.231H0C.01.084.102 0 .249 0z"/>
  </symbol>
  <symbol id="b">
    <path d="M.291.6A.183.183 0 0 1 .148.541v.047H0V0h.155v.349c0 .066.041.106.103.106.061 0 .098-.039.098-.106V0h.156v.376C.512.513.42.6.291.6z"/>
  </symbol>
  <symbol id="c">
    <path d="M.469.544a.232.232 0 0 1-.171.068A.296.296 0 0 1 0 .306C0 .129.13 0 .298 0c.075 0 .131.026.171.068V.012h.147V.6H.469V.544M.314.146a.156.156 0 0 0-.158.163c0 .094.069.162.158.162A.156.156 0 0 0 .473.309.156.156 0 0 0 .314.146z"/>
  </symbol>
  <symbol id="d">
    <path d="M.309 0c.144 0 .257.086.292.213L.459.256A.145.145 0 0 0 .313.147a.155.155 0 0 0-.157.161c0 .094.068.161.157.161A.152.152 0 0 0 .461.367l.136.052a.298.298 0 0 1-.288.193A.301.301 0 0 1 0 .306.3.3 0 0 1 .309 0z"/>
  </symbol>
  <symbol id="e">
    <path d="m.308.311.215.277H.335L.153.341V.7H0V0h.153v.273L.342 0h.195L.308.311z"/>
  </symbol>
  <symbol id="f">
    <path d="M.089.551c.049 0 .088.039.088.087a.087.087 0 0 1-.088.087A.088.088 0 0 1 0 .638C0 .59.039.551.089.551M.166 0v.503H.01V0h.156z"/>
  </symbol>
  <symbol id="g">
    <path d="M.393.661a.196.196 0 0 1-.145.06A.249.249 0 0 1 0 .469C0 .33.11.218.248.218a.194.194 0 0 1 .139.053V.219C.387.16.349.117.283.117c-.057 0-.095.03-.106.075H.016C.038.084.125 0 .282 0c.149 0 .256.083.256.236v.472H.393V.661M.276.343a.122.122 0 0 0-.123.123c0 .069.054.123.123.123A.121.121 0 0 0 .4.466.12.12 0 0 0 .276.343z"/>
  </symbol>
  <symbol id="h">
    <path d="M0 0z"/>
  </symbol>
  <symbol id="i">
    <path d="M.219 0C.345 0 .43.07.43.186c0 .098-.071.156-.163.18C.178.391.153.402.153.44c0 .028.023.051.06.051.034 0 .062-.023.065-.066h.145C.414.54.336.612.212.612S.005.536.005.431s.073-.16.16-.182C.254.227.283.215.283.174.283.144.258.122.221.122c-.039 0-.07.026-.073.073H0C.009.072.094 0 .219 0z"/>
  </symbol>
  <symbol id="j">
    <path d="M.155 0v.7H0V0h.155z"/>
  </symbol>
  <symbol id="k">
    <path d="M.427.834.158.764l.029-.11.27.067-.03.113M.616.306a.299.299 0 0 1-.308.306A.301.301 0 0 1 0 .306C0 .134.134 0 .311 0 .41 0 .502.039.566.12L.447.206A.166.166 0 0 0 .155.26h.457c.003.016.004.03.004.046M.159.371a.156.156 0 0 0 .152.106c.072 0 .131-.04.153-.106H.159z"/>
  </symbol>
  <use transform="matrix(0, -13, -13, 0, 420.7249450683594, 692.3949584960938)" fill="#f05622" href="#h"/>
  <g data-name="P" transform="matrix(1, 0, 0, 1, -65.922058, -31.23605)">
    <symbol id="l">
      <path d="M.369 0c.15 0 .264.08.324.2L.552.271A.2.2 0 0 0 .37.15C.254.15.168.245.168.364c0 .118.086.211.202.211.084 0 .151-.05.182-.119l.139.07a.352.352 0 0 1-.322.198A.367.367 0 0 1 0 .362C0 .163.166 0 .369 0z"/>
    </symbol>
    <symbol id="m">
      <path d="M.32.595C.238.595.181.564.145.511v.077H0V0h.152v.254c0 .169.09.191.165.191h.008v.15H.32z"/>
    </symbol>
    <symbol id="n">
      <path d="m.435.654.05.102-.111.053a.153.153 0 0 1-.067.016A.153.153 0 0 1 .24.809L.131.755l.05-.101.126.056.128-.056M.616.306a.299.299 0 0 1-.308.306A.301.301 0 0 1 0 .306C0 .134.134 0 .311 0 .41 0 .502.039.566.12L.447.206A.166.166 0 0 0 .155.26h.457c.003.016.004.03.004.046M.159.371a.156.156 0 0 0 .152.106c.072 0 .131-.04.153-.106H.159z"/>
    </symbol>
    <symbol id="o">
      <path d="M.318.712A.23.23 0 0 1 .146.644V.7H0V0h.154v.159A.24.24 0 0 1 .318.1C.486.1.615.23.615.406a.294.294 0 0 1-.297.306M.3.246a.156.156 0 0 0-.158.162c0 .095.069.163.158.163A.156.156 0 0 0 .459.408.156.156 0 0 0 .3.246z"/>
    </symbol>
    <symbol id="p">
      <path d="M.616.306a.299.299 0 0 1-.308.306A.301.301 0 0 1 0 .306C0 .134.134 0 .311 0 .41 0 .502.039.566.12L.447.206A.166.166 0 0 0 .155.26h.457c.003.016.004.03.004.046M.159.371a.156.156 0 0 0 .152.106c.072 0 .131-.04.153-.106H.159z"/>
    </symbol>
    <use transform="matrix(12, 0, 0, -12, 104.04000091552734, 132.57200622558594)" fill="#f05622" href="#l"/>
    <use transform="matrix(12, 0, 0, -12, 113.20899963378906, 132.42799377441406)" fill="#f05622" href="#m"/>
    <use transform="matrix(12, 0, 0, -12, 117.3489990234375, 132.57200622558594)" fill="#f05622" href="#n"/>
    <use transform="matrix(12, 0, 0, -12, 125.73699951171875, 133.77200317382812)" fill="#f05622" href="#o"/>
    <use transform="matrix(12, 0, 0, -12, 133.78900146484375, 132.57200622558594)" fill="#f05622" href="#p"/>
    <use transform="matrix(12, 0, 0, -12, 141.7689971923828, 132.57200622558594)" fill="#f05622" href="#i"/>
  </g>
  <g data-name="P" transform="matrix(1, 0, 0, 1, -65.922058, -31.23605)">
    <symbol id="q">
      <path d="M.366 0a.34.34 0 0 1 .332.243H.599A.243.243 0 0 0 .366.091a.264.264 0 0 0-.274.272c0 .154.11.273.274.273.107 0 .2-.062.233-.153h.099a.34.34 0 0 1-.332.243A.356.356 0 0 1 0 .363C0 .162.152 0 .366 0z"/>
    </symbol>
    <symbol id="r">
      <path d="M.087.425V.5H0V0h.087v.268c0 .115.076.153.151.15v.091A.161.161 0 0 1 .087.425z"/>
    </symbol>
    <symbol id="s">
      <path d="M.257.66.318.579h.093L.305.714H.209L.103.579h.093L.257.66M.089.223h.412a.256.256 0 0 1 .003.039c0 .14-.094.264-.245.264C.103.526 0 .411 0 .263 0 .113.103 0 .26 0c.111 0 .198.061.227.152H.396C.375.111.325.079.261.079.172.079.104.131.089.223m0 .077a.163.163 0 0 0 .169.144C.333.444.402.398.415.3H.089z"/>
    </symbol>
    <symbol id="t">
      <path d="M.276.713A.218.218 0 0 1 .087.615V.7H0V0h.087v.285A.218.218 0 0 1 .276.187c.139 0 .253.115.253.263a.257.257 0 0 1-.253.263M.265.271A.175.175 0 0 0 .087.45c0 .102.077.179.178.179.1 0 .177-.077.177-.179A.175.175 0 0 0 .265.271z"/>
    </symbol>
    <symbol id="u">
      <path d="M.089.223h.412a.256.256 0 0 1 .003.039c0 .14-.094.264-.245.264C.103.526 0 .411 0 .263 0 .113.103 0 .26 0c.111 0 .198.061.227.152H.396C.375.111.325.079.261.079.172.079.104.131.089.223m0 .077a.163.163 0 0 0 .169.144C.333.444.402.398.415.3H.089z"/>
    </symbol>
    <symbol id="v">
      <path d="M0 0z"/>
    </symbol>
    <symbol id="w">
      <path d="M.106.922v-.11h.087v.11H.106m0-.73C.106.114.072.087 0 .093V.009C.126 0 .193.063.193.192v.53H.106v-.53z"/>
    </symbol>
    <symbol id="x">
      <path d="M.215.526C.104.526.021.456.021.353h.086c0 .06.05.09.108.09.059 0 .109-.03.109-.11V.262A.194.194 0 0 1 .175.32C.084.32 0 .267 0 .16 0 .053.084 0 .175 0c.064 0 .116.021.149.065V.013H.41v.323c0 .12-.083.19-.195.19M.2.074C.122.074.087.11.087.16c0 .05.035.087.113.087C.273.247.324.214.324.16.324.11.273.074.2.074z"/>
    </symbol>
    <symbol id="y">
      <path d="M.491.513A.161.161 0 0 1 .346.434a.142.142 0 0 1-.129.079.15.15 0 0 1-.13-.068V.5H0V0h.087v.305c0 .097.061.125.106.125C.24.43.281.403.281.334V0h.087v.305c0 .097.061.125.106.125C.52.43.561.403.561.334V0h.087v.337c0 .115-.07.176-.157.176z"/>
    </symbol>
    <symbol id="z">
      <path d="M.276.526A.219.219 0 0 1 .087.428v.285H0v-.7h.087v.085A.219.219 0 0 1 .276 0c.139 0 .253.115.253.263a.257.257 0 0 1-.253.263M.265.084a.175.175 0 0 0-.178.179c0 .102.077.179.178.179.1 0 .177-.077.177-.179A.175.175 0 0 0 .265.084z"/>
    </symbol>
    <symbol id="A">
      <path d="M.263 0c.146 0 .264.115.264.263a.262.262 0 0 1-.264.263A.26.26 0 0 1 0 .263.26.26 0 0 1 .263 0m0 .085a.174.174 0 0 0-.176.178c0 .101.077.178.176.178.1 0 .177-.077.177-.178A.174.174 0 0 0 .263.085z"/>
    </symbol>
    <symbol id="B">
      <path d="M.235.513A.164.164 0 0 1 .087.438V.5H0V0h.087v.285C.087.392.15.43.212.43.272.43.316.393.316.321V0h.087v.325c0 .117-.075.188-.168.188z"/>
    </symbol>
    <symbol id="C">
      <path d="M0 .241V.133h.052C.052.07.031.053 0 .046V0c.07.007.107.056.107.133v.108H0z"/>
    </symbol>
    <symbol id="D">
      <path d="M.284.5H.186v.16H.099V.5H0V.416h.099V0h.087v.416h.098V.5z"/>
    </symbol>
    <symbol id="E">
      <path d="M0 0h.087v.72H0V0z"/>
    </symbol>
    <use transform="matrix(9, 0, 0, -9, 103.9990005493164, 149.21400451660156)" fill="#252120" href="#q"/>
    <use transform="matrix(9, 0, 0, -9, 111.0999984741211, 149.0970001220703)" fill="#252120" href="#r"/>
    <use transform="matrix(9, 0, 0, -9, 113.51200103759766, 149.21400451660156)" fill="#252120" href="#s"/>
    <use transform="matrix(9, 0, 0, -9, 118.90299987792969, 150.89700317382812)" fill="#252120" href="#t"/>
    <use transform="matrix(9, 0, 0, -9, 124.3479995727539, 149.21400451660156)" fill="#252120" href="#u"/>
    <use transform="matrix(9, 0, 0, -9, 129.14500427246094, 149.0970001220703)" fill="#252120" href="#v"/>
    <use transform="matrix(9, 0, 0, -9, 131.23300170898438, 151.09500122070312)" fill="#252120" href="#w"/>
    <use transform="matrix(9, 0, 0, -9, 133.906005859375, 149.21400451660156)" fill="#252120" href="#x"/>
    <use transform="matrix(9, 0, 0, -9, 138.67599487304688, 149.0970001220703)" fill="#252120" href="#y"/>
    <use transform="matrix(9, 0, 0, -9, 145.58799743652344, 149.21400451660156)" fill="#252120" href="#z"/>
    <use transform="matrix(9, 0, 0, -9, 151.0330047607422, 149.21400451660156)" fill="#252120" href="#A"/>
    <use transform="matrix(9, 0, 0, -9, 156.7030029296875, 149.0970001220703)" fill="#252120" href="#B"/>
    <use transform="matrix(9, 0, 0, -9, 161.42799377441406, 150.29400634765625)" fill="#252120" href="#C"/>
    <use transform="matrix(9, 0, 0, -9, 163.0030059814453, 149.0970001220703)" fill="#252120" href="#v"/>
    <use transform="matrix(9, 0, 0, -9, 165.59500122070312, 149.21400451660156)" fill="#252120" href="#u"/>
    <use transform="matrix(9, 0, 0, -9, 170.98599243164062, 149.0970001220703)" fill="#252120" href="#y"/>
    <use transform="matrix(9, 0, 0, -9, 177.8979949951172, 149.0970001220703)" fill="#252120" href="#y"/>
    <use transform="matrix(9, 0, 0, -9, 184.55799865722656, 149.21400451660156)" fill="#252120" href="#u"/>
    <use transform="matrix(9, 0, 0, -9, 189.94900512695312, 149.0970001220703)" fill="#252120" href="#B"/>
    <use transform="matrix(9, 0, 0, -9, 194.23300170898438, 149.0970001220703)" fill="#252120" href="#D"/>
    <use transform="matrix(9, 0, 0, -9, 197.21099853515625, 149.21400451660156)" fill="#252120" href="#x"/>
    <use transform="matrix(9, 0, 0, -9, 201.9810028076172, 149.0970001220703)" fill="#252120" href="#E"/>
    <use transform="matrix(9, 0, 0, -9, 203.36700439453125, 149.0970001220703)" fill="#252120" href="#v"/>
  </g>
  <g data-name="P" transform="matrix(1, 0, 0, 1, -65.922058, -31.23605)">
    <symbol id="F">
      <path d="M.25.449H.155l.012.156H.46v.108h-.4L.033.337h.212c.078 0 .13-.042.13-.112S.323.112.245.112c-.079 0-.13.043-.13.113H0C0 .078.116 0 .245 0S.49.078.49.225C.49.371.379.449.25.449z"/>
    </symbol>
    <symbol id="G">
      <path d="M0 0z"/>
    </symbol>
    <use transform="matrix(8.25, 0, 0, -8.25, 208.13999938964844, 149.2050018310547)" fill="#252120" href="#F"/>
    <use transform="matrix(8.25, 0, 0, -8.25, 212.4459991455078, 149.0970001220703)" fill="#252120" href="#G"/>
  </g>
  <g data-name="P" transform="matrix(1, 0, 0, 1, -65.922058, -31.23605)">
    <symbol id="H">
      <path d="M.48.257C.47.164.418.112.34.112.258.112.205.169.187.273H.41v.071H.18v.019L.181.39H.41v.071H.189C.208.56.26.614.34.614.416.614.467.566.478.477h.117C.575.629.483.726.34.726.192.726.099.622.073.461H0V.39h.066L.065.363V.344H0V.273h.071C.096.107.19 0 .34 0c.146 0 .239.1.257.257H.48z"/>
    </symbol>
    <use transform="matrix(7, 0, 0, -7, 213.58200073242188, 149.18800354003906)" fill="#252120" href="#H"/>
  </g>
  <g data-name="P" transform="matrix(1, 0, 0, 1, -65.922058, -31.23605)">
    <symbol id="I">
      <path d="M.383.714H.278L.198.582h.084l.101.132M.089.223h.412a.256.256 0 0 1 .003.039c0 .14-.094.264-.245.264C.103.526 0 .411 0 .263 0 .113.103 0 .26 0c.111 0 .198.061.227.152H.396C.375.111.325.079.261.079.172.079.104.131.089.223m0 .077a.163.163 0 0 0 .169.144C.333.444.402.398.415.3H.089z"/>
    </symbol>
    <symbol id="J">
      <path d="M.443.713V.627a.22.22 0 0 1-.19.099A.256.256 0 0 1 0 .466C0 .32.114.205.253.205a.22.22 0 0 1 .19.099v-.07C.443.14.384.081.276.081.177.081.121.142.121.192H.034C.034.078.152 0 .276 0c.131 0 .253.078.253.234v.479H.443M.265.288a.175.175 0 0 0-.178.178c0 .1.077.177.178.177A.174.174 0 0 0 .443.466.175.175 0 0 0 .265.288z"/>
    </symbol>
    <symbol id="K">
      <path d="M.316.513V.229C.316.121.253.083.191.083.131.083.087.12.087.192v.321H0V.189C0 .071.075 0 .168 0 .229 0 .28.02.316.075V.013h.087v.5H.316z"/>
    </symbol>
    <symbol id="L">
      <path d="M.095.377c0 .047.046.068.095.068.048 0 .095-.022.095-.082h.086c0 .103-.08.163-.181.163C.088.526.008.467.008.377c0-.188.286-.115.286-.228C.294.102.248.081.19.081.133.081.086.103.086.163H0C0 .06.08 0 .19 0c.111 0 .191.059.191.149 0 .189-.286.115-.286.228z"/>
    </symbol>
    <symbol id="M">
      <path d="M0 .59h.087V.7H0V.59M0 0h.087v.5H0V0z"/>
    </symbol>
    <use transform="matrix(9, 0, 0, -9, 103.9990005493164, 161.6320037841797)" fill="#252120" href="#q"/>
    <use transform="matrix(9, 0, 0, -9, 111.0999984741211, 161.51499938964844)" fill="#252120" href="#r"/>
    <use transform="matrix(9, 0, 0, -9, 113.51200103759766, 161.6320037841797)" fill="#252120" href="#s"/>
    <use transform="matrix(9, 0, 0, -9, 118.90299987792969, 163.31500244140625)" fill="#252120" href="#t"/>
    <use transform="matrix(9, 0, 0, -9, 124.3479995727539, 161.6320037841797)" fill="#252120" href="#u"/>
    <use transform="matrix(9, 0, 0, -9, 129.14500427246094, 161.51499938964844)" fill="#252120" href="#v"/>
    <use transform="matrix(9, 0, 0, -9, 131.98899841308594, 161.51499938964844)" fill="#252120" href="#E"/>
    <use transform="matrix(9, 0, 0, -9, 133.7169952392578, 161.6320037841797)" fill="#252120" href="#I"/>
    <use transform="matrix(9, 0, 0, -9, 138.8560028076172, 163.4320068359375)" fill="#252120" href="#J"/>
    <use transform="matrix(9, 0, 0, -9, 144.68800354003906, 161.6320037841797)" fill="#252120" href="#K"/>
    <use transform="matrix(9, 0, 0, -9, 149.5030059814453, 161.51499938964844)" fill="#252120" href="#y"/>
    <use transform="matrix(9, 0, 0, -9, 156.16299438476562, 161.6320037841797)" fill="#252120" href="#u"/>
    <use transform="matrix(9, 0, 0, -9, 161.3470001220703, 161.6320037841797)" fill="#252120" href="#L"/>
    <use transform="matrix(9, 0, 0, -9, 165.16299438476562, 161.51499938964844)" fill="#252120" href="#v"/>
    <use transform="matrix(9, 0, 0, -9, 168.0070037841797, 161.51499938964844)" fill="#252120" href="#y"/>
    <use transform="matrix(9, 0, 0, -9, 174.66700744628906, 161.6320037841797)" fill="#252120" href="#x"/>
    <use transform="matrix(9, 0, 0, -9, 179.43699645996094, 161.51499938964844)" fill="#252120" href="#r"/>
    <use transform="matrix(9, 0, 0, -9, 182.3350067138672, 161.51499938964844)" fill="#252120" href="#M"/>
    <use transform="matrix(9, 0, 0, -9, 184.31500244140625, 161.51499938964844)" fill="#252120" href="#B"/>
    <use transform="matrix(9, 0, 0, -9, 188.77000427246094, 161.6320037841797)" fill="#252120" href="#I"/>
    <use transform="matrix(9, 0, 0, -9, 193.95399475097656, 161.6320037841797)" fill="#252120" href="#L"/>
    <use transform="matrix(9, 0, 0, -9, 197.77000427246094, 161.51499938964844)" fill="#252120" href="#v"/>
  </g>
  <g data-name="P" transform="matrix(1, 0, 0, 1, -65.922058, -31.23605)">
    <use transform="matrix(8.25, 0, 0, -8.25, 202.54100036621094, 161.6219940185547)" fill="#252120" href="#F"/>
    <use transform="matrix(8.25, 0, 0, -8.25, 206.84800720214844, 161.51499938964844)" fill="#252120" href="#G"/>
  </g>
  <g data-name="P" transform="matrix(1, 0, 0, 1, -65.922058, -31.23605)">
    <use transform="matrix(7, 0, 0, -7, 207.98399353027344, 161.6060028076172)" fill="#252120" href="#H"/>
    <use transform="matrix(7, 0, 0, -7, 212.33799743652344, 161.51499938964844)" fill="#252120" href="#G"/>
  </g>
  <g data-name="Artifact" transform="matrix(1, 0, 0, 1, -65.922058, -31.23605)">
    <clipPath id="N">
      <path transform="matrix(1 0 0 -1 0 796.535)" d="M0 0h498.898v796.535H0z"/>
    </clipPath>
    <g clip-path="url(#N)">
      <path d="M221.4 158.538a2.28 2.28 0 0 1-1.086 2.159 3.042 3.042 0 0 1-3.06.094l-.005-.003c.47-2.011 1.844-2.915 1.918-2.962a.379.379 0 0 0-.112-.686.374.374 0 0 0-.28.047 5.656 5.656 0 0 0-2.182 3.157c-.494-.463-1.034-1.337-.591-2.793.34-1.125 1.394-2.059 2.684-2.38a3.99 3.99 0 0 1 3.587.855c-.436.345-.968 1.066-.874 2.512z" fill="#51ba69"/>
    </g>
    <path d="M217.515 162.464a.392.392 0 0 1-.391-.378c-.01-.305.007-.613.05-.915.054-.37.148-.738.279-1.09a.392.392 0 0 1 .733.274 4.46 4.46 0 0 0-.28 1.705.391.391 0 0 1-.378.404h-.013" fill="#51ba69" data-name="Artifact"/>
    <symbol id="O">
      <path d="M.529.223h.412a.256.256 0 0 1 .003.039c0 .14-.094.264-.246.264A.227.227 0 0 1 .481.393a.24.24 0 0 1-.219.133A.257.257 0 0 1 0 .263C0 .115.111 0 .262 0a.24.24 0 0 1 .219.133A.226.226 0 0 1 .699 0c.112 0 .199.061.228.152H.836C.815.111.765.079.701.079.612.079.544.131.529.223m0 .077a.163.163 0 0 0 .169.144C.773.444.842.398.855.3H.529M.263.085a.171.171 0 0 0-.176.178c0 .101.072.178.176.178.1 0 .177-.077.177-.178A.174.174 0 0 0 .263.085z"/>
    </symbol>
    <symbol id="P">
      <path d="M.299.629v.084C.156.723.081.648.081.515V.5H0V.416h.081V0h.087v.416h.131V.5H.168v.015c0 .087.044.121.131.114z"/>
    </symbol>
    <use transform="matrix(9, 0, 0, -9, 103.9990005493164, 174.0489959716797)" fill="#252120" href="#q"/>
    <use transform="matrix(9, 0, 0, -9, 111.0999984741211, 173.9320068359375)" fill="#252120" href="#r"/>
    <use transform="matrix(9, 0, 0, -9, 113.51200103759766, 174.0489959716797)" fill="#252120" href="#s"/>
    <use transform="matrix(9, 0, 0, -9, 118.90299987792969, 175.73199462890625)" fill="#252120" href="#t"/>
    <use transform="matrix(9, 0, 0, -9, 124.3479995727539, 174.0489959716797)" fill="#252120" href="#u"/>
    <use transform="matrix(9, 0, 0, -9, 129.14500427246094, 173.9320068359375)" fill="#252120" href="#v"/>
    <use transform="matrix(9, 0, 0, -9, 131.23300170898438, 175.92999267578125)" fill="#252120" href="#w"/>
    <use transform="matrix(9, 0, 0, -9, 133.906005859375, 174.0489959716797)" fill="#252120" href="#x"/>
    <use transform="matrix(9, 0, 0, -9, 138.67599487304688, 173.9320068359375)" fill="#252120" href="#y"/>
    <use transform="matrix(9, 0, 0, -9, 145.58799743652344, 174.0489959716797)" fill="#252120" href="#z"/>
    <use transform="matrix(9, 0, 0, -9, 151.0330047607422, 174.0489959716797)" fill="#252120" href="#A"/>
    <use transform="matrix(9, 0, 0, -9, 156.7030029296875, 173.9320068359375)" fill="#252120" href="#B"/>
    <use transform="matrix(9, 0, 0, -9, 161.42799377441406, 175.12899780273438)" fill="#252120" href="#C"/>
    <use transform="matrix(9, 0, 0, -9, 163.0030059814453, 173.9320068359375)" fill="#252120" href="#v"/>
    <use transform="matrix(9, 0, 0, -9, 165.59500122070312, 174.0489959716797)" fill="#252120" href="#u"/>
    <use transform="matrix(9, 0, 0, -9, 170.98599243164062, 173.9320068359375)" fill="#252120" href="#y"/>
    <use transform="matrix(9, 0, 0, -9, 177.8979949951172, 173.9320068359375)" fill="#252120" href="#y"/>
    <use transform="matrix(9, 0, 0, -9, 184.55799865722656, 174.0489959716797)" fill="#252120" href="#u"/>
    <use transform="matrix(9, 0, 0, -9, 189.94900512695312, 173.9320068359375)" fill="#252120" href="#B"/>
    <use transform="matrix(9, 0, 0, -9, 194.23300170898438, 173.9320068359375)" fill="#252120" href="#D"/>
    <use transform="matrix(9, 0, 0, -9, 197.21099853515625, 174.0489959716797)" fill="#252120" href="#x"/>
    <use transform="matrix(9, 0, 0, -9, 201.9810028076172, 173.9320068359375)" fill="#252120" href="#E"/>
    <use transform="matrix(9, 0, 0, -9, 203.97900390625, 175.12899780273438)" fill="#252120" href="#C"/>
    <use transform="matrix(9, 0, 0, -9, 205.5540008544922, 173.9320068359375)" fill="#252120" href="#v"/>
    <use transform="matrix(9, 0, 0, -9, 208.14599609375, 174.0489959716797)" fill="#252120" href="#O"/>
    <use transform="matrix(9, 0, 0, -9, 217.38900756835938, 174.0489959716797)" fill="#252120" href="#K"/>
    <use transform="matrix(9, 0, 0, -9, 221.7449951171875, 173.9320068359375)" fill="#252120" href="#P"/>
    <use transform="matrix(9, 0, 0, -9, 224.43600463867188, 173.9320068359375)" fill="#252120" href="#v"/>
  </g>
  <g data-name="P" transform="matrix(1, 0, 0, 1, -65.922058, -31.23605)">
    <symbol id="Q">
      <path d="M.248.478H.235l.16.235H.264L.042.38A.245.245 0 0 1 0 .239C0 .098.102 0 .248 0c.145 0 .247.098.247.239S.393.478.248.478m0-.369c-.077 0-.133.05-.133.13s.056.13.133.13C.324.369.38.319.38.239.38.16.324.109.248.109z"/>
    </symbol>
    <use transform="matrix(8.25, 0, 0, -8.25, 229.14199829101562, 174.0399932861328)" fill="#252120" href="#Q"/>
    <use transform="matrix(8.25, 0, 0, -8.25, 233.4320068359375, 173.9320068359375)" fill="#252120" href="#G"/>
  </g>
  <use transform="matrix(7, 0, 0, -7, 168.64593505859375, 142.7869415283203)" fill="#252120" data-name="P" href="#H"/>
  <g data-name="P" transform="matrix(1, 0, 0, 1, -65.922058, -31.23605)">
    <symbol id="R">
      <path d="M.442.713V.428a.219.219 0 0 1-.189.098A.258.258 0 0 1 0 .263C0 .115.115 0 .253 0c.084 0 .149.038.189.098V.013h.087v.7H.442M.264.084c-.1 0-.177.077-.177.179s.077.179.177.179A.175.175 0 0 0 .442.263.175.175 0 0 0 .264.084z"/>
    </symbol>
    <symbol id="S">
      <path d="M.655.7H.544L.328.224.111.7H0V0h.093v.547L.288.118h.08l.195.429V0h.092v.7z"/>
    </symbol>
    <symbol id="T">
      <path d="M.523 0h.099L.363.7H.258L0 0h.099l.056.157h.312L.523 0M.186.244l.125.347.124-.347H.186z"/>
    </symbol>
    <symbol id="U">
      <path d="M.362 0c.203 0 .363.162.363.363a.36.36 0 0 1-.363.363A.36.36 0 0 1 0 .363.36.36 0 0 1 .362 0m0 .091a.267.267 0 0 0-.27.272c0 .154.117.273.27.273.153 0 .27-.119.27-.273a.267.267 0 0 0-.27-.272z"/>
    </symbol>
    <symbol id="V">
      <path d="M.254.7H0V0h.093v.265h.161a.218.218 0 1 1 0 .435m0-.348H.093v.261h.161C.324.613.38.555.38.483A.129.129 0 0 0 .254.352z"/>
    </symbol>
    <use transform="matrix(9, 0, 0, -9, 103.9990005493164, 186.46600341796875)" fill="#252120" href="#q"/>
    <use transform="matrix(9, 0, 0, -9, 111.0999984741211, 186.35000610351562)" fill="#252120" href="#r"/>
    <use transform="matrix(9, 0, 0, -9, 113.51200103759766, 186.46600341796875)" fill="#252120" href="#s"/>
    <use transform="matrix(9, 0, 0, -9, 118.90299987792969, 188.14999389648438)" fill="#252120" href="#t"/>
    <use transform="matrix(9, 0, 0, -9, 124.3479995727539, 186.46600341796875)" fill="#252120" href="#u"/>
    <use transform="matrix(9, 0, 0, -9, 129.14500427246094, 186.35000610351562)" fill="#252120" href="#v"/>
    <use transform="matrix(9, 0, 0, -9, 131.52999877929688, 186.35000610351562)" fill="#252120" href="#P"/>
    <use transform="matrix(9, 0, 0, -9, 134.4550018310547, 186.46600341796875)" fill="#252120" href="#A"/>
    <use transform="matrix(9, 0, 0, -9, 140.01699829101562, 186.46600341796875)" fill="#252120" href="#K"/>
    <use transform="matrix(9, 0, 0, -9, 144.83200073242188, 186.35000610351562)" fill="#252120" href="#r"/>
    <use transform="matrix(9, 0, 0, -9, 147.72999572753906, 186.35000610351562)" fill="#252120" href="#y"/>
    <use transform="matrix(9, 0, 0, -9, 154.38999938964844, 186.46600341796875)" fill="#252120" href="#u"/>
    <use transform="matrix(9, 0, 0, -9, 159.18699645996094, 186.35000610351562)" fill="#252120" href="#v"/>
    <use transform="matrix(9, 0, 0, -9, 161.7790069580078, 186.46600341796875)" fill="#252120" href="#R"/>
    <use transform="matrix(9, 0, 0, -9, 167.4759979248047, 186.46600341796875)" fill="#252120" href="#u"/>
    <use transform="matrix(9, 0, 0, -9, 172.2729949951172, 186.35000610351562)" fill="#252120" href="#v"/>
    <use transform="matrix(9, 0, 0, -9, 175.197998046875, 186.35000610351562)" fill="#252120" href="#S"/>
    <use transform="matrix(9, 0, 0, -9, 182.11000061035156, 186.46600341796875)" fill="#252120" href="#A"/>
    <use transform="matrix(9, 0, 0, -9, 187.77999877929688, 186.35000610351562)" fill="#252120" href="#B"/>
    <use transform="matrix(9, 0, 0, -9, 192.06399536132812, 186.35000610351562)" fill="#252120" href="#D"/>
    <use transform="matrix(9, 0, 0, -9, 195.37600708007812, 186.46600341796875)" fill="#252120" href="#z"/>
    <use transform="matrix(9, 0, 0, -9, 201.072998046875, 186.35000610351562)" fill="#252120" href="#r"/>
    <use transform="matrix(9, 0, 0, -9, 203.97000122070312, 186.35000610351562)" fill="#252120" href="#M"/>
    <use transform="matrix(9, 0, 0, -9, 205.74400329589844, 186.46600341796875)" fill="#252120" href="#L"/>
    <use transform="matrix(9, 0, 0, -9, 209.802001953125, 186.46600341796875)" fill="#252120" href="#A"/>
    <use transform="matrix(9, 0, 0, -9, 215.4720001220703, 186.35000610351562)" fill="#252120" href="#B"/>
    <use transform="matrix(9, 0, 0, -9, 219.5850067138672, 186.35000610351562)" fill="#252120" href="#v"/>
    <use transform="matrix(9, 0, 0, -9, 221.90699768066406, 186.35000610351562)" fill="#252120" href="#T"/>
    <use transform="matrix(9, 0, 0, -9, 227.66700744628906, 186.46600341796875)" fill="#252120" href="#U"/>
    <use transform="matrix(9, 0, 0, -9, 235.1999969482422, 186.35000610351562)" fill="#252120" href="#V"/>
    <use transform="matrix(9, 0, 0, -9, 239.43899536132812, 187.54600524902344)" fill="#252120" href="#C"/>
    <use transform="matrix(9, 0, 0, -9, 241.01400756835938, 186.35000610351562)" fill="#252120" href="#v"/>
    <use transform="matrix(9, 0, 0, -9, 243.6060028076172, 186.46600341796875)" fill="#252120" href="#A"/>
    <use transform="matrix(9, 0, 0, -9, 249.2760009765625, 186.35000610351562)" fill="#252120" href="#M"/>
    <use transform="matrix(9, 0, 0, -9, 251.00399780273438, 188.26600646972656)" fill="#252120" href="#J"/>
    <use transform="matrix(9, 0, 0, -9, 256.9440002441406, 186.35000610351562)" fill="#252120" href="#B"/>
    <use transform="matrix(9, 0, 0, -9, 261.39898681640625, 186.46600341796875)" fill="#252120" href="#A"/>
    <use transform="matrix(9, 0, 0, -9, 267.0690002441406, 186.35000610351562)" fill="#252120" href="#B"/>
    <use transform="matrix(9, 0, 0, -9, 271.5690002441406, 186.46600341796875)" fill="#252120" href="#L"/>
    <use transform="matrix(9, 0, 0, -9, 275.385009765625, 186.35000610351562)" fill="#252120" href="#v"/>
    <use transform="matrix(9, 0, 0, -9, 277.7699890136719, 186.35000610351562)" fill="#252120" href="#P"/>
    <use transform="matrix(9, 0, 0, -9, 281.05499267578125, 186.35000610351562)" fill="#252120" href="#r"/>
    <use transform="matrix(9, 0, 0, -9, 283.9530029296875, 186.35000610351562)" fill="#252120" href="#M"/>
    <use transform="matrix(9, 0, 0, -9, 285.510009765625, 186.35000610351562)" fill="#252120" href="#D"/>
    <use transform="matrix(9, 0, 0, -9, 288.5329895019531, 186.46600341796875)" fill="#252120" href="#L"/>
    <use transform="matrix(9, 0, 0, -9, 292.3489990234375, 186.35000610351562)" fill="#252120" href="#v"/>
  </g>
  <g data-name="P" transform="matrix(1, 0, 0, 1, -65.922058, -31.23605)">
    <use transform="matrix(8.25, 0, 0, -8.25, 297.05499267578125, 186.45599365234375)" fill="#252120" href="#Q"/>
    <use transform="matrix(8.25, 0, 0, -8.25, 301.3450012207031, 186.35000610351562)" fill="#252120" href="#G"/>
  </g>
  <g data-name="P" transform="matrix(1, 0, 0, 1, -65.922058, -31.23605)">
    <use transform="matrix(7, 0, 0, -7, 302.4809875488281, 186.44000244140625)" fill="#252120" href="#H"/>
    <use transform="matrix(7, 0, 0, -7, 306.8349914550781, 186.35000610351562)" fill="#252120" href="#G"/>
  </g>
  <g data-name="Artifact" transform="matrix(1, 0, 0, 1, -65.922058, -31.23605)">
    <clipPath id="W">
      <path transform="matrix(1 0 0 -1 0 796.535)" d="M0 0h498.898v796.535H0z"/>
    </clipPath>
    <g clip-path="url(#W)">
      <path d="M315.395 181.102c-.653 0-1.229.327-1.574.827a1.913 1.913 0 0 0-3.486 1.086c0 1.864 3.486 3.801 3.486 3.801s3.487-1.937 3.487-3.8a1.913 1.913 0 0 0-1.913-1.914" fill="#f05622"/>
    </g>
    <symbol id="X">
      <path d="M.324.425.288.289h.27C.542.208.483.145.376.145a.21.21 0 0 0-.213.217c0 .117.088.213.207.213A.2.2 0 0 0 .538.483l.125.091A.367.367 0 0 1 0 .362C0 .163.159 0 .369 0c.239 0 .338.18.339.3C.709.374.671.425.572.425H.324z"/>
    </symbol>
    <symbol id="Y">
      <path d="M.31 0c.176 0 .309.128.309.306A.3.3 0 0 1 .31.612.3.3 0 0 1 0 .306.3.3 0 0 1 .31 0m0 .144C.22.144.153.211.153.306.153.402.22.47.31.47.398.47.466.403.466.306.466.211.399.144.31.144z"/>
    </symbol>
    <symbol id="Z">
      <path d="M.356.251C.356.185.315.145.253.145c-.06 0-.098.039-.098.106V.6H0V.224C0 .087.091 0 .22 0c.058 0 .11.02.143.059V.012h.149V.6H.356V.251z"/>
    </symbol>
    <symbol id="aa">
      <path d="M.602.6A.211.211 0 0 1 .435.529C.403.574.352.6.283.6.221.6.171.576.142.535v.053H0V0h.154v.354c0 .065.031.101.088.101C.296.455.33.42.33.354V0h.155v.354c0 .064.032.101.09.101C.628.455.66.419.66.354V0h.155v.381C.815.516.727.6.602.6z"/>
    </symbol>
    <symbol id="ab">
      <path d="M.461.553a.238.238 0 0 1-.164.059A.295.295 0 0 1 0 .306C0 .129.129 0 .297 0a.23.23 0 0 1 .172.068V.012h.147v.7H.461V.553M.314.146a.156.156 0 0 0-.158.163c0 .094.069.162.158.162A.156.156 0 0 0 .473.309.156.156 0 0 0 .314.146z"/>
    </symbol>
    <use transform="matrix(12, 0, 0, -12, 104.04000091552734, 216.48399353027344)" fill="#f05622" href="#X"/>
    <use transform="matrix(12, 0, 0, -12, 113.20899963378906, 216.48399353027344)" fill="#f05622" href="#Y"/>
    <use transform="matrix(12, 0, 0, -12, 121.59700012207031, 216.48399353027344)" fill="#f05622" href="#Z"/>
    <use transform="matrix(12, 0, 0, -12, 129.0970001220703, 216.33999633789062)" fill="#f05622" href="#m"/>
    <use transform="matrix(12, 0, 0, -12, 133.8249969482422, 216.33999633789062)" fill="#f05622" href="#aa"/>
    <use transform="matrix(12, 0, 0, -12, 144.55299377441406, 216.48399353027344)" fill="#f05622" href="#c"/>
    <use transform="matrix(12, 0, 0, -12, 153.3000030517578, 216.33999633789062)" fill="#f05622" href="#b"/>
    <use transform="matrix(12, 0, 0, -12, 160.39300537109375, 216.48399353027344)" fill="#f05622" href="#ab"/>
    <use transform="matrix(12, 0, 0, -12, 169.0330047607422, 216.33999633789062)" fill="#f05622" href="#f"/>
    <use transform="matrix(12, 0, 0, -12, 172.06900024414062, 216.48399353027344)" fill="#f05622" href="#i"/>
    <use transform="matrix(12, 0, 0, -12, 177.9250030517578, 216.48399353027344)" fill="#f05622" href="#p"/>
    <use transform="matrix(12, 0, 0, -12, 185.9040069580078, 216.48399353027344)" fill="#f05622" href="#i"/>
  </g>
  <g data-name="P" transform="matrix(1, 0, 0, 1, -65.922058, -31.23605)">
    <symbol id="ac">
      <path d="M.185.7H.089L0 .565h.093l.044.069.044-.069h.092L.185.7M.093 0H.18v.5H.093V0z"/>
    </symbol>
    <symbol id="ad">
      <path d="M.506.181H.414A.157.157 0 0 0 .263.086a.174.174 0 0 0-.176.177c0 .101.077.178.176.178.07 0 .128-.038.151-.095h.092a.245.245 0 0 1-.243.18A.258.258 0 0 1 0 .263C0 .115.112 0 .263 0 .381 0 .48.074.506.181z"/>
    </symbol>
    <symbol id="ae">
      <path d="M.235.513A.164.164 0 0 1 .087.438V.7H0V0h.087v.285C.087.392.15.43.212.43.272.43.316.393.316.321V0h.087v.325c0 .117-.075.188-.168.188z"/>
    </symbol>
    <use transform="matrix(9, 0, 0, -9, 103.9990005493164, 233.12600708007812)" fill="#252120" href="#q"/>
    <use transform="matrix(9, 0, 0, -9, 110.8030014038086, 233.12600708007812)" fill="#252120" href="#A"/>
    <use transform="matrix(9, 0, 0, -9, 116.4729995727539, 233.00900268554688)" fill="#252120" href="#r"/>
    <use transform="matrix(9, 0, 0, -9, 119.37000274658203, 233.00900268554688)" fill="#252120" href="#B"/>
    <use transform="matrix(9, 0, 0, -9, 123.82599639892578, 233.12600708007812)" fill="#252120" href="#u"/>
    <use transform="matrix(9, 0, 0, -9, 128.74899291992188, 233.00900268554688)" fill="#252120" href="#D"/>
    <use transform="matrix(9, 0, 0, -9, 131.4669952392578, 233.00900268554688)" fill="#252120" href="#v"/>
    <use transform="matrix(9, 0, 0, -9, 133.8520050048828, 233.00900268554688)" fill="#252120" href="#P"/>
    <use transform="matrix(9, 0, 0, -9, 137.13699340820312, 233.00900268554688)" fill="#252120" href="#r"/>
    <use transform="matrix(9, 0, 0, -9, 140.03500366210938, 233.00900268554688)" fill="#252120" href="#M"/>
    <use transform="matrix(9, 0, 0, -9, 141.5919952392578, 233.00900268554688)" fill="#252120" href="#D"/>
    <use transform="matrix(9, 0, 0, -9, 144.49000549316406, 233.12600708007812)" fill="#252120" href="#u"/>
    <use transform="matrix(9, 0, 0, -9, 149.6739959716797, 233.12600708007812)" fill="#252120" href="#L"/>
    <use transform="matrix(9, 0, 0, -9, 153.49000549316406, 233.00900268554688)" fill="#252120" href="#v"/>
    <use transform="matrix(9, 0, 0, -9, 155.875, 233.00900268554688)" fill="#252120" href="#P"/>
    <use transform="matrix(9, 0, 0, -9, 159.16000366210938, 233.00900268554688)" fill="#252120" href="#r"/>
    <use transform="matrix(9, 0, 0, -9, 161.70700073242188, 233.12600708007812)" fill="#252120" href="#x"/>
    <use transform="matrix(9, 0, 0, -9, 165.63999938964844, 233.00900268554688)" fill="#252120" href="#ac"/>
    <use transform="matrix(9, 0, 0, -9, 168.2050018310547, 233.12600708007812)" fill="#252120" href="#ad"/>
    <use transform="matrix(9, 0, 0, -9, 173.5959930419922, 233.00900268554688)" fill="#252120" href="#ae"/>
    <use transform="matrix(9, 0, 0, -9, 178.0500030517578, 233.12600708007812)" fill="#252120" href="#u"/>
    <use transform="matrix(9, 0, 0, -9, 183.23500061035156, 233.12600708007812)" fill="#252120" href="#L"/>
    <use transform="matrix(9, 0, 0, -9, 187.0500030517578, 233.00900268554688)" fill="#252120" href="#v"/>
  </g>
  <g data-name="P" transform="matrix(1, 0, 0, 1, -65.922058, -31.23605)">
    <use transform="matrix(8.25, 0, 0, -8.25, 191.82200622558594, 233.11599731445312)" fill="#252120" href="#F"/>
    <use transform="matrix(8.25, 0, 0, -8.25, 196.12899780273438, 233.00900268554688)" fill="#252120" href="#G"/>
  </g>
  <g data-name="P" transform="matrix(1, 0, 0, 1, -65.922058, -31.23605)">
    <use transform="matrix(7, 0, 0, -7, 197.26499938964844, 233.10000610351562)" fill="#252120" href="#H"/>
    <use transform="matrix(7, 0, 0, -7, 201.6199951171875, 233.00900268554688)" fill="#252120" href="#G"/>
  </g>
  <g data-name="Artifact" transform="matrix(1, 0, 0, 1, -65.922058, -31.23605)">
    <clipPath id="af">
      <path transform="matrix(1 0 0 -1 0 796.535)" d="M0 0h498.898v796.535H0z"/>
    </clipPath>
    <g clip-path="url(#af)">
      <path d="M210.68 230.032a2.28 2.28 0 0 1-1.084 2.16 3.042 3.042 0 0 1-3.06.093l-.005-.003c.469-2.01 1.844-2.915 1.918-2.962h-.001a.379.379 0 0 0-.111-.686.374.374 0 0 0-.281.047 5.656 5.656 0 0 0-2.181 3.157c-.494-.463-1.034-1.337-.592-2.793.34-1.125 1.395-2.059 2.685-2.38a3.99 3.99 0 0 1 3.587.855c-.436.345-.968 1.066-.874 2.512z" fill="#51ba69"/>
    </g>
    <path d="M206.796 233.959a.392.392 0 0 1-.39-.378c-.01-.305.006-.613.05-.915.053-.371.147-.738.278-1.09a.392.392 0 0 1 .733.274 4.46 4.46 0 0 0-.28 1.705.391.391 0 0 1-.378.404h-.013" fill="#51ba69" data-name="Artifact"/>
    <symbol id="ag">
      <path d="M.442.7V.615a.219.219 0 0 1-.189.098A.258.258 0 0 1 0 .45C0 .302.115.187.253.187c.084 0 .149.038.189.098V0h.087v.7H.442M.264.271c-.1 0-.177.077-.177.179s.077.179.177.179A.175.175 0 0 0 .442.45.175.175 0 0 0 .264.271z"/>
    </symbol>
    <symbol id="ah">
      <path d="M0 0h.365v.084H0V0z"/>
    </symbol>
    <use transform="matrix(9, 0, 0, -9, 103.9990005493164, 245.54299926757812)" fill="#252120" href="#q"/>
    <use transform="matrix(9, 0, 0, -9, 111.0999984741211, 245.42599487304688)" fill="#252120" href="#r"/>
    <use transform="matrix(9, 0, 0, -9, 113.51200103759766, 245.54299926757812)" fill="#252120" href="#A"/>
    <use transform="matrix(9, 0, 0, -9, 118.93000030517578, 247.2259979248047)" fill="#252120" href="#ag"/>
    <use transform="matrix(9, 0, 0, -9, 124.7699966430664, 245.54299926757812)" fill="#252120" href="#K"/>
    <use transform="matrix(9, 0, 0, -9, 129.33399963378906, 245.54299926757812)" fill="#252120" href="#u"/>
    <use transform="matrix(9, 0, 0, -9, 134.80599975585938, 243.04100036621094)" fill="#252120" href="#ah"/>
    <use transform="matrix(9, 0, 0, -9, 139.36000061035156, 245.42599487304688)" fill="#252120" href="#y"/>
    <use transform="matrix(9, 0, 0, -9, 146.02000427246094, 245.54299926757812)" fill="#252120" href="#A"/>
    <use transform="matrix(9, 0, 0, -9, 151.69000244140625, 245.42599487304688)" fill="#252120" href="#B"/>
    <use transform="matrix(9, 0, 0, -9, 156.19000244140625, 245.54299926757812)" fill="#252120" href="#L"/>
    <use transform="matrix(9, 0, 0, -9, 160.60000610351562, 245.42599487304688)" fill="#252120" href="#M"/>
    <use transform="matrix(9, 0, 0, -9, 162.3280029296875, 245.54299926757812)" fill="#252120" href="#u"/>
    <use transform="matrix(9, 0, 0, -9, 167.61000061035156, 245.54299926757812)" fill="#252120" href="#K"/>
    <use transform="matrix(9, 0, 0, -9, 172.42599487304688, 245.42599487304688)" fill="#252120" href="#r"/>
    <use transform="matrix(9, 0, 0, -9, 174.70199584960938, 246.6230010986328)" fill="#252120" href="#C"/>
    <use transform="matrix(9, 0, 0, -9, 176.27699279785156, 245.42599487304688)" fill="#252120" href="#v"/>
    <use transform="matrix(9, 0, 0, -9, 178.36500549316406, 247.4239959716797)" fill="#252120" href="#w"/>
    <use transform="matrix(9, 0, 0, -9, 181.03799438476562, 245.54299926757812)" fill="#252120" href="#x"/>
    <use transform="matrix(9, 0, 0, -9, 185.80799865722656, 245.42599487304688)" fill="#252120" href="#y"/>
    <use transform="matrix(9, 0, 0, -9, 192.72000122070312, 245.54299926757812)" fill="#252120" href="#z"/>
    <use transform="matrix(9, 0, 0, -9, 198.1649932861328, 245.54299926757812)" fill="#252120" href="#A"/>
    <use transform="matrix(9, 0, 0, -9, 203.8350067138672, 245.42599487304688)" fill="#252120" href="#B"/>
    <use transform="matrix(9, 0, 0, -9, 208.55999755859375, 246.6230010986328)" fill="#252120" href="#C"/>
    <use transform="matrix(9, 0, 0, -9, 210.13499450683594, 245.42599487304688)" fill="#252120" href="#v"/>
    <use transform="matrix(9, 0, 0, -9, 212.97900390625, 245.42599487304688)" fill="#252120" href="#y"/>
    <use transform="matrix(9, 0, 0, -9, 219.63900756835938, 245.54299926757812)" fill="#252120" href="#A"/>
    <use transform="matrix(9, 0, 0, -9, 225.1999969482422, 245.54299926757812)" fill="#252120" href="#K"/>
    <use transform="matrix(9, 0, 0, -9, 229.59300231933594, 245.42599487304688)" fill="#252120" href="#D"/>
    <use transform="matrix(9, 0, 0, -9, 232.57200622558594, 245.54299926757812)" fill="#252120" href="#x"/>
    <use transform="matrix(9, 0, 0, -9, 237.3419952392578, 245.42599487304688)" fill="#252120" href="#r"/>
    <use transform="matrix(9, 0, 0, -9, 239.75399780273438, 245.54299926757812)" fill="#252120" href="#R"/>
    <use transform="matrix(9, 0, 0, -9, 245.4510040283203, 245.54299926757812)" fill="#252120" href="#u"/>
    <use transform="matrix(9, 0, 0, -9, 250.67999267578125, 246.6230010986328)" fill="#252120" href="#C"/>
    <use transform="matrix(9, 0, 0, -9, 252.2550048828125, 245.42599487304688)" fill="#252120" href="#v"/>
    <use transform="matrix(9, 0, 0, -9, 254.8470001220703, 245.54299926757812)" fill="#252120" href="#ad"/>
    <use transform="matrix(9, 0, 0, -9, 259.9859924316406, 245.54299926757812)" fill="#252120" href="#A"/>
    <use transform="matrix(9, 0, 0, -9, 265.656005859375, 245.42599487304688)" fill="#252120" href="#y"/>
    <use transform="matrix(9, 0, 0, -9, 272.1449890136719, 245.42599487304688)" fill="#252120" href="#D"/>
    <use transform="matrix(9, 0, 0, -9, 275.0429992675781, 245.54299926757812)" fill="#252120" href="#I"/>
    <use transform="matrix(9, 0, 0, -9, 279.8399963378906, 245.42599487304688)" fill="#252120" href="#v"/>
  </g>
  <g data-name="P" transform="matrix(1, 0, 0, 1, -65.922058, -31.23605)">
    <use transform="matrix(8.25, 0, 0, -8.25, 284.61199951171875, 245.53399658203125)" fill="#252120" href="#F"/>
    <use transform="matrix(8.25, 0, 0, -8.25, 288.9179992675781, 245.42599487304688)" fill="#252120" href="#G"/>
  </g>
  <use transform="matrix(7, 0, 0, -7, 224.13294982910156, 214.28094482421875)" fill="#252120" data-name="P" href="#H"/>
  <g data-name="P" transform="matrix(1, 0, 0, 1, -65.922058, -31.23605)">
    <symbol id="ai">
      <path d="M.448.437a.16.16 0 0 1 .025.086C.473.622.396.7.283.7H0V0H.357c.127 0 .221.102.221.228a.227.227 0 0 1-.13.209M.283.613C.345.613.38.572.38.521A.093.093 0 0 0 .356.458H.093v.155h.19M.344.087H.093v.286h.252C.433.373.485.31.485.23.485.151.432.087.344.087z"/>
    </symbol>
    <symbol id="aj">
      <path d="M.421 0 .174.258.411.5H.302L.087.278V.7H0V0h.087v.236L.312 0h.109z"/>
    </symbol>
    <symbol id="ak">
      <path d="M0 .24V.133h.052C.052.069.031.052 0 .046V0c.07.006.107.056.107.133V.24H0z"/>
    </symbol>
    <symbol id="al">
      <path d="m.311.582-.08.132H.126L.227.582h.084M.089.223h.412a.256.256 0 0 1 .003.039c0 .14-.094.264-.245.264C.103.526 0 .411 0 .263 0 .113.103 0 .26 0c.111 0 .198.061.227.152H.396C.375.111.325.079.261.079.172.079.104.131.089.223m0 .077a.163.163 0 0 0 .169.144C.333.444.402.398.415.3H.089z"/>
    </symbol>
    <symbol id="am">
      <path d="M.428 0 .261.259.416.5H.322L.214.332.105.5H.011L.167.259 0 0h.094l.12.186L.334 0h.094z"/>
    </symbol>
    <use transform="matrix(9, 0, 0, -9, 104.33200073242188, 257.843994140625)" fill="#252120" href="#ai"/>
    <use transform="matrix(9, 0, 0, -9, 110.16400146484375, 257.9599914550781)" fill="#252120" href="#x"/>
    <use transform="matrix(9, 0, 0, -9, 114.68199920654297, 259.760009765625)" fill="#252120" href="#J"/>
    <use transform="matrix(9, 0, 0, -9, 120.37000274658203, 257.9599914550781)" fill="#252120" href="#u"/>
    <use transform="matrix(9, 0, 0, -9, 125.76000213623047, 257.843994140625)" fill="#252120" href="#E"/>
    <use transform="matrix(9, 0, 0, -9, 127.14700317382812, 257.843994140625)" fill="#252120" href="#v"/>
    <use transform="matrix(9, 0, 0, -9, 129.78399658203125, 257.9599914550781)" fill="#252120" href="#L"/>
    <use transform="matrix(9, 0, 0, -9, 133.84300231933594, 257.9599914550781)" fill="#252120" href="#x"/>
    <use transform="matrix(9, 0, 0, -9, 138.5050048828125, 257.9599914550781)" fill="#252120" href="#K"/>
    <use transform="matrix(9, 0, 0, -9, 143.32000732421875, 257.843994140625)" fill="#252120" href="#y"/>
    <use transform="matrix(9, 0, 0, -9, 149.97999572753906, 257.9599914550781)" fill="#252120" href="#A"/>
    <use transform="matrix(9, 0, 0, -9, 155.64999389648438, 257.843994140625)" fill="#252120" href="#B"/>
    <use transform="matrix(9, 0, 0, -9, 160.375, 259.0400085449219)" fill="#252120" href="#C"/>
    <use transform="matrix(9, 0, 0, -9, 161.9499969482422, 257.843994140625)" fill="#252120" href="#v"/>
    <use transform="matrix(9, 0, 0, -9, 164.79400634765625, 259.6440124511719)" fill="#252120" href="#t"/>
    <use transform="matrix(9, 0, 0, -9, 170.49000549316406, 257.843994140625)" fill="#252120" href="#M"/>
    <use transform="matrix(9, 0, 0, -9, 172.218994140625, 257.9599914550781)" fill="#252120" href="#ad"/>
    <use transform="matrix(9, 0, 0, -9, 177.61000061035156, 257.843994140625)" fill="#252120" href="#aj"/>
    <use transform="matrix(9, 0, 0, -9, 182.1280059814453, 257.843994140625)" fill="#252120" href="#E"/>
    <use transform="matrix(9, 0, 0, -9, 183.8560028076172, 257.9599914550781)" fill="#252120" href="#u"/>
    <use transform="matrix(9, 0, 0, -9, 189.0399932861328, 257.9599914550781)" fill="#252120" href="#L"/>
    <use transform="matrix(9, 0, 0, -9, 192.8560028076172, 257.843994140625)" fill="#252120" href="#v"/>
    <use transform="matrix(9, 0, 0, -9, 195.447998046875, 257.9599914550781)" fill="#252120" href="#R"/>
    <use transform="matrix(9, 0, 0, -9, 201.4149932861328, 253.70399475097656)" fill="#252120" href="#ak"/>
    <use transform="matrix(9, 0, 0, -9, 202.7010040283203, 257.9599914550781)" fill="#252120" href="#A"/>
    <use transform="matrix(9, 0, 0, -9, 208.37100219726562, 257.843994140625)" fill="#252120" href="#M"/>
    <use transform="matrix(9, 0, 0, -9, 210.0989990234375, 259.760009765625)" fill="#252120" href="#J"/>
    <use transform="matrix(9, 0, 0, -9, 216.03900146484375, 257.843994140625)" fill="#252120" href="#B"/>
    <use transform="matrix(9, 0, 0, -9, 220.49400329589844, 257.9599914550781)" fill="#252120" href="#A"/>
    <use transform="matrix(9, 0, 0, -9, 226.16400146484375, 257.843994140625)" fill="#252120" href="#B"/>
    <use transform="matrix(9, 0, 0, -9, 230.27699279785156, 257.843994140625)" fill="#252120" href="#v"/>
    <use transform="matrix(9, 0, 0, -9, 233.12100219726562, 257.843994140625)" fill="#252120" href="#r"/>
    <use transform="matrix(9, 0, 0, -9, 235.5330047607422, 257.9599914550781)" fill="#252120" href="#A"/>
    <use transform="matrix(9, 0, 0, -9, 241.09500122070312, 257.9599914550781)" fill="#252120" href="#K"/>
    <use transform="matrix(9, 0, 0, -9, 245.6580047607422, 259.760009765625)" fill="#252120" href="#J"/>
    <use transform="matrix(9, 0, 0, -9, 251.3459930419922, 257.9599914550781)" fill="#252120" href="#u"/>
    <use transform="matrix(9, 0, 0, -9, 256.5740051269531, 259.0400085449219)" fill="#252120" href="#C"/>
    <use transform="matrix(9, 0, 0, -9, 258.1499938964844, 257.843994140625)" fill="#252120" href="#v"/>
    <use transform="matrix(9, 0, 0, -9, 260.9930114746094, 257.843994140625)" fill="#252120" href="#r"/>
    <use transform="matrix(9, 0, 0, -9, 263.4049987792969, 257.9599914550781)" fill="#252120" href="#A"/>
    <use transform="matrix(9, 0, 0, -9, 268.822998046875, 259.6440124511719)" fill="#252120" href="#ag"/>
    <use transform="matrix(9, 0, 0, -9, 274.66400146484375, 257.9599914550781)" fill="#252120" href="#K"/>
    <use transform="matrix(9, 0, 0, -9, 279.22698974609375, 257.9599914550781)" fill="#252120" href="#u"/>
    <use transform="matrix(9, 0, 0, -9, 284.1499938964844, 257.843994140625)" fill="#252120" href="#D"/>
    <use transform="matrix(9, 0, 0, -9, 287.0400085449219, 257.843994140625)" fill="#252120" href="#D"/>
    <use transform="matrix(9, 0, 0, -9, 289.93701171875, 257.9599914550781)" fill="#252120" href="#u"/>
    <use transform="matrix(9, 0, 0, -9, 295.1669921875, 259.0400085449219)" fill="#252120" href="#C"/>
    <use transform="matrix(9, 0, 0, -9, 296.74200439453125, 257.843994140625)" fill="#252120" href="#v"/>
    <use transform="matrix(9, 0, 0, -9, 299.3340148925781, 257.9599914550781)" fill="#252120" href="#ad"/>
    <use transform="matrix(9, 0, 0, -9, 304.7250061035156, 257.843994140625)" fill="#252120" href="#r"/>
    <use transform="matrix(9, 0, 0, -9, 307.135986328125, 257.9599914550781)" fill="#252120" href="#al"/>
    <use transform="matrix(9, 0, 0, -9, 312.5270080566406, 257.843994140625)" fill="#252120" href="#y"/>
    <use transform="matrix(9, 0, 0, -9, 319.18701171875, 257.9599914550781)" fill="#252120" href="#u"/>
    <use transform="matrix(9, 0, 0, -9, 323.9840087890625, 257.843994140625)" fill="#252120" href="#v"/>
    <use transform="matrix(9, 0, 0, -9, 326.57598876953125, 257.9599914550781)" fill="#252120" href="#x"/>
    <use transform="matrix(9, 0, 0, -9, 331.2380065917969, 257.9599914550781)" fill="#252120" href="#K"/>
    <use transform="matrix(9, 0, 0, -9, 335.593994140625, 257.843994140625)" fill="#252120" href="#am"/>
    <use transform="matrix(9, 0, 0, -9, 339.6000061035156, 257.843994140625)" fill="#252120" href="#v"/>
    <use transform="matrix(9, 0, 0, -9, 342.4429931640625, 257.843994140625)" fill="#252120" href="#ae"/>
    <use transform="matrix(9, 0, 0, -9, 346.89801025390625, 257.9599914550781)" fill="#252120" href="#u"/>
    <use transform="matrix(9, 0, 0, -9, 352.2900085449219, 257.843994140625)" fill="#252120" href="#r"/>
    <use transform="matrix(9, 0, 0, -9, 355.18701171875, 257.9599914550781)" fill="#252120" href="#z"/>
    <use transform="matrix(9, 0, 0, -9, 360.6319885253906, 257.9599914550781)" fill="#252120" href="#u"/>
    <use transform="matrix(9, 0, 0, -9, 365.8160095214844, 257.9599914550781)" fill="#252120" href="#L"/>
    <use transform="matrix(9, 0, 0, -9, 369.6319885253906, 257.843994140625)" fill="#252120" href="#v"/>
  </g>
  <g data-name="P" transform="matrix(1, 0, 0, 1, -65.922058, -31.23605)">
    <symbol id="an">
      <path d="M0 .7V.59h.319L.078 0h.121l.246.6v.1H0z"/>
    </symbol>
    <use transform="matrix(8.25, 0, 0, -8.25, 374.2560119628906, 257.843994140625)" fill="#252120" href="#an"/>
    <use transform="matrix(8.25, 0, 0, -8.25, 378.17498779296875, 257.843994140625)" fill="#252120" href="#G"/>
  </g>
  <use transform="matrix(7, 0, 0, -7, 313.387939453125, 226.69894409179688)" fill="#252120" data-name="P" href="#H"/>
  <g data-name="P" transform="matrix(1, 0, 0, 1, -65.922058, -31.23605)">
    <symbol id="ao">
      <path d="m.119.083.256.359V.5H.01V.417h.245L0 .058V0h.385v.083H.119z"/>
    </symbol>
    <use transform="matrix(9, 0, 0, -9, 104.33200073242188, 270.260986328125)" fill="#252120" href="#ai"/>
    <use transform="matrix(9, 0, 0, -9, 110.16400146484375, 270.37799072265625)" fill="#252120" href="#x"/>
    <use transform="matrix(9, 0, 0, -9, 114.68199920654297, 272.1780090332031)" fill="#252120" href="#J"/>
    <use transform="matrix(9, 0, 0, -9, 120.37000274658203, 270.37799072265625)" fill="#252120" href="#u"/>
    <use transform="matrix(9, 0, 0, -9, 125.76000213623047, 270.260986328125)" fill="#252120" href="#E"/>
    <use transform="matrix(9, 0, 0, -9, 127.14700317382812, 270.260986328125)" fill="#252120" href="#v"/>
    <use transform="matrix(9, 0, 0, -9, 129.99000549316406, 272.0610046386719)" fill="#252120" href="#t"/>
    <use transform="matrix(9, 0, 0, -9, 135.43600463867188, 270.37799072265625)" fill="#252120" href="#A"/>
    <use transform="matrix(9, 0, 0, -9, 140.9980010986328, 270.37799072265625)" fill="#252120" href="#K"/>
    <use transform="matrix(9, 0, 0, -9, 145.81300354003906, 270.260986328125)" fill="#252120" href="#E"/>
    <use transform="matrix(9, 0, 0, -9, 147.5399932861328, 270.37799072265625)" fill="#252120" href="#u"/>
    <use transform="matrix(9, 0, 0, -9, 152.46400451660156, 270.260986328125)" fill="#252120" href="#D"/>
    <use transform="matrix(9, 0, 0, -9, 155.51499938964844, 271.4580078125)" fill="#252120" href="#C"/>
    <use transform="matrix(9, 0, 0, -9, 157.08999633789062, 270.260986328125)" fill="#252120" href="#v"/>
    <use transform="matrix(9, 0, 0, -9, 159.9340057373047, 272.0610046386719)" fill="#252120" href="#t"/>
    <use transform="matrix(9, 0, 0, -9, 165.27999877929688, 270.37799072265625)" fill="#252120" href="#x"/>
    <use transform="matrix(9, 0, 0, -9, 170.0500030517578, 270.260986328125)" fill="#252120" href="#r"/>
    <use transform="matrix(9, 0, 0, -9, 172.947998046875, 270.260986328125)" fill="#252120" href="#y"/>
    <use transform="matrix(9, 0, 0, -9, 179.60800170898438, 270.37799072265625)" fill="#252120" href="#u"/>
    <use transform="matrix(9, 0, 0, -9, 184.79200744628906, 270.37799072265625)" fill="#252120" href="#L"/>
    <use transform="matrix(9, 0, 0, -9, 188.85000610351562, 270.37799072265625)" fill="#252120" href="#x"/>
    <use transform="matrix(9, 0, 0, -9, 193.6199951171875, 270.260986328125)" fill="#252120" href="#B"/>
    <use transform="matrix(9, 0, 0, -9, 198.34500122070312, 271.4580078125)" fill="#252120" href="#C"/>
    <use transform="matrix(9, 0, 0, -9, 199.9199981689453, 270.260986328125)" fill="#252120" href="#v"/>
    <use transform="matrix(9, 0, 0, -9, 202.76400756835938, 270.260986328125)" fill="#252120" href="#y"/>
    <use transform="matrix(9, 0, 0, -9, 209.4239959716797, 270.37799072265625)" fill="#252120" href="#A"/>
    <use transform="matrix(9, 0, 0, -9, 214.66200256347656, 270.260986328125)" fill="#252120" href="#ao"/>
    <use transform="matrix(9, 0, 0, -9, 218.7209930419922, 270.260986328125)" fill="#252120" href="#ao"/>
    <use transform="matrix(9, 0, 0, -9, 222.68099975585938, 270.37799072265625)" fill="#252120" href="#x"/>
    <use transform="matrix(9, 0, 0, -9, 227.4510040283203, 270.260986328125)" fill="#252120" href="#r"/>
    <use transform="matrix(9, 0, 0, -9, 229.86300659179688, 270.37799072265625)" fill="#252120" href="#u"/>
    <use transform="matrix(9, 0, 0, -9, 235.25399780273438, 270.260986328125)" fill="#252120" href="#E"/>
    <use transform="matrix(9, 0, 0, -9, 237.23399353027344, 270.260986328125)" fill="#252120" href="#E"/>
    <use transform="matrix(9, 0, 0, -9, 238.96200561523438, 270.37799072265625)" fill="#252120" href="#x"/>
    <use transform="matrix(9, 0, 0, -9, 243.13800048828125, 270.260986328125)" fill="#252120" href="#v"/>
    <use transform="matrix(9, 0, 0, -9, 245.98199462890625, 270.260986328125)" fill="#252120" href="#r"/>
    <use transform="matrix(9, 0, 0, -9, 248.3939971923828, 270.37799072265625)" fill="#252120" href="#A"/>
    <use transform="matrix(9, 0, 0, -9, 253.81199645996094, 272.0610046386719)" fill="#252120" href="#ag"/>
    <use transform="matrix(9, 0, 0, -9, 259.65301513671875, 270.37799072265625)" fill="#252120" href="#K"/>
    <use transform="matrix(9, 0, 0, -9, 264.21600341796875, 270.37799072265625)" fill="#252120" href="#u"/>
    <use transform="matrix(9, 0, 0, -9, 269.1400146484375, 270.260986328125)" fill="#252120" href="#D"/>
    <use transform="matrix(9, 0, 0, -9, 272.02801513671875, 270.260986328125)" fill="#252120" href="#D"/>
    <use transform="matrix(9, 0, 0, -9, 274.9259948730469, 270.37799072265625)" fill="#252120" href="#u"/>
    <use transform="matrix(9, 0, 0, -9, 280.1549987792969, 271.4580078125)" fill="#252120" href="#C"/>
    <use transform="matrix(9, 0, 0, -9, 281.7300109863281, 270.260986328125)" fill="#252120" href="#v"/>
    <use transform="matrix(9, 0, 0, -9, 284.5740051269531, 272.0610046386719)" fill="#252120" href="#t"/>
    <use transform="matrix(9, 0, 0, -9, 290.0199890136719, 270.37799072265625)" fill="#252120" href="#u"/>
    <use transform="matrix(9, 0, 0, -9, 295.2030029296875, 270.37799072265625)" fill="#252120" href="#L"/>
    <use transform="matrix(9, 0, 0, -9, 299.09100341796875, 270.260986328125)" fill="#252120" href="#D"/>
    <use transform="matrix(9, 0, 0, -9, 301.989990234375, 270.37799072265625)" fill="#252120" href="#A"/>
    <use transform="matrix(9, 0, 0, -9, 307.06500244140625, 270.260986328125)" fill="#252120" href="#v"/>
  </g>
  <g data-name="P" transform="matrix(1, 0, 0, 1, -65.922058, -31.23605)">
    <use transform="matrix(8.25, 0, 0, -8.25, 311.6889953613281, 270.260986328125)" fill="#252120" href="#an"/>
    <use transform="matrix(8.25, 0, 0, -8.25, 315.6080017089844, 270.260986328125)" fill="#252120" href="#G"/>
  </g>
  <g data-name="P" transform="matrix(1, 0, 0, 1, -65.922058, -31.23605)">
    <use transform="matrix(7, 0, 0, -7, 316.7439880371094, 270.35198974609375)" fill="#252120" href="#H"/>
    <use transform="matrix(7, 0, 0, -7, 321.0979919433594, 270.260986328125)" fill="#252120" href="#G"/>
  </g>
  <g data-name="Artifact" transform="matrix(1, 0, 0, 1, -65.922058, -31.23605)">
    <clipPath id="ap">
      <path transform="matrix(1 0 0 -1 0 796.535)" d="M0 0h498.898v796.535H0z"/>
    </clipPath>
    <g clip-path="url(#ap)">
      <path d="M329.138 265.312a1.71 1.71 0 0 0-1.412.742 1.717 1.717 0 0 0-3.129.975c0 1.672 3.13 3.41 3.13 3.41s3.128-1.738 3.128-3.41c0-.948-.769-1.717-1.717-1.717" fill="#f05622"/>
    </g>
    <symbol id="aq">
      <path d="M.4.612V.7H0V0h.093v.279h.295v.088H.093v.245H.4z"/>
    </symbol>
    <use transform="matrix(9, 0, 0, -9, 104.33200073242188, 282.6780090332031)" fill="#252120" href="#aq"/>
    <use transform="matrix(9, 0, 0, -9, 108.4800033569336, 282.7950134277344)" fill="#252120" href="#u"/>
    <use transform="matrix(9, 0, 0, -9, 113.76399993896484, 282.7950134277344)" fill="#252120" href="#K"/>
    <use transform="matrix(9, 0, 0, -9, 118.5790023803711, 282.6780090332031)" fill="#252120" href="#M"/>
    <use transform="matrix(9, 0, 0, -9, 120.55899810791016, 282.6780090332031)" fill="#252120" href="#E"/>
    <use transform="matrix(9, 0, 0, -9, 122.53900146484375, 282.6780090332031)" fill="#252120" href="#E"/>
    <use transform="matrix(9, 0, 0, -9, 124.26699829101562, 282.7950134277344)" fill="#252120" href="#u"/>
    <use transform="matrix(9, 0, 0, -9, 129.19000244140625, 282.6780090332031)" fill="#252120" href="#D"/>
    <use transform="matrix(9, 0, 0, -9, 132.08799743652344, 282.7950134277344)" fill="#252120" href="#I"/>
    <use transform="matrix(9, 0, 0, -9, 136.88499450683594, 282.6780090332031)" fill="#252120" href="#v"/>
    <use transform="matrix(9, 0, 0, -9, 139.4770050048828, 282.7950134277344)" fill="#252120" href="#R"/>
    <use transform="matrix(9, 0, 0, -9, 145.1739959716797, 282.7950134277344)" fill="#252120" href="#u"/>
    <use transform="matrix(9, 0, 0, -9, 149.97000122070312, 282.6780090332031)" fill="#252120" href="#v"/>
    <use transform="matrix(9, 0, 0, -9, 152.81500244140625, 282.6780090332031)" fill="#252120" href="#E"/>
    <use transform="matrix(9, 0, 0, -9, 154.54299926757812, 282.7950134277344)" fill="#252120" href="#I"/>
    <use transform="matrix(9, 0, 0, -9, 159.6820068359375, 284.5950012207031)" fill="#252120" href="#J"/>
    <use transform="matrix(9, 0, 0, -9, 165.51400756835938, 282.7950134277344)" fill="#252120" href="#K"/>
    <use transform="matrix(9, 0, 0, -9, 170.32899475097656, 282.6780090332031)" fill="#252120" href="#y"/>
    <use transform="matrix(9, 0, 0, -9, 176.98899841308594, 282.7950134277344)" fill="#252120" href="#u"/>
    <use transform="matrix(9, 0, 0, -9, 182.17300415039062, 282.7950134277344)" fill="#252120" href="#L"/>
    <use transform="matrix(9, 0, 0, -9, 185.98899841308594, 282.6780090332031)" fill="#252120" href="#v"/>
    <use transform="matrix(9, 0, 0, -9, 188.5800018310547, 282.7950134277344)" fill="#252120" href="#R"/>
    <use transform="matrix(9, 0, 0, -9, 194.2779998779297, 282.7950134277344)" fill="#252120" href="#u"/>
    <use transform="matrix(9, 0, 0, -9, 199.0749969482422, 282.6780090332031)" fill="#252120" href="#v"/>
    <use transform="matrix(9, 0, 0, -9, 201.71200561523438, 282.7950134277344)" fill="#252120" href="#L"/>
    <use transform="matrix(9, 0, 0, -9, 205.77000427246094, 282.7950134277344)" fill="#252120" href="#x"/>
    <use transform="matrix(9, 0, 0, -9, 210.5399932861328, 282.6780090332031)" fill="#252120" href="#M"/>
    <use transform="matrix(9, 0, 0, -9, 212.31300354003906, 282.7950134277344)" fill="#252120" href="#L"/>
    <use transform="matrix(9, 0, 0, -9, 216.3719940185547, 282.7950134277344)" fill="#252120" href="#A"/>
    <use transform="matrix(9, 0, 0, -9, 222.04200744628906, 282.6780090332031)" fill="#252120" href="#B"/>
    <use transform="matrix(9, 0, 0, -9, 226.76699829101562, 283.875)" fill="#252120" href="#C"/>
    <use transform="matrix(9, 0, 0, -9, 228.3419952392578, 282.6780090332031)" fill="#252120" href="#v"/>
    <use transform="matrix(9, 0, 0, -9, 231.18600463867188, 282.7950134277344)" fill="#252120" href="#z"/>
    <use transform="matrix(9, 0, 0, -9, 236.77499389648438, 282.7950134277344)" fill="#252120" href="#K"/>
    <use transform="matrix(9, 0, 0, -9, 241.58999633789062, 282.6780090332031)" fill="#252120" href="#r"/>
    <use transform="matrix(9, 0, 0, -9, 244.48800659179688, 282.6780090332031)" fill="#252120" href="#r"/>
    <use transform="matrix(9, 0, 0, -9, 247.03500366210938, 282.7950134277344)" fill="#252120" href="#x"/>
    <use transform="matrix(9, 0, 0, -9, 251.3820037841797, 282.6780090332031)" fill="#252120" href="#D"/>
    <use transform="matrix(9, 0, 0, -9, 254.36099243164062, 282.7950134277344)" fill="#252120" href="#x"/>
    <use transform="matrix(9, 0, 0, -9, 259.14898681640625, 283.875)" fill="#252120" href="#C"/>
    <use transform="matrix(9, 0, 0, -9, 260.7239990234375, 282.6780090332031)" fill="#252120" href="#v"/>
    <use transform="matrix(9, 0, 0, -9, 263.5679931640625, 284.4779968261719)" fill="#252120" href="#t"/>
    <use transform="matrix(9, 0, 0, -9, 269.2650146484375, 282.6780090332031)" fill="#252120" href="#M"/>
    <use transform="matrix(9, 0, 0, -9, 270.9930114746094, 284.5950012207031)" fill="#252120" href="#J"/>
    <use transform="matrix(9, 0, 0, -9, 276.9330139160156, 282.6780090332031)" fill="#252120" href="#B"/>
    <use transform="matrix(9, 0, 0, -9, 281.38800048828125, 282.7950134277344)" fill="#252120" href="#A"/>
    <use transform="matrix(9, 0, 0, -9, 287.0580139160156, 282.6780090332031)" fill="#252120" href="#B"/>
    <use transform="matrix(9, 0, 0, -9, 291.5580139160156, 282.7950134277344)" fill="#252120" href="#L"/>
    <use transform="matrix(9, 0, 0, -9, 295.3739929199219, 282.6780090332031)" fill="#252120" href="#v"/>
    <use transform="matrix(9, 0, 0, -9, 297.96600341796875, 282.7950134277344)" fill="#252120" href="#R"/>
    <use transform="matrix(9, 0, 0, -9, 303.6629943847656, 282.7950134277344)" fill="#252120" href="#u"/>
    <use transform="matrix(9, 0, 0, -9, 308.4599914550781, 282.6780090332031)" fill="#252120" href="#v"/>
    <use transform="matrix(9, 0, 0, -9, 311.3039855957031, 284.4779968261719)" fill="#252120" href="#t"/>
    <use transform="matrix(9, 0, 0, -9, 317.0010070800781, 282.6780090332031)" fill="#252120" href="#M"/>
    <use transform="matrix(9, 0, 0, -9, 318.9809875488281, 282.6780090332031)" fill="#252120" href="#B"/>
    <use transform="matrix(9, 0, 0, -9, 323.093994140625, 282.6780090332031)" fill="#252120" href="#v"/>
  </g>
  <g data-name="P" transform="matrix(1, 0, 0, 1, -65.922058, -31.23605)">
    <use transform="matrix(8.25, 0, 0, -8.25, 327.79998779296875, 282.7860107421875)" fill="#252120" href="#Q"/>
    <use transform="matrix(8.25, 0, 0, -8.25, 332.0899963378906, 282.6780090332031)" fill="#252120" href="#G"/>
  </g>
  <g data-name="P" transform="matrix(1, 0, 0, 1, -65.922058, -31.23605)">
    <use transform="matrix(7, 0, 0, -7, 333.2250061035156, 282.7699890136719)" fill="#252120" href="#H"/>
    <use transform="matrix(7, 0, 0, -7, 337.5799865722656, 282.6780090332031)" fill="#252120" href="#G"/>
  </g>
  <g data-name="Artifact" transform="matrix(1, 0, 0, 1, -65.922058, -31.23605)">
    <clipPath id="ar">
      <path transform="matrix(1 0 0 -1 0 796.535)" d="M0 0h498.898v796.535H0z"/>
    </clipPath>
    <g clip-path="url(#ar)">
      <path d="M346.641 279.702a2.28 2.28 0 0 1-1.085 2.159 3.042 3.042 0 0 1-3.06.094l-.005-.003c.47-2.011 1.844-2.915 1.918-2.962a.379.379 0 0 0-.112-.686.374.374 0 0 0-.28.047 5.656 5.656 0 0 0-2.182 3.157c-.494-.463-1.034-1.337-.592-2.793.34-1.125 1.394-2.06 2.685-2.38a3.99 3.99 0 0 1 3.587.855c-.436.345-.968 1.066-.874 2.512z" fill="#51ba69"/>
    </g>
    <path d="M342.756 283.628a.392.392 0 0 1-.39-.378c-.01-.305.006-.613.05-.915.053-.371.147-.738.278-1.09a.392.392 0 0 1 .733.274 4.46 4.46 0 0 0-.28 1.705.391.391 0 0 1-.378.404h-.013" fill="#51ba69" data-name="Artifact"/>
    <use transform="matrix(17.93000030517578, 0, 0, -17.93000030517578, 184.76499938964844, 59.768001556396484)" fill="#f05622" href="#a"/>
    <use transform="matrix(17.93000030517578, 0, 0, -17.93000030517578, 195.14700317382812, 59.553001403808594)" fill="#f05622" href="#b"/>
    <use transform="matrix(17.93000030517578, 0, 0, -17.93000030517578, 205.7429962158203, 59.768001556396484)" fill="#f05622" href="#c"/>
    <use transform="matrix(17.93000030517578, 0, 0, -17.93000030517578, 218.29400634765625, 59.768001556396484)" fill="#f05622" href="#d"/>
    <use transform="matrix(17.93000030517578, 0, 0, -17.93000030517578, 230.3249969482422, 59.553001403808594)" fill="#f05622" href="#e"/>
    <use transform="matrix(17.93000030517578, 0, 0, -17.93000030517578, 240.50999450683594, 59.553001403808594)" fill="#f05622" href="#f"/>
    <use transform="matrix(17.93000030517578, 0, 0, -17.93000030517578, 245.54800415039062, 59.553001403808594)" fill="#f05622" href="#b"/>
    <use transform="matrix(17.93000030517578, 0, 0, -17.93000030517578, 256.1619873046875, 61.70399856567383)" fill="#f05622" href="#g"/>
    <use transform="matrix(17.93000030517578, 0, 0, -17.93000030517578, 266.7950134277344, 59.553001403808594)" fill="#f05622" href="#h"/>
    <use transform="matrix(17.93000030517578, 0, 0, -17.93000030517578, 271.510009765625, 59.768001556396484)" fill="#f05622" href="#i"/>
    <use transform="matrix(17.93000030517578, 0, 0, -17.93000030517578, 280.260009765625, 59.768001556396484)" fill="#f05622" href="#c"/>
    <use transform="matrix(17.93000030517578, 0, 0, -17.93000030517578, 293.33099365234375, 59.553001403808594)" fill="#f05622" href="#j"/>
    <use transform="matrix(17.93000030517578, 0, 0, -17.93000030517578, 297.635009765625, 59.768001556396484)" fill="#f05622" href="#k"/>
  </g>
  <g data-name="P" transform="matrix(1, 0, 0, 1, -65.922058, -31.23605)">
    <symbol id="as">
      <path d="M.001 0v.101h.154v.428H0v.08a.456.456 0 0 1 .144.04c.027.011.05.024.072.037h.059V.101h.141V0H.001z"/>
    </symbol>
    <symbol id="at">
      <path d="M0 0z"/>
    </symbol>
    <symbol id="au">
      <path d="M0 0v.686h.128V.408h.216v.278h.128V0H.344v.294H.128V0H0z"/>
    </symbol>
    <symbol id="av">
      <path d="M.198 0a.207.207 0 0 0-.083.016.15.15 0 0 0-.063.057.331.331 0 0 0-.039.108A.965.965 0 0 0 0 .355c0 .07.004.128.013.173.01.046.022.082.039.109a.144.144 0 0 0 .063.056.197.197 0 0 0 .083.017A.19.19 0 0 0 .28.693.144.144 0 0 0 .343.637.304.304 0 0 0 .382.528.882.882 0 0 0 .396.355.898.898 0 0 0 .382.181.303.303 0 0 0 .343.073.15.15 0 0 0 .28.016.2.2 0 0 0 .198 0m0 .101c.02 0 .036.008.046.023.01.016.018.04.021.072C.269.229.271.27.271.32v.07c0 .05-.002.091-.006.123a.157.157 0 0 1-.021.072.05.05 0 0 1-.046.024.052.052 0 0 1-.046-.024A.164.164 0 0 1 .13.513 1.23 1.23 0 0 1 .125.39V.32C.125.27.127.229.13.196A.17.17 0 0 1 .152.124.053.053 0 0 1 .198.101z"/>
    </symbol>
    <symbol id="aw">
      <path d="M0 0z"/>
    </symbol>
    <symbol id="ax">
      <path d="M0 0v.118h.241V0H0z"/>
    </symbol>
    <symbol id="ay">
      <path d="M.198 0a.215.215 0 0 0-.114.027.167.167 0 0 0-.064.072.25.25 0 0 0 .001.199c.014.029.036.05.067.066a.16.16 0 0 0-.056.065.221.221 0 0 0-.018.09c0 .035.007.067.02.096a.167.167 0 0 0 .062.069.187.187 0 0 0 .102.026C.238.71.273.701.3.684A.16.16 0 0 0 .361.615.216.216 0 0 0 .382.519a.211.211 0 0 0-.019-.09.15.15 0 0 0-.056-.065.142.142 0 0 0 .068-.066A.217.217 0 0 0 .396.2.24.24 0 0 0 .375.099.159.159 0 0 0 .311.027.21.21 0 0 0 .198 0m0 .1C.222.1.24.109.253.127a.137.137 0 0 1 .019.079.137.137 0 0 1-.019.079.062.062 0 0 1-.055.028.062.062 0 0 1-.055-.028.137.137 0 0 1-.019-.079C.124.171.13.145.143.127A.063.063 0 0 1 .198.1m0 .312c.02 0 .035.008.046.025a.132.132 0 0 1 .017.074.132.132 0 0 1-.017.074.051.051 0 0 1-.046.025.051.051 0 0 1-.046-.025.139.139 0 0 1-.016-.074c0-.033.005-.057.016-.074A.051.051 0 0 1 .198.412z"/>
    </symbol>
    <symbol id="az">
      <path d="M.203 0C.138 0 .087.019.052.056A.212.212 0 0 0 0 .206v.018h.125V.203A.13.13 0 0 1 .144.127.068.068 0 0 1 .201.101c.023 0 .04.008.054.024.014.017.021.042.021.077 0 .029-.004.05-.012.066a.064.064 0 0 1-.03.033.088.088 0 0 1-.04.009H.161v.101h.035c.02 0 .035.009.048.026.013.018.02.045.02.08 0 .032-.006.055-.017.07a.055.055 0 0 1-.046.022.055.055 0 0 1-.048-.024.13.13 0 0 1-.016-.072V.494H.012v.028c0 .038.008.071.024.099.016.029.038.05.066.066A.205.205 0 0 0 .2.71.194.194 0 0 0 .337.662C.372.63.389.583.389.522A.162.162 0 0 0 .363.425.199.199 0 0 0 .3.368V.364C.33.354.353.334.372.306a.19.19 0 0 0 .029-.11.203.203 0 0 0-.026-.105.172.172 0 0 0-.07-.068A.217.217 0 0 0 .203 0z"/>
    </symbol>
    <use transform="matrix(11, 0, 0, -11, 212.48899841308594, 78.56600189208984)" fill="#f05622" href="#as"/>
    <use transform="matrix(11, 0, 0, -11, 217.55999755859375, 78.56600189208984)" fill="#f05622" href="#as"/>
    <use transform="matrix(11, 0, 0, -11, 222.69700622558594, 78.56600189208984)" fill="#f05622" href="#at"/>
    <use transform="matrix(11, 0, 0, -11, 224.36500549316406, 78.56600189208984)" fill="#f05622" href="#au"/>
    <use transform="matrix(11, 0, 0, -11, 230.76699829101562, 78.56600189208984)" fill="#f05622" href="#at"/>
    <use transform="matrix(11, 0, 0, -11, 232.10499572753906, 78.697998046875)" fill="#f05622" href="#av"/>
    <use transform="matrix(11, 0, 0, -11, 237.67100524902344, 78.697998046875)" fill="#f05622" href="#av"/>
    <use transform="matrix(11, 0, 0, -11, 242.90699768066406, 78.56600189208984)" fill="#f05622" href="#aw"/>
    <use transform="matrix(11, 0, 0, -11, 245.04100036621094, 76.24500274658203)" fill="#f05622" href="#ax"/>
    <use transform="matrix(11, 0, 0, -11, 248.41799926757812, 78.56600189208984)" fill="#f05622" href="#aw"/>
    <use transform="matrix(11, 0, 0, -11, 250.80499267578125, 78.56600189208984)" fill="#f05622" href="#as"/>
    <use transform="matrix(11, 0, 0, -11, 256.2720031738281, 78.697998046875)" fill="#f05622" href="#ay"/>
    <use transform="matrix(11, 0, 0, -11, 261.50799560546875, 78.56600189208984)" fill="#f05622" href="#at"/>
    <use transform="matrix(11, 0, 0, -11, 263.177001953125, 78.56600189208984)" fill="#f05622" href="#au"/>
    <use transform="matrix(11, 0, 0, -11, 269.5790100097656, 78.56600189208984)" fill="#f05622" href="#at"/>
    <use transform="matrix(11, 0, 0, -11, 270.86199951171875, 78.697998046875)" fill="#f05622" href="#az"/>
    <use transform="matrix(11, 0, 0, -11, 276.4830017089844, 78.697998046875)" fill="#f05622" href="#av"/>
  </g>
  <symbol id="aA">
    <path d="M.001 0v.101h.154v.428H0v.08a.456.456 0 0 1 .144.04c.027.011.05.024.072.037h.059V.101h.141V0H.001z"/>
  </symbol>
  <use transform="matrix(0, -10.000001907348633, -10, 0, 417.6339416503906, 610.4459838867188)" href="#aw" fill="#f05622"/>
  <use transform="matrix(0, -10.000001907348633, -10, 0, 417.6339416503906, 605.4359741210938)" href="#aw" fill="#f05622"/>
</svg>