<svg xmlns="http://www.w3.org/2000/svg" xmlns:xlink="http://www.w3.org/1999/xlink" width="665.197" height="1062.047" viewBox="0 0 498.898 796.535"><path d="M0 796.535h498.898V0H0z" fill="#dad9cb" data-name="Artifact"/><path d="M464.882 796.535h34.016V0h-34.016z" fill="#efbe57" data-name="Artifact"/><g data-name="P"><symbol id="a"><path d="M.249 0C.39 0 .486.078.486.217.486.327.4.4.293.431.197.459.164.474.164.523c0 .04.032.068.076.068C.283.591.319.559.321.5h.156C.467.642.381.724.24.724.1.724.006.638.006.512.006.39.089.33.193.302.295.275.327.255.327.203.327.164.299.133.25.133.2.133.163.165.157.231H0C.01.084.102 0 .249 0z"/></symbol><symbol id="b"><path d="M.291.6A.183.183 0 0 1 .148.541v.047H0V0h.155v.349c0 .066.041.106.103.106.061 0 .098-.039.098-.106V0h.156v.376C.512.513.42.6.291.6z"/></symbol><symbol id="c"><path d="M.469.544a.232.232 0 0 1-.171.068A.296.296 0 0 1 0 .306C0 .129.13 0 .298 0c.075 0 .131.026.171.068V.012h.147V.6H.469V.544M.314.146a.156.156 0 0 0-.158.163c0 .094.069.162.158.162A.156.156 0 0 0 .473.309.156.156 0 0 0 .314.146z"/></symbol><symbol id="d"><path d="M.309 0c.144 0 .257.086.292.213L.459.256A.145.145 0 0 0 .313.147a.155.155 0 0 0-.157.161c0 .094.068.161.157.161A.152.152 0 0 0 .461.367l.136.052a.298.298 0 0 1-.288.193A.301.301 0 0 1 0 .306.3.3 0 0 1 .309 0z"/></symbol><symbol id="e"><path d="m.308.311.215.277H.335L.153.341V.7H0V0h.153v.273L.342 0h.195L.308.311z"/></symbol><symbol id="f"><path d="M.089.551c.049 0 .088.039.088.087a.087.087 0 0 1-.088.087A.088.088 0 0 1 0 .638C0 .59.039.551.089.551M.166 0v.503H.01V0h.156z"/></symbol><symbol id="g"><path d="M.393.661a.196.196 0 0 1-.145.06A.249.249 0 0 1 0 .469C0 .33.11.218.248.218a.194.194 0 0 1 .139.053V.219C.387.16.349.117.283.117c-.057 0-.095.03-.106.075H.016C.038.084.125 0 .282 0c.149 0 .256.083.256.236v.472H.393V.661M.276.343a.122.122 0 0 0-.123.123c0 .069.054.123.123.123A.121.121 0 0 0 .4.466.12.12 0 0 0 .276.343z"/></symbol><symbol id="h"><path d="M0 0z"/></symbol><symbol id="i"><path d="M.219 0C.345 0 .43.07.43.186c0 .098-.071.156-.163.18C.178.391.153.402.153.44c0 .028.023.051.06.051.034 0 .062-.023.065-.066h.145C.414.54.336.612.212.612S.005.536.005.431s.073-.16.16-.182C.254.227.283.215.283.174.283.144.258.122.221.122c-.039 0-.07.026-.073.073H0C.009.072.094 0 .219 0z"/></symbol><symbol id="j"><path d="M.155 0v.7H0V0h.155z"/></symbol><symbol id="k"><path d="M.427.834.158.764l.029-.11.27.067-.03.113M.616.306a.299.299 0 0 1-.308.306A.301.301 0 0 1 0 .306C0 .134.134 0 .311 0 .41 0 .502.039.566.12L.447.206A.166.166 0 0 0 .155.26h.457c.003.016.004.03.004.046M.159.371a.156.156 0 0 0 .152.106c.072 0 .131-.04.153-.106H.159z"/></symbol><use xlink:href="#a" transform="matrix(0 -13 -13 0 486.803 783.106)" fill="#f05622"/><use xlink:href="#b" transform="matrix(0 -13 -13 0 486.647 775.58)" fill="#f05622"/><use xlink:href="#c" transform="matrix(0 -13 -13 0 486.803 767.896)" fill="#f05622"/><use xlink:href="#d" transform="matrix(0 -13 -13 0 486.803 758.796)" fill="#f05622"/><use xlink:href="#e" transform="matrix(0 -13 -13 0 486.647 750.073)" fill="#f05622"/><use xlink:href="#f" transform="matrix(0 -13 -13 0 486.647 742.69)" fill="#f05622"/><use xlink:href="#b" transform="matrix(0 -13 -13 0 486.647 739.036)" fill="#f05622"/><use xlink:href="#g" transform="matrix(0 -13 -13 0 488.207 731.34)" fill="#f05622"/><use xlink:href="#h" transform="matrix(0 -13 -13 0 486.647 723.631)" fill="#f05622"/><use xlink:href="#i" transform="matrix(0 -13 -13 0 486.803 720.212)" fill="#f05622"/><use xlink:href="#c" transform="matrix(0 -13 -13 0 486.803 713.868)" fill="#f05622"/><use xlink:href="#j" transform="matrix(0 -13 -13 0 486.647 704.391)" fill="#f05622"/><use xlink:href="#k" transform="matrix(0 -13 -13 0 486.803 701.271)" fill="#f05622"/></g><g data-name="P"><symbol id="l"><path d="M.369 0c.15 0 .264.08.324.2L.552.271A.2.2 0 0 0 .37.15C.254.15.168.245.168.364c0 .118.086.211.202.211.084 0 .151-.05.182-.119l.139.07a.352.352 0 0 1-.322.198A.367.367 0 0 1 0 .362C0 .163.166 0 .369 0z"/></symbol><symbol id="m"><path d="M.32.595C.238.595.181.564.145.511v.077H0V0h.152v.254c0 .169.09.191.165.191h.008v.15H.32z"/></symbol><symbol id="n"><path d="m.435.654.05.102-.111.053a.153.153 0 0 1-.067.016A.153.153 0 0 1 .24.809L.131.755l.05-.101.126.056.128-.056M.616.306a.299.299 0 0 1-.308.306A.301.301 0 0 1 0 .306C0 .134.134 0 .311 0 .41 0 .502.039.566.12L.447.206A.166.166 0 0 0 .155.26h.457c.003.016.004.03.004.046M.159.371a.156.156 0 0 0 .152.106c.072 0 .131-.04.153-.106H.159z"/></symbol><symbol id="o"><path d="M.318.712A.23.23 0 0 1 .146.644V.7H0V0h.154v.159A.24.24 0 0 1 .318.1C.486.1.615.23.615.406a.294.294 0 0 1-.297.306M.3.246a.156.156 0 0 0-.158.162c0 .095.069.163.158.163A.156.156 0 0 0 .459.408.156.156 0 0 0 .3.246z"/></symbol><symbol id="p"><path d="M.616.306a.299.299 0 0 1-.308.306A.301.301 0 0 1 0 .306C0 .134.134 0 .311 0 .41 0 .502.039.566.12L.447.206A.166.166 0 0 0 .155.26h.457c.003.016.004.03.004.046M.159.371a.156.156 0 0 0 .152.106c.072 0 .131-.04.153-.106H.159z"/></symbol><use xlink:href="#l" transform="matrix(12 0 0 -12 113.77 132.572)" fill="#f05622"/><use xlink:href="#m" transform="matrix(12 0 0 -12 122.938 132.428)" fill="#f05622"/><use xlink:href="#n" transform="matrix(12 0 0 -12 127.078 132.572)" fill="#f05622"/><use xlink:href="#o" transform="matrix(12 0 0 -12 135.466 133.772)" fill="#f05622"/><use xlink:href="#p" transform="matrix(12 0 0 -12 143.518 132.572)" fill="#f05622"/><use xlink:href="#i" transform="matrix(12 0 0 -12 151.498 132.572)" fill="#f05622"/></g><g data-name="P"><symbol id="q"><path d="M.366 0a.34.34 0 0 1 .332.243H.599A.243.243 0 0 0 .366.091a.264.264 0 0 0-.274.272c0 .154.11.273.274.273.107 0 .2-.062.233-.153h.099a.34.34 0 0 1-.332.243A.356.356 0 0 1 0 .363C0 .162.152 0 .366 0z"/></symbol><symbol id="r"><path d="M.087.425V.5H0V0h.087v.268c0 .115.076.153.151.15v.091A.161.161 0 0 1 .087.425z"/></symbol><symbol id="s"><path d="M.257.66.318.579h.093L.305.714H.209L.103.579h.093L.257.66M.089.223h.412a.256.256 0 0 1 .003.039c0 .14-.094.264-.245.264C.103.526 0 .411 0 .263 0 .113.103 0 .26 0c.111 0 .198.061.227.152H.396C.375.111.325.079.261.079.172.079.104.131.089.223m0 .077a.163.163 0 0 0 .169.144C.333.444.402.398.415.3H.089z"/></symbol><symbol id="t"><path d="M.276.713A.218.218 0 0 1 .087.615V.7H0V0h.087v.285A.218.218 0 0 1 .276.187c.139 0 .253.115.253.263a.257.257 0 0 1-.253.263M.265.271A.175.175 0 0 0 .087.45c0 .102.077.179.178.179.1 0 .177-.077.177-.179A.175.175 0 0 0 .265.271z"/></symbol><symbol id="u"><path d="M.089.223h.412a.256.256 0 0 1 .003.039c0 .14-.094.264-.245.264C.103.526 0 .411 0 .263 0 .113.103 0 .26 0c.111 0 .198.061.227.152H.396C.375.111.325.079.261.079.172.079.104.131.089.223m0 .077a.163.163 0 0 0 .169.144C.333.444.402.398.415.3H.089z"/></symbol><symbol id="v"><path d="M0 0z"/></symbol><symbol id="w"><path d="M.106.922v-.11h.087v.11H.106m0-.73C.106.114.072.087 0 .093V.009C.126 0 .193.063.193.192v.53H.106v-.53z"/></symbol><symbol id="x"><path d="M.215.526C.104.526.021.456.021.353h.086c0 .06.05.09.108.09.059 0 .109-.03.109-.11V.262A.194.194 0 0 1 .175.32C.084.32 0 .267 0 .16 0 .053.084 0 .175 0c.064 0 .116.021.149.065V.013H.41v.323c0 .12-.083.19-.195.19M.2.074C.122.074.087.11.087.16c0 .05.035.087.113.087C.273.247.324.214.324.16.324.11.273.074.2.074z"/></symbol><symbol id="y"><path d="M.491.513A.161.161 0 0 1 .346.434a.142.142 0 0 1-.129.079.15.15 0 0 1-.13-.068V.5H0V0h.087v.305c0 .097.061.125.106.125C.24.43.281.403.281.334V0h.087v.305c0 .097.061.125.106.125C.52.43.561.403.561.334V0h.087v.337c0 .115-.07.176-.157.176z"/></symbol><symbol id="z"><path d="M.276.526A.219.219 0 0 1 .087.428v.285H0v-.7h.087v.085A.219.219 0 0 1 .276 0c.139 0 .253.115.253.263a.257.257 0 0 1-.253.263M.265.084a.175.175 0 0 0-.178.179c0 .102.077.179.178.179.1 0 .177-.077.177-.179A.175.175 0 0 0 .265.084z"/></symbol><symbol id="A"><path d="M.263 0c.146 0 .264.115.264.263a.262.262 0 0 1-.264.263A.26.26 0 0 1 0 .263.26.26 0 0 1 .263 0m0 .085a.174.174 0 0 0-.176.178c0 .101.077.178.176.178.1 0 .177-.077.177-.178A.174.174 0 0 0 .263.085z"/></symbol><symbol id="B"><path d="M.235.513A.164.164 0 0 1 .087.438V.5H0V0h.087v.285C.087.392.15.43.212.43.272.43.316.393.316.321V0h.087v.325c0 .117-.075.188-.168.188z"/></symbol><symbol id="C"><path d="M0 .241V.133h.052C.052.07.031.053 0 .046V0c.07.007.107.056.107.133v.108H0z"/></symbol><symbol id="D"><path d="M.284.5H.186v.16H.099V.5H0V.416h.099V0h.087v.416h.098V.5z"/></symbol><symbol id="E"><path d="M0 0h.087v.72H0V0z"/></symbol><use xlink:href="#q" transform="matrix(9 0 0 -9 113.728 149.214)" fill="#252120"/><use xlink:href="#r" transform="matrix(9 0 0 -9 120.829 149.097)" fill="#252120"/><use xlink:href="#s" transform="matrix(9 0 0 -9 123.24 149.214)" fill="#252120"/><use xlink:href="#t" transform="matrix(9 0 0 -9 128.632 150.897)" fill="#252120"/><use xlink:href="#u" transform="matrix(9 0 0 -9 134.077 149.214)" fill="#252120"/><use xlink:href="#v" transform="matrix(9 0 0 -9 138.874 149.097)" fill="#252120"/><use xlink:href="#w" transform="matrix(9 0 0 -9 140.962 151.095)" fill="#252120"/><use xlink:href="#x" transform="matrix(9 0 0 -9 143.635 149.214)" fill="#252120"/><use xlink:href="#y" transform="matrix(9 0 0 -9 148.405 149.097)" fill="#252120"/><use xlink:href="#z" transform="matrix(9 0 0 -9 155.317 149.214)" fill="#252120"/><use xlink:href="#A" transform="matrix(9 0 0 -9 160.762 149.214)" fill="#252120"/><use xlink:href="#B" transform="matrix(9 0 0 -9 166.432 149.097)" fill="#252120"/><use xlink:href="#C" transform="matrix(9 0 0 -9 171.157 150.294)" fill="#252120"/><use xlink:href="#v" transform="matrix(9 0 0 -9 172.732 149.097)" fill="#252120"/><use xlink:href="#u" transform="matrix(9 0 0 -9 175.324 149.214)" fill="#252120"/><use xlink:href="#y" transform="matrix(9 0 0 -9 180.715 149.097)" fill="#252120"/><use xlink:href="#y" transform="matrix(9 0 0 -9 187.627 149.097)" fill="#252120"/><use xlink:href="#u" transform="matrix(9 0 0 -9 194.287 149.214)" fill="#252120"/><use xlink:href="#B" transform="matrix(9 0 0 -9 199.678 149.097)" fill="#252120"/><use xlink:href="#D" transform="matrix(9 0 0 -9 203.962 149.097)" fill="#252120"/><use xlink:href="#x" transform="matrix(9 0 0 -9 206.94 149.214)" fill="#252120"/><use xlink:href="#E" transform="matrix(9 0 0 -9 211.71 149.097)" fill="#252120"/><use xlink:href="#v" transform="matrix(9 0 0 -9 213.096 149.097)" fill="#252120"/></g><g data-name="P"><symbol id="F"><path d="M.25.449H.155l.012.156H.46v.108h-.4L.033.337h.212c.078 0 .13-.042.13-.112S.323.112.245.112c-.079 0-.13.043-.13.113H0C0 .078.116 0 .245 0S.49.078.49.225C.49.371.379.449.25.449z"/></symbol><symbol id="G"><path d="M0 0z"/></symbol><use xlink:href="#F" transform="matrix(8.25 0 0 -8.25 217.868 149.205)" fill="#252120"/><use xlink:href="#G" transform="matrix(8.25 0 0 -8.25 222.175 149.097)" fill="#252120"/></g><g data-name="P"><symbol id="H"><path d="M.48.257C.47.164.418.112.34.112.258.112.205.169.187.273H.41v.071H.18v.019L.181.39H.41v.071H.189C.208.56.26.614.34.614.416.614.467.566.478.477h.117C.575.629.483.726.34.726.192.726.099.622.073.461H0V.39h.066L.065.363V.344H0V.273h.071C.096.107.19 0 .34 0c.146 0 .239.1.257.257H.48z"/></symbol><use xlink:href="#H" transform="matrix(7 0 0 -7 223.311 149.188)" fill="#252120"/></g><g data-name="P"><symbol id="I"><path d="M.383.714H.278L.198.582h.084l.101.132M.089.223h.412a.256.256 0 0 1 .003.039c0 .14-.094.264-.245.264C.103.526 0 .411 0 .263 0 .113.103 0 .26 0c.111 0 .198.061.227.152H.396C.375.111.325.079.261.079.172.079.104.131.089.223m0 .077a.163.163 0 0 0 .169.144C.333.444.402.398.415.3H.089z"/></symbol><symbol id="J"><path d="M.443.713V.627a.22.22 0 0 1-.19.099A.256.256 0 0 1 0 .466C0 .32.114.205.253.205a.22.22 0 0 1 .19.099v-.07C.443.14.384.081.276.081.177.081.121.142.121.192H.034C.034.078.152 0 .276 0c.131 0 .253.078.253.234v.479H.443M.265.288a.175.175 0 0 0-.178.178c0 .1.077.177.178.177A.174.174 0 0 0 .443.466.175.175 0 0 0 .265.288z"/></symbol><symbol id="K"><path d="M.316.513V.229C.316.121.253.083.191.083.131.083.087.12.087.192v.321H0V.189C0 .071.075 0 .168 0 .229 0 .28.02.316.075V.013h.087v.5H.316z"/></symbol><symbol id="L"><path d="M.095.377c0 .047.046.068.095.068.048 0 .095-.022.095-.082h.086c0 .103-.08.163-.181.163C.088.526.008.467.008.377c0-.188.286-.115.286-.228C.294.102.248.081.19.081.133.081.086.103.086.163H0C0 .06.08 0 .19 0c.111 0 .191.059.191.149 0 .189-.286.115-.286.228z"/></symbol><symbol id="M"><path d="M0 .59h.087V.7H0V.59M0 0h.087v.5H0V0z"/></symbol><symbol id="N"><path d="M.299.629v.084C.156.723.081.648.081.515V.5H0V.416h.081V0h.087v.416h.131V.5H.168v.015c0 .087.044.121.131.114z"/></symbol><use xlink:href="#q" transform="matrix(9 0 0 -9 113.728 161.632)" fill="#252120"/><use xlink:href="#r" transform="matrix(9 0 0 -9 120.829 161.515)" fill="#252120"/><use xlink:href="#s" transform="matrix(9 0 0 -9 123.24 161.632)" fill="#252120"/><use xlink:href="#t" transform="matrix(9 0 0 -9 128.632 163.315)" fill="#252120"/><use xlink:href="#u" transform="matrix(9 0 0 -9 134.077 161.632)" fill="#252120"/><use xlink:href="#v" transform="matrix(9 0 0 -9 138.874 161.515)" fill="#252120"/><use xlink:href="#E" transform="matrix(9 0 0 -9 141.718 161.515)" fill="#252120"/><use xlink:href="#I" transform="matrix(9 0 0 -9 143.446 161.632)" fill="#252120"/><use xlink:href="#J" transform="matrix(9 0 0 -9 148.585 163.432)" fill="#252120"/><use xlink:href="#K" transform="matrix(9 0 0 -9 154.417 161.632)" fill="#252120"/><use xlink:href="#y" transform="matrix(9 0 0 -9 159.232 161.515)" fill="#252120"/><use xlink:href="#u" transform="matrix(9 0 0 -9 165.892 161.632)" fill="#252120"/><use xlink:href="#L" transform="matrix(9 0 0 -9 171.076 161.632)" fill="#252120"/><use xlink:href="#v" transform="matrix(9 0 0 -9 174.892 161.515)" fill="#252120"/><use xlink:href="#y" transform="matrix(9 0 0 -9 177.736 161.515)" fill="#252120"/><use xlink:href="#x" transform="matrix(9 0 0 -9 184.396 161.632)" fill="#252120"/><use xlink:href="#r" transform="matrix(9 0 0 -9 189.166 161.515)" fill="#252120"/><use xlink:href="#M" transform="matrix(9 0 0 -9 192.064 161.515)" fill="#252120"/><use xlink:href="#B" transform="matrix(9 0 0 -9 194.044 161.515)" fill="#252120"/><use xlink:href="#I" transform="matrix(9 0 0 -9 198.499 161.632)" fill="#252120"/><use xlink:href="#L" transform="matrix(9 0 0 -9 203.683 161.632)" fill="#252120"/><use xlink:href="#C" transform="matrix(9 0 0 -9 208.011 162.712)" fill="#252120"/><use xlink:href="#v" transform="matrix(9 0 0 -9 209.586 161.515)" fill="#252120"/><use xlink:href="#D" transform="matrix(9 0 0 -9 212.007 161.515)" fill="#252120"/><use xlink:href="#A" transform="matrix(9 0 0 -9 214.905 161.632)" fill="#252120"/><use xlink:href="#N" transform="matrix(9 0 0 -9 220.017 161.515)" fill="#252120"/><use xlink:href="#K" transform="matrix(9 0 0 -9 223.194 161.632)" fill="#252120"/><use xlink:href="#v" transform="matrix(9 0 0 -9 227.415 161.515)" fill="#252120"/></g><g data-name="P"><use xlink:href="#F" transform="matrix(8.25 0 0 -8.25 232.187 161.622)" fill="#252120"/><use xlink:href="#G" transform="matrix(8.25 0 0 -8.25 236.494 161.515)" fill="#252120"/></g><g data-name="P"><use xlink:href="#H" transform="matrix(7 0 0 -7 237.63 161.606)" fill="#252120"/><use xlink:href="#G" transform="matrix(7 0 0 -7 241.984 161.515)" fill="#252120"/></g><g data-name="Artifact"><clipPath id="O"><path transform="matrix(1 0 0 -1 0 796.535)" d="M0 0h498.898v796.535H0z"/></clipPath><g clip-path="url(#O)"><path d="M251.046 158.538a2.28 2.28 0 0 1-1.085 2.159 3.042 3.042 0 0 1-3.06.094l-.005-.003c.469-2.011 1.844-2.915 1.918-2.962h-.001a.379.379 0 0 0-.111-.686.374.374 0 0 0-.281.047 5.656 5.656 0 0 0-2.181 3.157c-.494-.463-1.034-1.337-.592-2.793.34-1.125 1.395-2.059 2.685-2.38a3.99 3.99 0 0 1 3.587.855c-.436.345-.968 1.066-.874 2.512z" fill="#51ba69"/></g><path d="M247.16 162.464a.392.392 0 0 1-.39-.378c-.01-.305.007-.613.05-.915.054-.37.148-.738.279-1.09a.392.392 0 0 1 .733.274 4.46 4.46 0 0 0-.28 1.705.391.391 0 0 1-.378.404h-.013" fill="#51ba69" data-name="Artifact"/><symbol id="P"><path d="M.529.223h.412a.256.256 0 0 1 .003.039c0 .14-.094.264-.246.264A.227.227 0 0 1 .481.393a.24.24 0 0 1-.219.133A.257.257 0 0 1 0 .263C0 .115.111 0 .262 0a.24.24 0 0 1 .219.133A.226.226 0 0 1 .699 0c.112 0 .199.061.228.152H.836C.815.111.765.079.701.079.612.079.544.131.529.223m0 .077a.163.163 0 0 0 .169.144C.773.444.842.398.855.3H.529M.263.085a.171.171 0 0 0-.176.178c0 .101.072.178.176.178.1 0 .177-.077.177-.178A.174.174 0 0 0 .263.085z"/></symbol><use xlink:href="#q" transform="matrix(9 0 0 -9 113.728 174.049)" fill="#252120"/><use xlink:href="#r" transform="matrix(9 0 0 -9 120.829 173.932)" fill="#252120"/><use xlink:href="#s" transform="matrix(9 0 0 -9 123.24 174.049)" fill="#252120"/><use xlink:href="#t" transform="matrix(9 0 0 -9 128.632 175.732)" fill="#252120"/><use xlink:href="#u" transform="matrix(9 0 0 -9 134.077 174.049)" fill="#252120"/><use xlink:href="#v" transform="matrix(9 0 0 -9 138.874 173.932)" fill="#252120"/><use xlink:href="#w" transform="matrix(9 0 0 -9 140.962 175.93)" fill="#252120"/><use xlink:href="#x" transform="matrix(9 0 0 -9 143.635 174.049)" fill="#252120"/><use xlink:href="#y" transform="matrix(9 0 0 -9 148.405 173.932)" fill="#252120"/><use xlink:href="#z" transform="matrix(9 0 0 -9 155.317 174.049)" fill="#252120"/><use xlink:href="#A" transform="matrix(9 0 0 -9 160.762 174.049)" fill="#252120"/><use xlink:href="#B" transform="matrix(9 0 0 -9 166.432 173.932)" fill="#252120"/><use xlink:href="#C" transform="matrix(9 0 0 -9 171.157 175.129)" fill="#252120"/><use xlink:href="#v" transform="matrix(9 0 0 -9 172.732 173.932)" fill="#252120"/><use xlink:href="#u" transform="matrix(9 0 0 -9 175.324 174.049)" fill="#252120"/><use xlink:href="#y" transform="matrix(9 0 0 -9 180.715 173.932)" fill="#252120"/><use xlink:href="#y" transform="matrix(9 0 0 -9 187.627 173.932)" fill="#252120"/><use xlink:href="#u" transform="matrix(9 0 0 -9 194.287 174.049)" fill="#252120"/><use xlink:href="#B" transform="matrix(9 0 0 -9 199.678 173.932)" fill="#252120"/><use xlink:href="#D" transform="matrix(9 0 0 -9 203.962 173.932)" fill="#252120"/><use xlink:href="#x" transform="matrix(9 0 0 -9 206.94 174.049)" fill="#252120"/><use xlink:href="#E" transform="matrix(9 0 0 -9 211.71 173.932)" fill="#252120"/><use xlink:href="#C" transform="matrix(9 0 0 -9 213.708 175.129)" fill="#252120"/><use xlink:href="#v" transform="matrix(9 0 0 -9 215.283 173.932)" fill="#252120"/><use xlink:href="#P" transform="matrix(9 0 0 -9 217.875 174.049)" fill="#252120"/><use xlink:href="#K" transform="matrix(9 0 0 -9 227.118 174.049)" fill="#252120"/><use xlink:href="#N" transform="matrix(9 0 0 -9 231.474 173.932)" fill="#252120"/><use xlink:href="#v" transform="matrix(9 0 0 -9 234.165 173.932)" fill="#252120"/></g><g data-name="P"><symbol id="Q"><path d="M.248.478H.235l.16.235H.264L.042.38A.245.245 0 0 1 0 .239C0 .098.102 0 .248 0c.145 0 .247.098.247.239S.393.478.248.478m0-.369c-.077 0-.133.05-.133.13s.056.13.133.13C.324.369.38.319.38.239.38.16.324.109.248.109z"/></symbol><use xlink:href="#Q" transform="matrix(8.25 0 0 -8.25 238.871 174.04)" fill="#252120"/><use xlink:href="#G" transform="matrix(8.25 0 0 -8.25 243.161 173.932)" fill="#252120"/></g><use xlink:href="#H" transform="matrix(7 0 0 -7 244.297 174.023)" fill="#252120" data-name="P"/><g data-name="P"><symbol id="R"><path d="M.442.713V.428a.219.219 0 0 1-.189.098A.258.258 0 0 1 0 .263C0 .115.115 0 .253 0c.084 0 .149.038.189.098V.013h.087v.7H.442M.264.084c-.1 0-.177.077-.177.179s.077.179.177.179A.175.175 0 0 0 .442.263.175.175 0 0 0 .264.084z"/></symbol><symbol id="S"><path d="M0 .24V.133h.052C.052.069.031.052 0 .046V0c.07.006.107.056.107.133V.24H0z"/></symbol><symbol id="T"><path d="M.523 0h.099L.363.7H.258L0 0h.099l.056.157h.312L.523 0M.186.244l.125.347.124-.347H.186z"/></symbol><use xlink:href="#q" transform="matrix(9 0 0 -9 113.728 186.466)" fill="#252120"/><use xlink:href="#r" transform="matrix(9 0 0 -9 120.829 186.35)" fill="#252120"/><use xlink:href="#s" transform="matrix(9 0 0 -9 123.24 186.466)" fill="#252120"/><use xlink:href="#t" transform="matrix(9 0 0 -9 128.632 188.15)" fill="#252120"/><use xlink:href="#u" transform="matrix(9 0 0 -9 134.077 186.466)" fill="#252120"/><use xlink:href="#v" transform="matrix(9 0 0 -9 138.874 186.35)" fill="#252120"/><use xlink:href="#N" transform="matrix(9 0 0 -9 141.259 186.35)" fill="#252120"/><use xlink:href="#A" transform="matrix(9 0 0 -9 144.184 186.466)" fill="#252120"/><use xlink:href="#K" transform="matrix(9 0 0 -9 149.746 186.466)" fill="#252120"/><use xlink:href="#r" transform="matrix(9 0 0 -9 154.56 186.35)" fill="#252120"/><use xlink:href="#y" transform="matrix(9 0 0 -9 157.459 186.35)" fill="#252120"/><use xlink:href="#u" transform="matrix(9 0 0 -9 164.119 186.466)" fill="#252120"/><use xlink:href="#v" transform="matrix(9 0 0 -9 168.916 186.35)" fill="#252120"/><use xlink:href="#R" transform="matrix(9 0 0 -9 171.508 186.466)" fill="#252120"/><use xlink:href="#S" transform="matrix(9 0 0 -9 177.475 182.21)" fill="#252120"/><use xlink:href="#T" transform="matrix(9 0 0 -9 178.402 186.35)" fill="#252120"/><use xlink:href="#y" transform="matrix(9 0 0 -9 184.666 186.35)" fill="#252120"/><use xlink:href="#z" transform="matrix(9 0 0 -9 191.578 186.466)" fill="#252120"/><use xlink:href="#u" transform="matrix(9 0 0 -9 197.023 186.466)" fill="#252120"/><use xlink:href="#r" transform="matrix(9 0 0 -9 202.414 186.35)" fill="#252120"/><use xlink:href="#D" transform="matrix(9 0 0 -9 204.933 186.35)" fill="#252120"/><use xlink:href="#C" transform="matrix(9 0 0 -9 207.984 187.546)" fill="#252120"/><use xlink:href="#v" transform="matrix(9 0 0 -9 209.559 186.35)" fill="#252120"/><use xlink:href="#A" transform="matrix(9 0 0 -9 212.15 186.466)" fill="#252120"/><use xlink:href="#M" transform="matrix(9 0 0 -9 217.82 186.35)" fill="#252120"/><use xlink:href="#J" transform="matrix(9 0 0 -9 219.549 188.266)" fill="#252120"/><use xlink:href="#B" transform="matrix(9 0 0 -9 225.489 186.35)" fill="#252120"/><use xlink:href="#A" transform="matrix(9 0 0 -9 229.944 186.466)" fill="#252120"/><use xlink:href="#B" transform="matrix(9 0 0 -9 235.614 186.35)" fill="#252120"/><use xlink:href="#v" transform="matrix(9 0 0 -9 239.727 186.35)" fill="#252120"/><use xlink:href="#N" transform="matrix(9 0 0 -9 242.112 186.35)" fill="#252120"/><use xlink:href="#r" transform="matrix(9 0 0 -9 245.397 186.35)" fill="#252120"/><use xlink:href="#M" transform="matrix(9 0 0 -9 248.295 186.35)" fill="#252120"/><use xlink:href="#D" transform="matrix(9 0 0 -9 249.852 186.35)" fill="#252120"/><use xlink:href="#L" transform="matrix(9 0 0 -9 252.875 186.466)" fill="#252120"/><use xlink:href="#v" transform="matrix(9 0 0 -9 256.691 186.35)" fill="#252120"/></g><g data-name="P"><use xlink:href="#Q" transform="matrix(8.25 0 0 -8.25 261.398 186.456)" fill="#252120"/><use xlink:href="#G" transform="matrix(8.25 0 0 -8.25 265.688 186.35)" fill="#252120"/></g><g data-name="P"><use xlink:href="#H" transform="matrix(7 0 0 -7 266.824 186.44)" fill="#252120"/><use xlink:href="#G" transform="matrix(7 0 0 -7 271.178 186.35)" fill="#252120"/></g><g data-name="Artifact"><clipPath id="U"><path transform="matrix(1 0 0 -1 0 796.535)" d="M0 0h498.898v796.535H0z"/></clipPath><g clip-path="url(#U)"><path d="M279.738 181.102c-.653 0-1.23.327-1.574.827a1.913 1.913 0 0 0-3.486 1.086c0 1.864 3.486 3.801 3.486 3.801s3.487-1.937 3.487-3.8a1.913 1.913 0 0 0-1.913-1.914" fill="#f05622"/></g><symbol id="V"><path d="M.682.175.597.589C.582.665.543.713.474.713S.367.665.352.589L.268.175l-.11.532H0L.123.141C.143.045.183 0 .259 0c.08 0 .116.05.133.14l.079.386L.549.14C.566.05.602 0 .682 0c.076 0 .116.045.136.141L.94.707H.791L.682.175z"/></symbol><symbol id="W"><path d="M0 0z"/></symbol><use xlink:href="#V" transform="matrix(12 0 0 -12 113.602 216.424)" fill="#f05622"/><use xlink:href="#m" transform="matrix(12 0 0 -12 125.734 216.34)" fill="#f05622"/><use xlink:href="#c" transform="matrix(12 0 0 -12 129.886 216.484)" fill="#f05622"/><use xlink:href="#o" transform="matrix(12 0 0 -12 138.67 217.684)" fill="#f05622"/><use xlink:href="#i" transform="matrix(12 0 0 -12 146.734 216.484)" fill="#f05622"/><use xlink:href="#W" transform="matrix(12 0 0 -12 152.254 216.34)" fill="#f05622"/></g><g data-name="P"><symbol id="X"><path d="M.762.7.584.106.407.7H.319L.384.484.27.106.093.7H0L.211 0h.112l.104.343L.531 0h.112l.212.7H.762z"/></symbol><symbol id="Y"><path d="M.428 0 .261.259.416.5H.322L.214.332.105.5H.011L.167.259 0 0h.094l.12.186L.334 0h.094z"/></symbol><use xlink:href="#X" transform="matrix(9 0 0 -9 113.458 233.009)" fill="#252120"/><use xlink:href="#r" transform="matrix(9 0 0 -9 121.45 233.009)" fill="#252120"/><use xlink:href="#x" transform="matrix(9 0 0 -9 123.997 233.126)" fill="#252120"/><use xlink:href="#t" transform="matrix(9 0 0 -9 128.767 234.809)" fill="#252120"/><use xlink:href="#L" transform="matrix(9 0 0 -9 134.212 233.126)" fill="#252120"/><use xlink:href="#v" transform="matrix(9 0 0 -9 138.028 233.009)" fill="#252120"/><use xlink:href="#x" transform="matrix(9 0 0 -9 140.62 233.126)" fill="#252120"/><use xlink:href="#K" transform="matrix(9 0 0 -9 145.282 233.126)" fill="#252120"/><use xlink:href="#Y" transform="matrix(9 0 0 -9 149.638 233.009)" fill="#252120"/><use xlink:href="#v" transform="matrix(9 0 0 -9 153.643 233.009)" fill="#252120"/><use xlink:href="#E" transform="matrix(9 0 0 -9 156.487 233.009)" fill="#252120"/><use xlink:href="#I" transform="matrix(9 0 0 -9 158.215 233.126)" fill="#252120"/><use xlink:href="#J" transform="matrix(9 0 0 -9 163.354 234.926)" fill="#252120"/><use xlink:href="#K" transform="matrix(9 0 0 -9 169.186 233.126)" fill="#252120"/><use xlink:href="#y" transform="matrix(9 0 0 -9 174 233.009)" fill="#252120"/><use xlink:href="#u" transform="matrix(9 0 0 -9 180.66 233.126)" fill="#252120"/><use xlink:href="#L" transform="matrix(9 0 0 -9 185.845 233.126)" fill="#252120"/><use xlink:href="#v" transform="matrix(9 0 0 -9 189.66 233.009)" fill="#252120"/><use xlink:href="#y" transform="matrix(9 0 0 -9 192.505 233.009)" fill="#252120"/><use xlink:href="#x" transform="matrix(9 0 0 -9 199.165 233.126)" fill="#252120"/><use xlink:href="#r" transform="matrix(9 0 0 -9 203.935 233.009)" fill="#252120"/><use xlink:href="#M" transform="matrix(9 0 0 -9 206.833 233.009)" fill="#252120"/><use xlink:href="#B" transform="matrix(9 0 0 -9 208.813 233.009)" fill="#252120"/><use xlink:href="#I" transform="matrix(9 0 0 -9 213.268 233.126)" fill="#252120"/><use xlink:href="#L" transform="matrix(9 0 0 -9 218.452 233.126)" fill="#252120"/><use xlink:href="#v" transform="matrix(9 0 0 -9 222.268 233.009)" fill="#252120"/></g><g data-name="P"><use xlink:href="#F" transform="matrix(8.25 0 0 -8.25 227.04 233.116)" fill="#252120"/><use xlink:href="#G" transform="matrix(8.25 0 0 -8.25 231.346 233.009)" fill="#252120"/></g><g data-name="P"><use xlink:href="#H" transform="matrix(7 0 0 -7 232.482 233.1)" fill="#252120"/><use xlink:href="#G" transform="matrix(7 0 0 -7 236.836 233.009)" fill="#252120"/></g><g data-name="Artifact"><clipPath id="Z"><path transform="matrix(1 0 0 -1 0 796.535)" d="M0 0h498.898v796.535H0z"/></clipPath><g clip-path="url(#Z)"><path d="M245.898 230.032a2.28 2.28 0 0 1-1.085 2.16 3.042 3.042 0 0 1-3.06.093l-.005-.003c.469-2.01 1.844-2.915 1.918-2.962h-.001a.379.379 0 0 0-.111-.686.374.374 0 0 0-.281.047 5.656 5.656 0 0 0-2.181 3.157c-.494-.463-1.034-1.337-.592-2.793.34-1.125 1.395-2.059 2.685-2.38a3.99 3.99 0 0 1 3.587.855c-.436.345-.968 1.066-.874 2.512z" fill="#51ba69"/></g><path d="M242.013 233.959a.392.392 0 0 1-.391-.378c-.01-.305.007-.613.05-.915.054-.371.148-.738.279-1.09a.392.392 0 0 1 .733.274 4.46 4.46 0 0 0-.28 1.705.391.391 0 0 1-.378.404h-.013" fill="#51ba69" data-name="Artifact"/><symbol id="aa"><path d="M.506.181H.414A.157.157 0 0 0 .263.086a.174.174 0 0 0-.176.177c0 .101.077.178.176.178.07 0 .128-.038.151-.095h.092a.245.245 0 0 1-.243.18A.258.258 0 0 1 0 .263C0 .115.112 0 .263 0 .381 0 .48.074.506.181z"/></symbol><symbol id="ab"><path d="m.311.582-.08.132H.126L.227.582h.084M.089.223h.412a.256.256 0 0 1 .003.039c0 .14-.094.264-.245.264C.103.526 0 .411 0 .263 0 .113.103 0 .26 0c.111 0 .198.061.227.152H.396C.375.111.325.079.261.079.172.079.104.131.089.223m0 .077a.163.163 0 0 0 .169.144C.333.444.402.398.415.3H.089z"/></symbol><use xlink:href="#X" transform="matrix(9 0 0 -9 113.458 245.426)" fill="#252120"/><use xlink:href="#r" transform="matrix(9 0 0 -9 121.45 245.426)" fill="#252120"/><use xlink:href="#x" transform="matrix(9 0 0 -9 123.997 245.543)" fill="#252120"/><use xlink:href="#t" transform="matrix(9 0 0 -9 128.767 247.226)" fill="#252120"/><use xlink:href="#L" transform="matrix(9 0 0 -9 134.212 245.543)" fill="#252120"/><use xlink:href="#C" transform="matrix(9 0 0 -9 138.54 246.623)" fill="#252120"/><use xlink:href="#v" transform="matrix(9 0 0 -9 140.116 245.426)" fill="#252120"/><use xlink:href="#y" transform="matrix(9 0 0 -9 142.96 245.426)" fill="#252120"/><use xlink:href="#u" transform="matrix(9 0 0 -9 149.62 245.543)" fill="#252120"/><use xlink:href="#L" transform="matrix(9 0 0 -9 154.804 245.543)" fill="#252120"/><use xlink:href="#aa" transform="matrix(9 0 0 -9 158.863 245.543)" fill="#252120"/><use xlink:href="#E" transform="matrix(9 0 0 -9 164.254 245.426)" fill="#252120"/><use xlink:href="#K" transform="matrix(9 0 0 -9 166.126 245.543)" fill="#252120"/><use xlink:href="#B" transform="matrix(9 0 0 -9 170.94 245.426)" fill="#252120"/><use xlink:href="#C" transform="matrix(9 0 0 -9 175.666 246.623)" fill="#252120"/><use xlink:href="#v" transform="matrix(9 0 0 -9 177.24 245.426)" fill="#252120"/><use xlink:href="#w" transform="matrix(9 0 0 -9 179.329 247.424)" fill="#252120"/><use xlink:href="#x" transform="matrix(9 0 0 -9 182.002 245.543)" fill="#252120"/><use xlink:href="#y" transform="matrix(9 0 0 -9 186.772 245.426)" fill="#252120"/><use xlink:href="#z" transform="matrix(9 0 0 -9 193.684 245.543)" fill="#252120"/><use xlink:href="#A" transform="matrix(9 0 0 -9 199.129 245.543)" fill="#252120"/><use xlink:href="#B" transform="matrix(9 0 0 -9 204.799 245.426)" fill="#252120"/><use xlink:href="#v" transform="matrix(9 0 0 -9 208.912 245.426)" fill="#252120"/><use xlink:href="#z" transform="matrix(9 0 0 -9 211.756 245.543)" fill="#252120"/><use xlink:href="#E" transform="matrix(9 0 0 -9 217.453 245.426)" fill="#252120"/><use xlink:href="#x" transform="matrix(9 0 0 -9 219.18 245.543)" fill="#252120"/><use xlink:href="#B" transform="matrix(9 0 0 -9 223.95 245.426)" fill="#252120"/><use xlink:href="#aa" transform="matrix(9 0 0 -9 228.406 245.543)" fill="#252120"/><use xlink:href="#C" transform="matrix(9 0 0 -9 233.634 246.623)" fill="#252120"/><use xlink:href="#v" transform="matrix(9 0 0 -9 235.209 245.426)" fill="#252120"/><use xlink:href="#aa" transform="matrix(9 0 0 -9 237.801 245.543)" fill="#252120"/><use xlink:href="#r" transform="matrix(9 0 0 -9 243.192 245.426)" fill="#252120"/><use xlink:href="#ab" transform="matrix(9 0 0 -9 245.604 245.543)" fill="#252120"/><use xlink:href="#y" transform="matrix(9 0 0 -9 250.995 245.426)" fill="#252120"/><use xlink:href="#u" transform="matrix(9 0 0 -9 257.655 245.543)" fill="#252120"/><use xlink:href="#v" transform="matrix(9 0 0 -9 262.452 245.426)" fill="#252120"/><use xlink:href="#y" transform="matrix(9 0 0 -9 265.296 245.426)" fill="#252120"/><use xlink:href="#A" transform="matrix(9 0 0 -9 271.956 245.543)" fill="#252120"/><use xlink:href="#K" transform="matrix(9 0 0 -9 277.518 245.543)" fill="#252120"/><use xlink:href="#D" transform="matrix(9 0 0 -9 281.91 245.426)" fill="#252120"/><use xlink:href="#x" transform="matrix(9 0 0 -9 284.889 245.543)" fill="#252120"/><use xlink:href="#r" transform="matrix(9 0 0 -9 289.659 245.426)" fill="#252120"/><use xlink:href="#R" transform="matrix(9 0 0 -9 292.071 245.543)" fill="#252120"/><use xlink:href="#u" transform="matrix(9 0 0 -9 297.768 245.543)" fill="#252120"/><use xlink:href="#v" transform="matrix(9 0 0 -9 302.565 245.426)" fill="#252120"/></g><g data-name="P"><use xlink:href="#Q" transform="matrix(8.25 0 0 -8.25 307.271 245.534)" fill="#252120"/><use xlink:href="#G" transform="matrix(8.25 0 0 -8.25 311.561 245.426)" fill="#252120"/></g><use xlink:href="#H" transform="matrix(7 0 0 -7 312.697 245.517)" fill="#252120" data-name="P"/><g data-name="P"><use xlink:href="#X" transform="matrix(9 0 0 -9 113.458 257.844)" fill="#252120"/><use xlink:href="#r" transform="matrix(9 0 0 -9 121.45 257.844)" fill="#252120"/><use xlink:href="#x" transform="matrix(9 0 0 -9 123.997 257.96)" fill="#252120"/><use xlink:href="#t" transform="matrix(9 0 0 -9 128.767 259.644)" fill="#252120"/><use xlink:href="#L" transform="matrix(9 0 0 -9 134.212 257.96)" fill="#252120"/><use xlink:href="#C" transform="matrix(9 0 0 -9 138.54 259.04)" fill="#252120"/><use xlink:href="#v" transform="matrix(9 0 0 -9 140.116 257.844)" fill="#252120"/><use xlink:href="#y" transform="matrix(9 0 0 -9 142.96 257.844)" fill="#252120"/><use xlink:href="#u" transform="matrix(9 0 0 -9 149.62 257.96)" fill="#252120"/><use xlink:href="#L" transform="matrix(9 0 0 -9 154.804 257.96)" fill="#252120"/><use xlink:href="#aa" transform="matrix(9 0 0 -9 158.863 257.96)" fill="#252120"/><use xlink:href="#E" transform="matrix(9 0 0 -9 164.254 257.844)" fill="#252120"/><use xlink:href="#K" transform="matrix(9 0 0 -9 166.126 257.96)" fill="#252120"/><use xlink:href="#B" transform="matrix(9 0 0 -9 170.94 257.844)" fill="#252120"/><use xlink:href="#C" transform="matrix(9 0 0 -9 175.666 259.04)" fill="#252120"/><use xlink:href="#v" transform="matrix(9 0 0 -9 177.24 257.844)" fill="#252120"/><use xlink:href="#L" transform="matrix(9 0 0 -9 179.878 257.96)" fill="#252120"/><use xlink:href="#x" transform="matrix(9 0 0 -9 183.937 257.96)" fill="#252120"/><use xlink:href="#K" transform="matrix(9 0 0 -9 188.599 257.96)" fill="#252120"/><use xlink:href="#y" transform="matrix(9 0 0 -9 193.414 257.844)" fill="#252120"/><use xlink:href="#A" transform="matrix(9 0 0 -9 200.074 257.96)" fill="#252120"/><use xlink:href="#B" transform="matrix(9 0 0 -9 205.744 257.844)" fill="#252120"/><use xlink:href="#v" transform="matrix(9 0 0 -9 209.857 257.844)" fill="#252120"/><use xlink:href="#N" transform="matrix(9 0 0 -9 212.242 257.844)" fill="#252120"/><use xlink:href="#K" transform="matrix(9 0 0 -9 215.419 257.96)" fill="#252120"/><use xlink:href="#y" transform="matrix(9 0 0 -9 220.234 257.844)" fill="#252120"/><use xlink:href="#I" transform="matrix(9 0 0 -9 226.894 257.96)" fill="#252120"/><use xlink:href="#C" transform="matrix(9 0 0 -9 232.123 259.04)" fill="#252120"/><use xlink:href="#v" transform="matrix(9 0 0 -9 233.698 257.844)" fill="#252120"/><use xlink:href="#aa" transform="matrix(9 0 0 -9 236.29 257.96)" fill="#252120"/><use xlink:href="#r" transform="matrix(9 0 0 -9 241.68 257.844)" fill="#252120"/><use xlink:href="#ab" transform="matrix(9 0 0 -9 244.093 257.96)" fill="#252120"/><use xlink:href="#y" transform="matrix(9 0 0 -9 249.484 257.844)" fill="#252120"/><use xlink:href="#u" transform="matrix(9 0 0 -9 256.144 257.96)" fill="#252120"/><use xlink:href="#v" transform="matrix(9 0 0 -9 260.94 257.844)" fill="#252120"/><use xlink:href="#aa" transform="matrix(9 0 0 -9 263.533 257.96)" fill="#252120"/><use xlink:href="#M" transform="matrix(9 0 0 -9 268.924 257.844)" fill="#252120"/><use xlink:href="#z" transform="matrix(9 0 0 -9 270.904 257.96)" fill="#252120"/><use xlink:href="#A" transform="matrix(9 0 0 -9 276.349 257.96)" fill="#252120"/><use xlink:href="#K" transform="matrix(9 0 0 -9 281.91 257.96)" fill="#252120"/><use xlink:href="#E" transform="matrix(9 0 0 -9 286.726 257.844)" fill="#252120"/><use xlink:href="#u" transform="matrix(9 0 0 -9 288.454 257.96)" fill="#252120"/><use xlink:href="#D" transform="matrix(9 0 0 -9 293.376 257.844)" fill="#252120"/><use xlink:href="#D" transform="matrix(9 0 0 -9 296.265 257.844)" fill="#252120"/><use xlink:href="#u" transform="matrix(9 0 0 -9 299.163 257.96)" fill="#252120"/><use xlink:href="#v" transform="matrix(9 0 0 -9 303.96 257.844)" fill="#252120"/></g><g data-name="P"><symbol id="ac"><path d="M0 .7V.59h.319L.078 0h.121l.246.6v.1H0z"/></symbol><use xlink:href="#ac" transform="matrix(8.25 0 0 -8.25 308.584 257.844)" fill="#252120"/><use xlink:href="#G" transform="matrix(8.25 0 0 -8.25 312.502 257.844)" fill="#252120"/></g><use xlink:href="#H" transform="matrix(7 0 0 -7 313.639 257.935)" fill="#252120" data-name="P"/><g data-name="P"><symbol id="ad"><path d="M.324.425.288.289h.27C.542.208.483.145.376.145a.21.21 0 0 0-.213.217c0 .117.088.213.207.213A.2.2 0 0 0 .538.483l.125.091A.367.367 0 0 1 0 .362C0 .163.159 0 .369 0c.239 0 .338.18.339.3C.709.374.671.425.572.425H.324z"/></symbol><symbol id="ae"><path d="M.31 0c.176 0 .309.128.309.306A.3.3 0 0 1 .31.612.3.3 0 0 1 0 .306.3.3 0 0 1 .31 0m0 .144C.22.144.153.211.153.306.153.402.22.47.31.47.398.47.466.403.466.306.466.211.399.144.31.144z"/></symbol><symbol id="af"><path d="M.356.251C.356.185.315.145.253.145c-.06 0-.098.039-.098.106V.6H0V.224C0 .087.091 0 .22 0c.058 0 .11.02.143.059V.012h.149V.6H.356V.251z"/></symbol><symbol id="ag"><path d="M.602.6A.211.211 0 0 1 .435.529C.403.574.352.6.283.6.221.6.171.576.142.535v.053H0V0h.154v.354c0 .065.031.101.088.101C.296.455.33.42.33.354V0h.155v.354c0 .064.032.101.09.101C.628.455.66.419.66.354V0h.155v.381C.815.516.727.6.602.6z"/></symbol><symbol id="ah"><path d="M.461.553a.238.238 0 0 1-.164.059A.295.295 0 0 1 0 .306C0 .129.129 0 .297 0a.23.23 0 0 1 .172.068V.012h.147v.7H.461V.553M.314.146a.156.156 0 0 0-.158.163c0 .094.069.162.158.162A.156.156 0 0 0 .473.309.156.156 0 0 0 .314.146z"/></symbol><use xlink:href="#ad" transform="matrix(12 0 0 -12 113.77 287.978)" fill="#f05622"/><use xlink:href="#ae" transform="matrix(12 0 0 -12 122.938 287.978)" fill="#f05622"/><use xlink:href="#af" transform="matrix(12 0 0 -12 131.326 287.978)" fill="#f05622"/><use xlink:href="#m" transform="matrix(12 0 0 -12 138.826 287.834)" fill="#f05622"/><use xlink:href="#ag" transform="matrix(12 0 0 -12 143.554 287.834)" fill="#f05622"/><use xlink:href="#c" transform="matrix(12 0 0 -12 154.282 287.978)" fill="#f05622"/><use xlink:href="#b" transform="matrix(12 0 0 -12 163.03 287.834)" fill="#f05622"/><use xlink:href="#ah" transform="matrix(12 0 0 -12 170.122 287.978)" fill="#f05622"/><use xlink:href="#f" transform="matrix(12 0 0 -12 178.762 287.834)" fill="#f05622"/><use xlink:href="#i" transform="matrix(12 0 0 -12 181.798 287.978)" fill="#f05622"/><use xlink:href="#p" transform="matrix(12 0 0 -12 187.654 287.978)" fill="#f05622"/><use xlink:href="#i" transform="matrix(12 0 0 -12 195.633 287.978)" fill="#f05622"/></g><g data-name="P"><symbol id="ai"><path d="M.254.7H0V0h.093v.265h.161a.218.218 0 1 1 0 .435m0-.348H.093v.261h.161C.324.613.38.555.38.483A.129.129 0 0 0 .254.352z"/></symbol><symbol id="aj"><path d="m.119.083.256.359V.5H.01V.417h.245L0 .058V0h.385v.083H.119z"/></symbol><use xlink:href="#ai" transform="matrix(9 0 0 -9 114.06 304.503)" fill="#252120"/><use xlink:href="#x" transform="matrix(9 0 0 -9 118.696 304.62)" fill="#252120"/><use xlink:href="#r" transform="matrix(9 0 0 -9 123.466 304.503)" fill="#252120"/><use xlink:href="#D" transform="matrix(9 0 0 -9 125.986 304.503)" fill="#252120"/><use xlink:href="#v" transform="matrix(9 0 0 -9 128.704 304.503)" fill="#252120"/><use xlink:href="#R" transform="matrix(9 0 0 -9 131.296 304.62)" fill="#252120"/><use xlink:href="#u" transform="matrix(9 0 0 -9 136.993 304.62)" fill="#252120"/><use xlink:href="#v" transform="matrix(9 0 0 -9 141.79 304.503)" fill="#252120"/><use xlink:href="#t" transform="matrix(9 0 0 -9 144.634 306.303)" fill="#252120"/><use xlink:href="#M" transform="matrix(9 0 0 -9 150.33 304.503)" fill="#252120"/><use xlink:href="#aj" transform="matrix(9 0 0 -9 152.059 304.503)" fill="#252120"/><use xlink:href="#aj" transform="matrix(9 0 0 -9 156.118 304.503)" fill="#252120"/><use xlink:href="#x" transform="matrix(9 0 0 -9 160.077 304.62)" fill="#252120"/><use xlink:href="#v" transform="matrix(9 0 0 -9 164.253 304.503)" fill="#252120"/></g><g data-name="P"><symbol id="ak"><path d="M.165 0a.175.175 0 0 0-.083.02.161.161 0 0 0-.06.056A.165.165 0 0 0 0 .162v.016l.002.016h.085L.085.178A.129.129 0 0 1 .084.162c0-.03.009-.053.026-.068A.097.097 0 0 1 .173.072a.074.074 0 0 1 .076.075c0 .02-.005.036-.015.049a.133.133 0 0 1-.037.035.538.538 0 0 1-.048.029A.344.344 0 0 0 .1.292a.159.159 0 0 0-.037.044.142.142 0 0 0-.014.066c0 .028.006.053.018.075.012.023.03.04.054.053.025.013.055.02.09.02A.145.145 0 0 0 .298.526.132.132 0 0 0 .346.465a.21.21 0 0 0 .015-.08H.276c0 .036-.008.06-.023.073a.076.076 0 0 1-.051.02.079.079 0 0 1-.045-.016C.142.452.134.435.134.414A.08.08 0 0 1 .148.365.147.147 0 0 1 .185.332L.234.306A.257.257 0 0 0 .282.275.136.136 0 0 0 .334.16.168.168 0 0 0 .313.074.138.138 0 0 0 .254.019.193.193 0 0 0 .165 0z"/></symbol><symbol id="al"><path d="M.114 0a.12.12 0 0 0-.068.017.096.096 0 0 0-.036.044.163.163 0 0 0-.01.057l.004.041A8.44 8.44 0 0 0 .052.51l.004.028h.082L.134.511A8.724 8.724 0 0 1 .098.254 9.683 9.683 0 0 1 .084.137c0-.023.005-.039.015-.049A.063.063 0 0 1 .144.073c.033 0 .06.016.082.047a.281.281 0 0 1 .043.124L.31.538h.082L.318.012H.254v.077A.185.185 0 0 0 .23.053.154.154 0 0 0 .184.016.14.14 0 0 0 .114 0z"/></symbol><symbol id="am"><path d="M.158 0a.165.165 0 0 0-.089.022.136.136 0 0 0-.052.058A.18.18 0 0 0 0 .158h.082c0-.029.006-.05.019-.064C.114.079.134.072.161.072c.033 0 .058.011.076.033.018.022.03.056.038.102l.011.066A.212.212 0 0 0 .23.21.113.113 0 0 0 .164.19a.114.114 0 0 0-.079.027.155.155 0 0 0-.042.069.29.29 0 0 0-.013.086C.03.42.034.462.041.5.049.538.06.57.073.598a.275.275 0 0 0 .045.069.178.178 0 0 0 .055.04c.02.009.04.013.059.013A.124.124 0 0 0 .299.702C.319.69.334.668.345.635l.017.073h.065L.36.231A.325.325 0 0 0 .293.054.175.175 0 0 0 .158 0M.19.263a.07.07 0 0 1 .05.02.172.172 0 0 1 .037.054.595.595 0 0 1 .04.197.163.163 0 0 1-.019.084.06.06 0 0 1-.055.029.08.08 0 0 1-.056-.021A.17.17 0 0 1 .15.571.602.602 0 0 1 .114.364C.114.297.139.263.19.263z"/></symbol><symbol id="an"><path d="M.17 0a.168.168 0 0 0-.126.046C.014.077 0 .126 0 .191a.774.774 0 0 0 .026.191c.01.031.023.06.04.085A.182.182 0 0 0 .223.55C.276.55.316.535.343.504.371.474.385.426.385.361a.746.746 0 0 0-.008-.11H.088A3.393 3.393 0 0 0 .085.198.17.17 0 0 1 .106.104C.12.084.141.073.17.073c.03 0 .054.012.074.035A.16.16 0 0 1 .281.19h.083A.268.268 0 0 0 .331.096a.198.198 0 0 0-.065-.07A.172.172 0 0 0 .17 0M.098.324h.201L.3.343V.36a.154.154 0 0 1-.02.087.063.063 0 0 1-.057.03.087.087 0 0 1-.061-.023.167.167 0 0 1-.041-.057.387.387 0 0 1-.023-.073z"/></symbol><symbol id="ao"><path d="M.081 0C.051 0 .029.008.017.025A.107.107 0 0 0 0 .085l.004.036.009.073a7.274 7.274 0 0 0 .025.177l.01.066.004.026H.007l.01.073h.045l.036.146h.067L.144.536h.071L.205.463H.134L.13.438a38.48 38.48 0 0 1-.046-.33c0-.025.012-.037.037-.037H.15L.142.014A.14.14 0 0 0 .081 0z"/></symbol><symbol id="ap"><path d="m0 0 .073.526h.082L.081 0H0m.085.628.014.095h.085L.17.628H.085z"/></symbol><symbol id="aq"><path d="M.166 0C.112 0 .071.015.042.045.014.075 0 .123 0 .187a.76.76 0 0 0 .026.19c.01.032.023.061.04.087A.176.176 0 0 0 .223.55C.277.55.318.535.346.504.375.474.389.426.389.361A.784.784 0 0 0 .383.268.548.548 0 0 0 .362.171.336.336 0 0 0 .323.085.177.177 0 0 0 .166 0m0 .073c.025 0 .045.007.061.022.017.015.03.035.04.058.01.024.018.049.023.075A.68.68 0 0 1 .304.36a.154.154 0 0 1-.02.087C.271.467.25.477.223.477A.09.09 0 0 1 .162.455a.157.157 0 0 1-.04-.057.611.611 0 0 1-.037-.2c0-.042.006-.073.019-.094C.117.084.137.073.166.073z"/></symbol><symbol id="ar"><path d="m0 0 .074.526h.064V.448c.005.01.013.022.024.036a.157.157 0 0 0 .045.037c.02.011.043.017.071.017.03 0 .052-.006.068-.017A.09.09 0 0 0 .381.477.15.15 0 0 0 .392.42 14.63 14.63 0 0 0 .34.028L.336 0H.254l.004.027a13.957 13.957 0 0 1 .05.374C.308.424.303.44.292.45.282.46.267.465.248.465.215.465.188.449.166.417A.29.29 0 0 1 .123.294L.082 0H0z"/></symbol><symbol id="as"><path d="M0 0z"/></symbol><symbol id="at"><path d="M.133 0a.118.118 0 0 0-.096.047C.012.078 0 .127 0 .195c0 .08.01.147.03.199.02.053.046.092.077.117A.15.15 0 0 0 .203.55a.115.115 0 0 0 .06-.016A.112.112 0 0 0 .308.48l.036.255h.082L.325.012H.26v.071A.18.18 0 0 0 .201.02.126.126 0 0 0 .133 0m.025.073c.02 0 .038.007.053.022a.17.17 0 0 1 .038.057.558.558 0 0 1 .039.212.157.157 0 0 1-.018.084.06.06 0 0 1-.055.029A.077.077 0 0 1 .16.455.161.161 0 0 1 .122.4.458.458 0 0 1 .087.25.798.798 0 0 1 .084.187C.084.149.09.12.102.101A.063.063 0 0 1 .158.073z"/></symbol><symbol id="au"><path d="m0 0 .074.526h.064V.448a.162.162 0 0 0 .067.073.129.129 0 0 0 .068.017C.307.538.332.529.348.511A.119.119 0 0 0 .377.446C.382.456.389.468.4.482.41.497.425.51.444.521a.13.13 0 0 0 .069.017.104.104 0 0 0 .063-.017.094.094 0 0 0 .033-.044.163.163 0 0 0 .01-.057A14.635 14.635 0 0 0 .567.028L.563 0H.481l.004.027a13.946 13.946 0 0 1 .05.374C.535.424.53.44.521.45a.05.05 0 0 1-.038.015C.453.465.427.45.406.421a.261.261 0 0 1-.04-.114L.323 0H.241l.004.027a13.95 13.95 0 0 1 .05.374C.295.424.29.44.281.45a.05.05 0 0 1-.038.015C.211.465.185.449.164.417A.31.31 0 0 1 .123.294L.082 0H0z"/></symbol><use xlink:href="#ak" transform="matrix(8.5 0 0 -8.5 166.682 304.605)" fill="#252120"/><use xlink:href="#al" transform="matrix(8.5 0 0 -8.5 170.345 304.605)" fill="#252120"/><use xlink:href="#am" transform="matrix(8.5 0 0 -8.5 173.924 306.05)" fill="#252120"/><use xlink:href="#am" transform="matrix(8.5 0 0 -8.5 177.8 306.05)" fill="#252120"/><use xlink:href="#an" transform="matrix(8.5 0 0 -8.5 181.914 304.605)" fill="#252120"/><use xlink:href="#ak" transform="matrix(8.5 0 0 -8.5 185.67 304.605)" fill="#252120"/><use xlink:href="#ao" transform="matrix(8.5 0 0 -8.5 189.266 304.588)" fill="#252120"/><use xlink:href="#ap" transform="matrix(8.5 0 0 -8.5 191.238 304.503)" fill="#252120"/><use xlink:href="#aq" transform="matrix(8.5 0 0 -8.5 193.134 304.605)" fill="#252120"/><use xlink:href="#ar" transform="matrix(8.5 0 0 -8.5 196.916 304.503)" fill="#252120"/><use xlink:href="#as" transform="matrix(8.5 0 0 -8.5 200.605 304.503)" fill="#252120"/><use xlink:href="#at" transform="matrix(8.5 0 0 -8.5 202.832 304.605)" fill="#252120"/><use xlink:href="#al" transform="matrix(8.5 0 0 -8.5 206.776 304.605)" fill="#252120"/><use xlink:href="#as" transform="matrix(8.5 0 0 -8.5 210.295 304.503)" fill="#252120"/><use xlink:href="#au" transform="matrix(8.5 0 0 -8.5 212.42 304.503)" fill="#252120"/><use xlink:href="#aq" transform="matrix(8.5 0 0 -8.5 218.32 304.605)" fill="#252120"/><use xlink:href="#au" transform="matrix(8.5 0 0 -8.5 222.102 304.503)" fill="#252120"/><use xlink:href="#an" transform="matrix(8.5 0 0 -8.5 228.018 304.605)" fill="#252120"/><use xlink:href="#ar" transform="matrix(8.5 0 0 -8.5 231.783 304.503)" fill="#252120"/><use xlink:href="#ao" transform="matrix(8.5 0 0 -8.5 235.761 304.588)" fill="#252120"/></g><g data-name="P"><symbol id="av"><path d="M.545.233h-.08v.182H.349V.233H.124L.366.7H.241L0 .233V.126h.349V0h.116v.126h.08v.107z"/></symbol><use xlink:href="#av" transform="matrix(8.25 0 0 -8.25 242.1 304.503)" fill="#252120"/><use xlink:href="#G" transform="matrix(8.25 0 0 -8.25 246.694 304.503)" fill="#252120"/></g><use xlink:href="#H" transform="matrix(7 0 0 -7 247.83 304.594)" fill="#252120" data-name="P"/><g data-name="P"><symbol id="aw"><path d="M.39.7V.404H.093V.7H0V0h.093v.316H.39V0h.093v.7H.39z"/></symbol><symbol id="ax"><path d="M.372.5.232.099.092.5H0L.183 0h.098l.184.5H.372z"/></symbol><use xlink:href="#aw" transform="matrix(9 0 0 -9 114.06 316.92)" fill="#252120"/><use xlink:href="#A" transform="matrix(9 0 0 -9 119.425 317.038)" fill="#252120"/><use xlink:href="#D" transform="matrix(9 0 0 -9 124.573 316.92)" fill="#252120"/><use xlink:href="#v" transform="matrix(9 0 0 -9 127.29 316.92)" fill="#252120"/><use xlink:href="#R" transform="matrix(9 0 0 -9 129.883 317.038)" fill="#252120"/><use xlink:href="#A" transform="matrix(9 0 0 -9 135.58 317.038)" fill="#252120"/><use xlink:href="#J" transform="matrix(9 0 0 -9 140.998 318.838)" fill="#252120"/><use xlink:href="#v" transform="matrix(9 0 0 -9 146.344 316.92)" fill="#252120"/><use xlink:href="#R" transform="matrix(9 0 0 -9 148.936 317.038)" fill="#252120"/><use xlink:href="#u" transform="matrix(9 0 0 -9 154.633 317.038)" fill="#252120"/><use xlink:href="#v" transform="matrix(9 0 0 -9 159.43 316.92)" fill="#252120"/><use xlink:href="#ax" transform="matrix(9 0 0 -9 161.752 316.92)" fill="#252120"/><use xlink:href="#A" transform="matrix(9 0 0 -9 166.27 317.038)" fill="#252120"/><use xlink:href="#E" transform="matrix(9 0 0 -9 171.94 316.92)" fill="#252120"/><use xlink:href="#x" transform="matrix(9 0 0 -9 173.668 317.038)" fill="#252120"/><use xlink:href="#M" transform="matrix(9 0 0 -9 178.438 316.92)" fill="#252120"/><use xlink:href="#E" transform="matrix(9 0 0 -9 180.418 316.92)" fill="#252120"/><use xlink:href="#E" transform="matrix(9 0 0 -9 182.398 316.92)" fill="#252120"/><use xlink:href="#u" transform="matrix(9 0 0 -9 184.126 317.038)" fill="#252120"/><use xlink:href="#C" transform="matrix(9 0 0 -9 189.354 318.118)" fill="#252120"/><use xlink:href="#v" transform="matrix(9 0 0 -9 190.929 316.92)" fill="#252120"/><use xlink:href="#A" transform="matrix(9 0 0 -9 193.52 317.038)" fill="#252120"/><use xlink:href="#M" transform="matrix(9 0 0 -9 199.19 316.92)" fill="#252120"/><use xlink:href="#J" transform="matrix(9 0 0 -9 200.919 318.838)" fill="#252120"/><use xlink:href="#B" transform="matrix(9 0 0 -9 206.859 316.92)" fill="#252120"/><use xlink:href="#A" transform="matrix(9 0 0 -9 211.314 317.038)" fill="#252120"/><use xlink:href="#B" transform="matrix(9 0 0 -9 216.984 316.92)" fill="#252120"/><use xlink:href="#v" transform="matrix(9 0 0 -9 221.097 316.92)" fill="#252120"/><use xlink:href="#N" transform="matrix(9 0 0 -9 223.482 316.92)" fill="#252120"/><use xlink:href="#r" transform="matrix(9 0 0 -9 226.767 316.92)" fill="#252120"/><use xlink:href="#M" transform="matrix(9 0 0 -9 229.665 316.92)" fill="#252120"/><use xlink:href="#D" transform="matrix(9 0 0 -9 231.222 316.92)" fill="#252120"/><use xlink:href="#L" transform="matrix(9 0 0 -9 234.245 317.038)" fill="#252120"/><use xlink:href="#C" transform="matrix(9 0 0 -9 238.574 318.118)" fill="#252120"/><use xlink:href="#v" transform="matrix(9 0 0 -9 240.149 316.92)" fill="#252120"/><use xlink:href="#aa" transform="matrix(9 0 0 -9 242.741 317.038)" fill="#252120"/><use xlink:href="#A" transform="matrix(9 0 0 -9 247.88 317.038)" fill="#252120"/><use xlink:href="#B" transform="matrix(9 0 0 -9 253.55 316.92)" fill="#252120"/><use xlink:href="#R" transform="matrix(9 0 0 -9 258.005 317.038)" fill="#252120"/><use xlink:href="#M" transform="matrix(9 0 0 -9 263.954 316.92)" fill="#252120"/><use xlink:href="#y" transform="matrix(9 0 0 -9 265.934 316.92)" fill="#252120"/><use xlink:href="#u" transform="matrix(9 0 0 -9 272.594 317.038)" fill="#252120"/><use xlink:href="#B" transform="matrix(9 0 0 -9 277.985 316.92)" fill="#252120"/><use xlink:href="#D" transform="matrix(9 0 0 -9 282.269 316.92)" fill="#252120"/><use xlink:href="#L" transform="matrix(9 0 0 -9 285.293 317.038)" fill="#252120"/><use xlink:href="#v" transform="matrix(9 0 0 -9 289.11 316.92)" fill="#252120"/></g><g data-name="P"><use xlink:href="#Q" transform="matrix(8.25 0 0 -8.25 293.815 317.028)" fill="#252120"/><use xlink:href="#G" transform="matrix(8.25 0 0 -8.25 298.105 316.92)" fill="#252120"/></g><g data-name="P"><use xlink:href="#H" transform="matrix(7 0 0 -7 299.242 317.012)" fill="#252120"/><use xlink:href="#G" transform="matrix(7 0 0 -7 303.596 316.92)" fill="#252120"/></g><g data-name="Artifact"><clipPath id="ay"><path transform="matrix(1 0 0 -1 0 796.535)" d="M0 0h498.898v796.535H0z"/></clipPath><g clip-path="url(#ay)"><path d="M312.156 311.674c-.653 0-1.23.327-1.574.827a1.913 1.913 0 0 0-3.486 1.086c0 1.864 3.486 3.801 3.486 3.801s3.487-1.937 3.487-3.8a1.913 1.913 0 0 0-1.913-1.914" fill="#f05622"/></g><symbol id="az"><path d="M.442.7V.615a.219.219 0 0 1-.189.098A.258.258 0 0 1 0 .45C0 .302.115.187.253.187c.084 0 .149.038.189.098V0h.087v.7H.442M.264.271c-.1 0-.177.077-.177.179s.077.179.177.179A.175.175 0 0 0 .442.45.175.175 0 0 0 .264.271z"/></symbol><symbol id="aA"><path d="M.235.513A.164.164 0 0 1 .087.438V.7H0V0h.087v.285C.087.392.15.43.212.43.272.43.316.393.316.321V0h.087v.325c0 .117-.075.188-.168.188z"/></symbol><use xlink:href="#q" transform="matrix(9 0 0 -9 113.728 329.455)" fill="#252120"/><use xlink:href="#r" transform="matrix(9 0 0 -9 120.829 329.338)" fill="#252120"/><use xlink:href="#A" transform="matrix(9 0 0 -9 123.24 329.455)" fill="#252120"/><use xlink:href="#az" transform="matrix(9 0 0 -9 128.659 331.138)" fill="#252120"/><use xlink:href="#K" transform="matrix(9 0 0 -9 134.5 329.455)" fill="#252120"/><use xlink:href="#u" transform="matrix(9 0 0 -9 139.063 329.455)" fill="#252120"/><use xlink:href="#v" transform="matrix(9 0 0 -9 143.86 329.338)" fill="#252120"/><use xlink:href="#y" transform="matrix(9 0 0 -9 146.704 329.338)" fill="#252120"/><use xlink:href="#A" transform="matrix(9 0 0 -9 153.364 329.455)" fill="#252120"/><use xlink:href="#B" transform="matrix(9 0 0 -9 159.034 329.338)" fill="#252120"/><use xlink:href="#L" transform="matrix(9 0 0 -9 163.534 329.455)" fill="#252120"/><use xlink:href="#M" transform="matrix(9 0 0 -9 167.944 329.338)" fill="#252120"/><use xlink:href="#u" transform="matrix(9 0 0 -9 169.672 329.455)" fill="#252120"/><use xlink:href="#K" transform="matrix(9 0 0 -9 174.955 329.455)" fill="#252120"/><use xlink:href="#r" transform="matrix(9 0 0 -9 179.77 329.338)" fill="#252120"/><use xlink:href="#C" transform="matrix(9 0 0 -9 182.046 330.535)" fill="#252120"/><use xlink:href="#v" transform="matrix(9 0 0 -9 183.62 329.338)" fill="#252120"/><use xlink:href="#w" transform="matrix(9 0 0 -9 185.709 331.336)" fill="#252120"/><use xlink:href="#x" transform="matrix(9 0 0 -9 188.382 329.455)" fill="#252120"/><use xlink:href="#y" transform="matrix(9 0 0 -9 193.152 329.338)" fill="#252120"/><use xlink:href="#z" transform="matrix(9 0 0 -9 200.064 329.455)" fill="#252120"/><use xlink:href="#A" transform="matrix(9 0 0 -9 205.509 329.455)" fill="#252120"/><use xlink:href="#B" transform="matrix(9 0 0 -9 211.179 329.338)" fill="#252120"/><use xlink:href="#C" transform="matrix(9 0 0 -9 215.904 330.535)" fill="#252120"/><use xlink:href="#v" transform="matrix(9 0 0 -9 217.479 329.338)" fill="#252120"/><use xlink:href="#L" transform="matrix(9 0 0 -9 220.116 329.455)" fill="#252120"/><use xlink:href="#x" transform="matrix(9 0 0 -9 224.175 329.455)" fill="#252120"/><use xlink:href="#K" transform="matrix(9 0 0 -9 228.837 329.455)" fill="#252120"/><use xlink:href="#aa" transform="matrix(9 0 0 -9 233.4 329.455)" fill="#252120"/><use xlink:href="#u" transform="matrix(9 0 0 -9 238.539 329.455)" fill="#252120"/><use xlink:href="#v" transform="matrix(9 0 0 -9 243.336 329.338)" fill="#252120"/><use xlink:href="#aa" transform="matrix(9 0 0 -9 245.928 329.455)" fill="#252120"/><use xlink:href="#aA" transform="matrix(9 0 0 -9 251.319 329.338)" fill="#252120"/><use xlink:href="#u" transform="matrix(9 0 0 -9 255.774 329.455)" fill="#252120"/><use xlink:href="#R" transform="matrix(9 0 0 -9 260.913 329.455)" fill="#252120"/><use xlink:href="#R" transform="matrix(9 0 0 -9 266.61 329.455)" fill="#252120"/><use xlink:href="#x" transform="matrix(9 0 0 -9 272.307 329.455)" fill="#252120"/><use xlink:href="#r" transform="matrix(9 0 0 -9 277.077 329.338)" fill="#252120"/><use xlink:href="#v" transform="matrix(9 0 0 -9 279.381 329.338)" fill="#252120"/></g><g data-name="P"><use xlink:href="#F" transform="matrix(8.25 0 0 -8.25 284.153 329.445)" fill="#252120"/><use xlink:href="#G" transform="matrix(8.25 0 0 -8.25 288.46 329.338)" fill="#252120"/></g><use xlink:href="#H" transform="matrix(7 0 0 -7 289.595 329.43)" fill="#252120" data-name="P"/><g data-name="P"><symbol id="aB"><path d="M.185.7H.089L0 .565h.093l.044.069.044-.069h.092L.185.7M.093 0H.18v.5H.093V0z"/></symbol><use xlink:href="#q" transform="matrix(9 0 0 -9 113.728 341.872)" fill="#252120"/><use xlink:href="#A" transform="matrix(9 0 0 -9 120.532 341.872)" fill="#252120"/><use xlink:href="#r" transform="matrix(9 0 0 -9 126.202 341.755)" fill="#252120"/><use xlink:href="#B" transform="matrix(9 0 0 -9 129.1 341.755)" fill="#252120"/><use xlink:href="#u" transform="matrix(9 0 0 -9 133.555 341.872)" fill="#252120"/><use xlink:href="#D" transform="matrix(9 0 0 -9 138.478 341.755)" fill="#252120"/><use xlink:href="#v" transform="matrix(9 0 0 -9 141.196 341.755)" fill="#252120"/><use xlink:href="#N" transform="matrix(9 0 0 -9 143.58 341.755)" fill="#252120"/><use xlink:href="#r" transform="matrix(9 0 0 -9 146.866 341.755)" fill="#252120"/><use xlink:href="#M" transform="matrix(9 0 0 -9 149.764 341.755)" fill="#252120"/><use xlink:href="#D" transform="matrix(9 0 0 -9 151.32 341.755)" fill="#252120"/><use xlink:href="#u" transform="matrix(9 0 0 -9 154.219 341.872)" fill="#252120"/><use xlink:href="#L" transform="matrix(9 0 0 -9 159.403 341.872)" fill="#252120"/><use xlink:href="#v" transform="matrix(9 0 0 -9 163.219 341.755)" fill="#252120"/><use xlink:href="#N" transform="matrix(9 0 0 -9 165.604 341.755)" fill="#252120"/><use xlink:href="#r" transform="matrix(9 0 0 -9 168.889 341.755)" fill="#252120"/><use xlink:href="#x" transform="matrix(9 0 0 -9 171.436 341.872)" fill="#252120"/><use xlink:href="#aB" transform="matrix(9 0 0 -9 175.369 341.755)" fill="#252120"/><use xlink:href="#aa" transform="matrix(9 0 0 -9 177.934 341.872)" fill="#252120"/><use xlink:href="#aA" transform="matrix(9 0 0 -9 183.325 341.755)" fill="#252120"/><use xlink:href="#u" transform="matrix(9 0 0 -9 187.78 341.872)" fill="#252120"/><use xlink:href="#L" transform="matrix(9 0 0 -9 192.964 341.872)" fill="#252120"/><use xlink:href="#v" transform="matrix(9 0 0 -9 196.78 341.755)" fill="#252120"/><use xlink:href="#r" transform="matrix(9 0 0 -9 199.624 341.755)" fill="#252120"/><use xlink:href="#K" transform="matrix(9 0 0 -9 202.414 341.872)" fill="#252120"/><use xlink:href="#L" transform="matrix(9 0 0 -9 207.022 341.872)" fill="#252120"/><use xlink:href="#D" transform="matrix(9 0 0 -9 210.909 341.755)" fill="#252120"/><use xlink:href="#M" transform="matrix(9 0 0 -9 214.22 341.755)" fill="#252120"/><use xlink:href="#az" transform="matrix(9 0 0 -9 215.949 343.555)" fill="#252120"/><use xlink:href="#K" transform="matrix(9 0 0 -9 221.79 341.872)" fill="#252120"/><use xlink:href="#u" transform="matrix(9 0 0 -9 226.353 341.872)" fill="#252120"/><use xlink:href="#L" transform="matrix(9 0 0 -9 231.537 341.872)" fill="#252120"/><use xlink:href="#v" transform="matrix(9 0 0 -9 235.353 341.755)" fill="#252120"/></g><g data-name="P"><use xlink:href="#Q" transform="matrix(8.25 0 0 -8.25 240.06 341.863)" fill="#252120"/><use xlink:href="#G" transform="matrix(8.25 0 0 -8.25 244.35 341.755)" fill="#252120"/></g><use xlink:href="#H" transform="matrix(7 0 0 -7 245.485 341.846)" fill="#252120" data-name="P"/><g data-name="P"><symbol id="aC"><path d="M.369 0v.141H.156V.7H0V.151C0 .04.037 0 .147 0h.222z"/></symbol><use xlink:href="#aC" transform="matrix(12 0 0 -12 114.166 371.746)" fill="#f05622"/><use xlink:href="#p" transform="matrix(12 0 0 -12 118.846 371.89)" fill="#f05622"/><use xlink:href="#i" transform="matrix(12 0 0 -12 126.826 371.89)" fill="#f05622"/><use xlink:href="#h" transform="matrix(12 0 0 -12 132.346 371.746)" fill="#f05622"/><use xlink:href="#i" transform="matrix(12 0 0 -12 135.502 371.89)" fill="#f05622"/><use xlink:href="#c" transform="matrix(12 0 0 -12 141.358 371.89)" fill="#f05622"/><use xlink:href="#j" transform="matrix(12 0 0 -12 150.106 371.746)" fill="#f05622"/><use xlink:href="#c" transform="matrix(12 0 0 -12 152.986 371.89)" fill="#f05622"/><use xlink:href="#ah" transform="matrix(12 0 0 -12 161.386 371.89)" fill="#f05622"/><use xlink:href="#p" transform="matrix(12 0 0 -12 169.786 371.89)" fill="#f05622"/><use xlink:href="#i" transform="matrix(12 0 0 -12 177.766 371.89)" fill="#f05622"/></g><g data-name="P"><symbol id="aD"><path d="M.249 0c.122 0 .23.072.23.195C.479.33.355.368.25.408.173.437.11.465.11.536c0 .063.054.1.124.1.078 0 .132-.041.132-.119h.093c0 .137-.106.209-.225.209C.123.726.018.658.018.536c0-.14.119-.178.223-.216C.318.291.386.262.386.195.386.131.329.091.249.091.155.091.093.135.093.22H0C0 .076.114 0 .249 0z"/></symbol><symbol id="aE"><path d="M.465.7H0V.612h.186V0h.092v.612h.187V.7z"/></symbol><symbol id="aF"><path d="M0 .574h.093v.092H0V.574m.151 0h.092v.092H.151V.574M.078 0h.087v.5H.078V0z"/></symbol><use xlink:href="#aD" transform="matrix(9 0 0 -9 113.7 388.532)" fill="#252120"/><use xlink:href="#x" transform="matrix(9 0 0 -9 118.669 388.532)" fill="#252120"/><use xlink:href="#E" transform="matrix(9 0 0 -9 123.439 388.415)" fill="#252120"/><use xlink:href="#x" transform="matrix(9 0 0 -9 125.167 388.532)" fill="#252120"/><use xlink:href="#R" transform="matrix(9 0 0 -9 129.685 388.532)" fill="#252120"/><use xlink:href="#u" transform="matrix(9 0 0 -9 135.382 388.532)" fill="#252120"/><use xlink:href="#v" transform="matrix(9 0 0 -9 140.179 388.415)" fill="#252120"/><use xlink:href="#aE" transform="matrix(9 0 0 -9 142.59 388.415)" fill="#252120"/><use xlink:href="#aA" transform="matrix(9 0 0 -9 147.253 388.415)" fill="#252120"/><use xlink:href="#x" transform="matrix(9 0 0 -9 151.708 388.532)" fill="#252120"/><use xlink:href="#aF" transform="matrix(9 0 0 -9 155.776 388.415)" fill="#252120"/><use xlink:href="#v" transform="matrix(9 0 0 -9 157.864 388.415)" fill="#252120"/></g><g data-name="P" fill="#655841"><use xlink:href="#t" transform="matrix(7.5 0 0 -7.5 162.858 389.915)"/><use xlink:href="#u" transform="matrix(7.5 0 0 -7.5 167.396 388.513)"/><use xlink:href="#D" transform="matrix(7.5 0 0 -7.5 171.498 388.415)"/><use xlink:href="#M" transform="matrix(7.5 0 0 -7.5 174.258 388.415)"/><use xlink:href="#D" transform="matrix(7.5 0 0 -7.5 175.556 388.415)"/><use xlink:href="#u" transform="matrix(7.5 0 0 -7.5 177.97 388.513)"/><use xlink:href="#v" transform="matrix(7.5 0 0 -7.5 181.968 388.415)"/></g><g data-name="P"><use xlink:href="#ac" transform="matrix(8.25 0 0 -8.25 183.967 388.415)" fill="#252120"/><use xlink:href="#G" transform="matrix(8.25 0 0 -8.25 187.886 388.415)" fill="#252120"/></g><use xlink:href="#H" transform="matrix(7 0 0 -7 188.335 388.506)" fill="#252120" data-name="P"/><g data-name="P"><symbol id="aG"><path d="M.264 0c.147 0 .264.115.264.263a.26.26 0 0 1-.264.263A.261.261 0 0 1 0 .263C0 .115.118 0 .264 0m0 .105a.154.154 0 0 0-.156.158c0 .091.068.158.156.158A.154.154 0 0 0 .42.263.154.154 0 0 0 .264.105z"/></symbol><symbol id="aH"><path d="M.307.513V.226C.307.135.256.101.199.101.147.101.108.133.108.198v.315H0V.191C0 .071.072 0 .165 0c.061 0 .11.021.142.07V.013h.108v.5H.307z"/></symbol><use xlink:href="#aG" transform="matrix(7 0 0 -7 195.184 388.506)" fill="#252120"/><use xlink:href="#aH" transform="matrix(7 0 0 -7 199.482 388.506)" fill="#252120"/></g><g data-name="P" fill="#655841"><use xlink:href="#J" transform="matrix(7.5 0 0 -7.5 205.356 390.013)"/><use xlink:href="#r" transform="matrix(7.5 0 0 -7.5 210.305 388.415)"/><use xlink:href="#x" transform="matrix(7.5 0 0 -7.5 212.428 388.513)"/><use xlink:href="#B" transform="matrix(7.5 0 0 -7.5 216.403 388.415)"/><use xlink:href="#R" transform="matrix(7.5 0 0 -7.5 220.115 388.513)"/><use xlink:href="#u" transform="matrix(7.5 0 0 -7.5 224.863 388.513)"/><use xlink:href="#v" transform="matrix(7.5 0 0 -7.5 228.86 388.415)"/></g><g data-name="P"><symbol id="aI"><path d="M.167.7 0 .609V.491l.167.091V0h.115v.7H.167z"/></symbol><symbol id="aJ"><path d="M0 0h.461v.111h-.29l.16.158C.395.333.448.41.448.493c0 .149-.111.22-.222.22C.112.713 0 .645 0 .491h.115c0 .077.048.11.113.11.059 0 .105-.037.105-.108C.333.439.292.384.243.334L0 .09V0z"/></symbol><use xlink:href="#aI" transform="matrix(8.25 0 0 -8.25 230.843 388.415)" fill="#252120"/><use xlink:href="#aJ" transform="matrix(8.25 0 0 -8.25 234.077 388.415)" fill="#252120"/><use xlink:href="#G" transform="matrix(8.25 0 0 -8.25 238.169 388.415)" fill="#252120"/></g><g data-name="P"><use xlink:href="#H" transform="matrix(7 0 0 -7 238.617 388.506)" fill="#252120"/><use xlink:href="#G" transform="matrix(7 0 0 -7 242.971 388.415)" fill="#252120"/></g><g data-name="Artifact"><clipPath id="aK"><path transform="matrix(1 0 0 -1 0 796.535)" d="M0 0h498.898v796.535H0z"/></clipPath><g clip-path="url(#aK)"><path d="M252.033 385.439a2.28 2.28 0 0 1-1.085 2.159 3.042 3.042 0 0 1-3.06.094l-.005-.003c.469-2.011 1.844-2.915 1.918-2.962h-.001a.379.379 0 0 0-.111-.685.37.37 0 0 0-.281.046 5.656 5.656 0 0 0-2.181 3.157c-.494-.463-1.034-1.337-.592-2.793.34-1.125 1.395-2.06 2.685-2.38a3.99 3.99 0 0 1 3.587.855c-.436.345-.968 1.066-.874 2.512z" fill="#51ba69"/></g><path d="M248.148 389.365a.392.392 0 0 1-.39-.378c-.01-.305.006-.613.05-.915.053-.371.147-.738.278-1.09a.392.392 0 0 1 .733.274 4.444 4.444 0 0 0-.28 1.705.391.391 0 0 1-.378.404h-.013" fill="#51ba69" data-name="Artifact"/></g><g data-name="Artifact"><clipPath id="aL"><path transform="matrix(1 0 0 -1 0 796.535)" d="M0 0h498.898v796.535H0z"/></clipPath><g clip-path="url(#aL)"><path d="M261.467 383.169c-.653 0-1.229.327-1.574.827a1.913 1.913 0 0 0-3.486 1.086c0 1.864 3.486 3.8 3.486 3.8s3.487-1.936 3.487-3.8a1.913 1.913 0 0 0-1.913-1.913" fill="#f05622"/></g></g><g data-name="P"><symbol id="aM"><path d="m0 0 .097.686h.072L.364.255A.546.546 0 0 0 .39.18L.396.163l.003.001.002.018a2.025 2.025 0 0 1 .008.073L.47.686h.079L.452 0H.383L.186.437a2.385 2.385 0 0 0-.028.075L.153.529.15.528.148.511A1.242 1.242 0 0 0 .141.437L.079 0H0z"/></symbol><symbol id="aN"><path d="m0 0 .1.723h.082L.081 0H0z"/></symbol><symbol id="aO"><path d="M.161 0a.156.156 0 0 0-.118.046C.014.077 0 .126 0 .191 0 .23.003.27.009.312A.494.494 0 0 0 .04.429a.22.22 0 0 0 .064.087.159.159 0 0 0 .105.034C.259.55.296.535.321.504.346.474.359.426.359.361V.343H.274V.36a.185.185 0 0 1-.016.087.052.052 0 0 1-.049.03.076.076 0 0 1-.056-.023.177.177 0 0 1-.036-.059.46.46 0 0 1-.02-.075.841.841 0 0 1-.012-.122c0-.04.006-.07.019-.092A.06.06 0 0 1 .159.073c.019 0 .035.006.049.018A.134.134 0 0 1 .243.14c.01.02.015.041.018.064h.082a.303.303 0 0 0-.029-.1.21.21 0 0 0-.061-.076A.15.15 0 0 0 .161 0z"/></symbol><symbol id="aP"><path d="m0 0 .101.723h.082L.147.465c.01.015.025.031.046.048.021.017.05.025.084.025.03 0 .052-.006.068-.017A.09.09 0 0 0 .38.477.15.15 0 0 0 .391.42 14.63 14.63 0 0 0 .339.028L.335 0H.253l.004.027a13.952 13.952 0 0 1 .05.374C.307.424.302.44.291.45.281.46.266.465.247.465.214.465.187.449.165.417A.29.29 0 0 1 .122.294L.081 0H0z"/></symbol><symbol id="aQ"><path d="m0 0 .051.124H.018l.015.108h.1L.119.133.055 0H0z"/></symbol><symbol id="aR"><path d="M.133 0a.118.118 0 0 0-.096.047C.012.078 0 .127 0 .195c0 .08.01.147.03.199.02.053.046.092.077.117A.15.15 0 0 0 .203.55.12.12 0 0 0 .268.532C.288.52.302.498.312.465L.33.538h.065L.391.515A57.258 57.258 0 0 0 .334.101c0-.01.002-.017.007-.022A.025.025 0 0 1 .358.073H.39L.382.016A.087.087 0 0 0 .36.006.086.086 0 0 0 .326 0a.071.071 0 0 0-.051.019C.262.032.255.054.254.083A.223.223 0 0 0 .197.02.11.11 0 0 0 .133 0m.025.073c.02 0 .036.007.05.022a.176.176 0 0 1 .035.057.699.699 0 0 1 .041.212.165.165 0 0 1-.017.084.056.056 0 0 1-.052.029A.077.077 0 0 1 .16.455.161.161 0 0 1 .122.4.458.458 0 0 1 .087.25.798.798 0 0 1 .084.187C.084.149.09.12.102.101A.063.063 0 0 1 .158.073z"/></symbol><symbol id="aS"><path d="m0 0 .074.526h.064V.442L.16.484c.009.015.02.028.033.038.013.01.03.016.05.016.011 0 .02-.001.027-.004L.281.53.269.445H.242C.216.445.192.433.169.409A.184.184 0 0 1 .125.304L.082 0H0z"/></symbol><symbol id="aT"><path d="m0 0 .013.098h.252L.252 0H0z"/></symbol><symbol id="aU"><path d="M.133 0a.118.118 0 0 0-.096.047C.012.078 0 .127 0 .195c0 .08.01.147.03.199.02.053.046.092.077.117A.15.15 0 0 0 .203.55.12.12 0 0 0 .268.532C.288.52.302.498.312.465L.33.538h.065L.391.515A57.258 57.258 0 0 0 .334.101c0-.01.002-.017.007-.022A.025.025 0 0 1 .358.073H.39L.382.016A.087.087 0 0 0 .36.006.086.086 0 0 0 .326 0a.071.071 0 0 0-.051.019C.262.032.255.054.254.083A.223.223 0 0 0 .197.02.11.11 0 0 0 .133 0m.025.073c.02 0 .036.007.05.022a.176.176 0 0 1 .035.057.699.699 0 0 1 .041.212.165.165 0 0 1-.017.084.056.056 0 0 1-.052.029A.077.077 0 0 1 .16.455.161.161 0 0 1 .122.4.458.458 0 0 1 .087.25.798.798 0 0 1 .084.187C.084.149.09.12.102.101A.063.063 0 0 1 .158.073M.116.599.22.734h.078L.365.599H.287L.254.678.198.599H.116z"/></symbol><symbol id="aV"><path d="M.17 0a.168.168 0 0 0-.126.046C.014.077 0 .126 0 .191a.774.774 0 0 0 .026.191c.01.031.023.06.04.085A.182.182 0 0 0 .223.55C.276.55.316.535.343.504.371.474.385.426.385.361a.746.746 0 0 0-.008-.11H.088A3.393 3.393 0 0 0 .085.198.17.17 0 0 1 .106.104C.12.084.141.073.17.073c.03 0 .054.012.074.035A.16.16 0 0 1 .281.19h.083A.268.268 0 0 0 .331.096a.198.198 0 0 0-.065-.07A.172.172 0 0 0 .17 0M.098.324h.201L.3.343V.36a.154.154 0 0 1-.02.087.063.063 0 0 1-.057.03.087.087 0 0 1-.061-.023.167.167 0 0 1-.041-.057.387.387 0 0 1-.023-.073m.126.279-.09.129.001.003h.09L.293.603H.224z"/></symbol><use xlink:href="#aM" transform="matrix(8.5 0 0 -8.5 113.666 399.415)" fill="#252120"/><use xlink:href="#aq" transform="matrix(8.5 0 0 -8.5 118.698 399.517)" fill="#252120"/><use xlink:href="#al" transform="matrix(8.5 0 0 -8.5 122.65 399.517)" fill="#252120"/><use xlink:href="#ap" transform="matrix(8.5 0 0 -8.5 126.493 399.415)" fill="#252120"/><use xlink:href="#aN" transform="matrix(8.5 0 0 -8.5 128.244 399.415)" fill="#252120"/><use xlink:href="#aN" transform="matrix(8.5 0 0 -8.5 129.79 399.415)" fill="#252120"/><use xlink:href="#an" transform="matrix(8.5 0 0 -8.5 131.5 399.517)" fill="#252120"/><use xlink:href="#ak" transform="matrix(8.5 0 0 -8.5 135.256 399.517)" fill="#252120"/><use xlink:href="#as" transform="matrix(8.5 0 0 -8.5 138.563 399.415)" fill="#252120"/><use xlink:href="#aO" transform="matrix(8.5 0 0 -8.5 140.764 399.517)" fill="#252120"/><use xlink:href="#aP" transform="matrix(8.5 0 0 -8.5 144.173 399.415)" fill="#252120"/><use xlink:href="#ap" transform="matrix(8.5 0 0 -8.5 148.185 399.415)" fill="#252120"/><use xlink:href="#ar" transform="matrix(8.5 0 0 -8.5 149.987 399.415)" fill="#252120"/><use xlink:href="#aq" transform="matrix(8.5 0 0 -8.5 153.956 399.517)" fill="#252120"/><use xlink:href="#ap" transform="matrix(8.5 0 0 -8.5 157.875 399.415)" fill="#252120"/><use xlink:href="#ak" transform="matrix(8.5 0 0 -8.5 159.668 399.517)" fill="#252120"/><use xlink:href="#an" transform="matrix(8.5 0 0 -8.5 163.272 399.517)" fill="#252120"/><use xlink:href="#ak" transform="matrix(8.5 0 0 -8.5 167.03 399.517)" fill="#252120"/><use xlink:href="#aQ" transform="matrix(8.5 0 0 -8.5 170.489 400.47)" fill="#252120"/><use xlink:href="#as" transform="matrix(8.5 0 0 -8.5 172.274 399.415)" fill="#252120"/><use xlink:href="#aO" transform="matrix(8.5 0 0 -8.5 174.475 399.517)" fill="#252120"/><use xlink:href="#aR" transform="matrix(8.5 0 0 -8.5 177.977 399.517)" fill="#252120"/><use xlink:href="#aS" transform="matrix(8.5 0 0 -8.5 181.709 399.415)" fill="#252120"/><use xlink:href="#aq" transform="matrix(8.5 0 0 -8.5 184.174 399.517)" fill="#252120"/><use xlink:href="#ao" transform="matrix(8.5 0 0 -8.5 188.058 399.5)" fill="#252120"/><use xlink:href="#ao" transform="matrix(8.5 0 0 -8.5 189.996 399.5)" fill="#252120"/><use xlink:href="#an" transform="matrix(8.5 0 0 -8.5 191.943 399.517)" fill="#252120"/><use xlink:href="#ak" transform="matrix(8.5 0 0 -8.5 195.7 399.517)" fill="#252120"/><use xlink:href="#aQ" transform="matrix(8.5 0 0 -8.5 199.16 400.47)" fill="#252120"/><use xlink:href="#as" transform="matrix(8.5 0 0 -8.5 200.944 399.415)" fill="#252120"/><use xlink:href="#aO" transform="matrix(8.5 0 0 -8.5 203.146 399.517)" fill="#252120"/><use xlink:href="#aq" transform="matrix(8.5 0 0 -8.5 206.648 399.517)" fill="#252120"/><use xlink:href="#al" transform="matrix(8.5 0 0 -8.5 210.6 399.517)" fill="#252120"/><use xlink:href="#aS" transform="matrix(8.5 0 0 -8.5 214.255 399.415)" fill="#252120"/><use xlink:href="#am" transform="matrix(8.5 0 0 -8.5 216.5 400.962)" fill="#252120"/><use xlink:href="#an" transform="matrix(8.5 0 0 -8.5 220.613 399.517)" fill="#252120"/><use xlink:href="#ao" transform="matrix(8.5 0 0 -8.5 224.48 399.5)" fill="#252120"/><use xlink:href="#ao" transform="matrix(8.5 0 0 -8.5 226.419 399.5)" fill="#252120"/><use xlink:href="#an" transform="matrix(8.5 0 0 -8.5 228.365 399.517)" fill="#252120"/><use xlink:href="#ak" transform="matrix(8.5 0 0 -8.5 232.122 399.517)" fill="#252120"/><use xlink:href="#aQ" transform="matrix(8.5 0 0 -8.5 235.582 400.47)" fill="#252120"/><use xlink:href="#as" transform="matrix(8.5 0 0 -8.5 237.367 399.415)" fill="#252120"/><use xlink:href="#aq" transform="matrix(8.5 0 0 -8.5 239.585 399.517)" fill="#252120"/><use xlink:href="#ap" transform="matrix(8.5 0 0 -8.5 243.504 399.415)" fill="#252120"/><use xlink:href="#am" transform="matrix(8.5 0 0 -8.5 245.178 400.962)" fill="#252120"/><use xlink:href="#ar" transform="matrix(8.5 0 0 -8.5 249.182 399.415)" fill="#252120"/><use xlink:href="#aq" transform="matrix(8.5 0 0 -8.5 253.151 399.517)" fill="#252120"/><use xlink:href="#ar" transform="matrix(8.5 0 0 -8.5 256.934 399.415)" fill="#252120"/><use xlink:href="#ak" transform="matrix(8.5 0 0 -8.5 260.801 399.517)" fill="#252120"/><use xlink:href="#as" transform="matrix(8.5 0 0 -8.5 264.108 399.415)" fill="#252120"/><use xlink:href="#aS" transform="matrix(8.5 0 0 -8.5 266.182 399.415)" fill="#252120"/><use xlink:href="#aq" transform="matrix(8.5 0 0 -8.5 268.647 399.517)" fill="#252120"/><use xlink:href="#al" transform="matrix(8.5 0 0 -8.5 272.6 399.517)" fill="#252120"/><use xlink:href="#am" transform="matrix(8.5 0 0 -8.5 276.178 400.962)" fill="#252120"/><use xlink:href="#an" transform="matrix(8.5 0 0 -8.5 280.292 399.517)" fill="#252120"/><use xlink:href="#ak" transform="matrix(8.5 0 0 -8.5 284.049 399.517)" fill="#252120"/><use xlink:href="#aQ" transform="matrix(8.5 0 0 -8.5 287.508 400.47)" fill="#252120"/><use xlink:href="#as" transform="matrix(8.5 0 0 -8.5 289.293 399.415)" fill="#252120"/><use xlink:href="#ak" transform="matrix(8.5 0 0 -8.5 291.41 399.517)" fill="#252120"/><use xlink:href="#aR" transform="matrix(8.5 0 0 -8.5 294.997 399.517)" fill="#252120"/><use xlink:href="#al" transform="matrix(8.5 0 0 -8.5 298.95 399.517)" fill="#252120"/><use xlink:href="#aO" transform="matrix(8.5 0 0 -8.5 302.732 399.517)" fill="#252120"/><use xlink:href="#an" transform="matrix(8.5 0 0 -8.5 306.25 399.517)" fill="#252120"/><use xlink:href="#as" transform="matrix(8.5 0 0 -8.5 309.83 399.415)" fill="#252120"/><use xlink:href="#ar" transform="matrix(8.5 0 0 -8.5 311.954 399.415)" fill="#252120"/><use xlink:href="#al" transform="matrix(8.5 0 0 -8.5 316 399.517)" fill="#252120"/><use xlink:href="#aq" transform="matrix(8.5 0 0 -8.5 319.8 399.517)" fill="#252120"/><use xlink:href="#aO" transform="matrix(8.5 0 0 -8.5 323.659 399.517)" fill="#252120"/><use xlink:href="#aT" transform="matrix(8.5 0 0 -8.5 326.906 397.537)" fill="#252120"/><use xlink:href="#au" transform="matrix(8.5 0 0 -8.5 329.388 399.415)" fill="#252120"/><use xlink:href="#aU" transform="matrix(8.5 0 0 -8.5 335.287 399.517)" fill="#252120"/><use xlink:href="#au" transform="matrix(8.5 0 0 -8.5 339.07 399.415)" fill="#252120"/><use xlink:href="#as" transform="matrix(8.5 0 0 -8.5 344.688 399.415)" fill="#252120"/><use xlink:href="#an" transform="matrix(8.5 0 0 -8.5 346.923 399.517)" fill="#252120"/><use xlink:href="#ao" transform="matrix(8.5 0 0 -8.5 350.79 399.5)" fill="#252120"/><use xlink:href="#as" transform="matrix(8.5 0 0 -8.5 352.44 399.415)" fill="#252120"/><use xlink:href="#aO" transform="matrix(8.5 0 0 -8.5 354.641 399.517)" fill="#252120"/><use xlink:href="#aR" transform="matrix(8.5 0 0 -8.5 358.143 399.517)" fill="#252120"/><use xlink:href="#aO" transform="matrix(8.5 0 0 -8.5 362.002 399.517)" fill="#252120"/><use xlink:href="#aR" transform="matrix(8.5 0 0 -8.5 365.504 399.517)" fill="#252120"/><use xlink:href="#aP" transform="matrix(8.5 0 0 -8.5 369.287 399.415)" fill="#252120"/><use xlink:href="#al" transform="matrix(8.5 0 0 -8.5 373.333 399.517)" fill="#252120"/><use xlink:href="#aV" transform="matrix(8.5 0 0 -8.5 377.15 399.517)" fill="#252120"/><use xlink:href="#ao" transform="matrix(8.5 0 0 -8.5 381.017 399.5)" fill="#252120"/><use xlink:href="#an" transform="matrix(8.5 0 0 -8.5 382.963 399.517)" fill="#252120"/><use xlink:href="#ak" transform="matrix(8.5 0 0 -8.5 386.72 399.517)" fill="#252120"/></g><g data-name="P"><use xlink:href="#aD" transform="matrix(9 0 0 -9 113.7 414.784)" fill="#252120"/><use xlink:href="#x" transform="matrix(9 0 0 -9 118.669 414.784)" fill="#252120"/><use xlink:href="#E" transform="matrix(9 0 0 -9 123.439 414.667)" fill="#252120"/><use xlink:href="#x" transform="matrix(9 0 0 -9 125.167 414.784)" fill="#252120"/><use xlink:href="#R" transform="matrix(9 0 0 -9 129.685 414.784)" fill="#252120"/><use xlink:href="#u" transform="matrix(9 0 0 -9 135.382 414.784)" fill="#252120"/><use xlink:href="#v" transform="matrix(9 0 0 -9 140.179 414.667)" fill="#252120"/><use xlink:href="#T" transform="matrix(9 0 0 -9 142.5 414.667)" fill="#252120"/><use xlink:href="#B" transform="matrix(9 0 0 -9 148.765 414.667)" fill="#252120"/><use xlink:href="#D" transform="matrix(9 0 0 -9 153.049 414.667)" fill="#252120"/><use xlink:href="#M" transform="matrix(9 0 0 -9 156.36 414.667)" fill="#252120"/><use xlink:href="#t" transform="matrix(9 0 0 -9 158.34 416.467)" fill="#252120"/><use xlink:href="#x" transform="matrix(9 0 0 -9 163.686 414.784)" fill="#252120"/><use xlink:href="#L" transform="matrix(9 0 0 -9 168.249 414.784)" fill="#252120"/><use xlink:href="#D" transform="matrix(9 0 0 -9 172.138 414.667)" fill="#252120"/><use xlink:href="#M" transform="matrix(9 0 0 -9 175.45 414.667)" fill="#252120"/><use xlink:href="#v" transform="matrix(9 0 0 -9 176.836 414.667)" fill="#252120"/></g><g data-name="P" fill="#655841"><use xlink:href="#t" transform="matrix(7.5 0 0 -7.5 181.83 416.167)"/><use xlink:href="#u" transform="matrix(7.5 0 0 -7.5 186.368 414.765)"/><use xlink:href="#D" transform="matrix(7.5 0 0 -7.5 190.47 414.667)"/><use xlink:href="#M" transform="matrix(7.5 0 0 -7.5 193.23 414.667)"/><use xlink:href="#D" transform="matrix(7.5 0 0 -7.5 194.528 414.667)"/><use xlink:href="#u" transform="matrix(7.5 0 0 -7.5 196.943 414.765)"/><use xlink:href="#v" transform="matrix(7.5 0 0 -7.5 200.94 414.667)"/></g><g data-name="P"><use xlink:href="#ac" transform="matrix(8.25 0 0 -8.25 202.939 414.667)" fill="#252120"/><use xlink:href="#G" transform="matrix(8.25 0 0 -8.25 206.858 414.667)" fill="#252120"/></g><use xlink:href="#H" transform="matrix(7 0 0 -7 207.306 414.758)" fill="#252120" data-name="P"/><g data-name="P" fill="#252120"><use xlink:href="#aG" transform="matrix(7 0 0 -7 214.155 414.758)"/><use xlink:href="#aH" transform="matrix(7 0 0 -7 218.453 414.758)"/></g><g data-name="P" fill="#655841"><use xlink:href="#J" transform="matrix(7.5 0 0 -7.5 224.327 416.265)"/><use xlink:href="#r" transform="matrix(7.5 0 0 -7.5 229.277 414.667)"/><use xlink:href="#x" transform="matrix(7.5 0 0 -7.5 231.4 414.765)"/><use xlink:href="#B" transform="matrix(7.5 0 0 -7.5 235.375 414.667)"/><use xlink:href="#R" transform="matrix(7.5 0 0 -7.5 239.087 414.765)"/><use xlink:href="#u" transform="matrix(7.5 0 0 -7.5 243.835 414.765)"/><use xlink:href="#v" transform="matrix(7.5 0 0 -7.5 247.832 414.667)"/></g><g data-name="P"><use xlink:href="#aI" transform="matrix(8.25 0 0 -8.25 249.814 414.667)" fill="#252120"/><use xlink:href="#aJ" transform="matrix(8.25 0 0 -8.25 253.048 414.667)" fill="#252120"/><use xlink:href="#G" transform="matrix(8.25 0 0 -8.25 257.14 414.667)" fill="#252120"/></g><g data-name="P"><use xlink:href="#H" transform="matrix(7 0 0 -7 257.589 414.758)" fill="#252120"/><use xlink:href="#G" transform="matrix(7 0 0 -7 261.943 414.667)" fill="#252120"/></g><g data-name="Artifact"><clipPath id="aW"><path transform="matrix(1 0 0 -1 0 796.535)" d="M0 0h498.898v796.535H0z"/></clipPath><g clip-path="url(#aW)"><path d="M271.005 411.69a2.28 2.28 0 0 1-1.085 2.16 3.042 3.042 0 0 1-3.06.094l-.005-.003c.469-2.011 1.844-2.915 1.918-2.962h-.001a.379.379 0 0 0-.111-.685.37.37 0 0 0-.281.046 5.656 5.656 0 0 0-2.181 3.157c-.494-.463-1.034-1.337-.592-2.793.34-1.125 1.394-2.06 2.685-2.38a3.99 3.99 0 0 1 3.587.855c-.436.345-.968 1.066-.874 2.512z" fill="#51ba69"/></g><path d="M267.12 415.617a.392.392 0 0 1-.391-.378c-.01-.305.007-.613.05-.915.054-.371.148-.738.279-1.09a.392.392 0 0 1 .733.274 4.444 4.444 0 0 0-.28 1.705.391.391 0 0 1-.378.404h-.013" fill="#51ba69" data-name="Artifact"/></g><g data-name="P"><symbol id="aX"><path d="M.234 0a.238.238 0 0 0-.171.061C.021.102 0 .166 0 .253a.81.81 0 0 0 .038.238c.014.04.032.077.055.11s.052.06.086.079C.214.7.255.71.302.71.373.71.427.69.464.65.501.61.519.548.519.465V.449H.428v.022a.19.19 0 0 1-.031.118c-.02.027-.053.04-.096.04A.146.146 0 0 1 .22.607.2.2 0 0 1 .162.549.324.324 0 0 1 .125.471.65.65 0 0 1 .09.258c0-.057.012-.1.036-.131A.128.128 0 0 1 .231.082c.034 0 .063.008.087.024a.173.173 0 0 1 .057.063.271.271 0 0 1 .028.085H.49A.355.355 0 0 0 .449.128.234.234 0 0 0 .234 0z"/></symbol><symbol id="aY"><path d="M.196 0a.128.128 0 0 0-.067.018C.109.03.094.052.083.085L.065.012H0l.101.723h.082L.148.478a.206.206 0 0 0 .056.055C.223.544.244.55.266.55.305.55.336.534.361.503.386.472.399.423.399.355a.644.644 0 0 0-.012-.13.412.412 0 0 0-.031-.099.277.277 0 0 0-.046-.07.182.182 0 0 0-.056-.042A.132.132 0 0 0 .196 0M.184.073c.021 0 .04.007.055.021A.161.161 0 0 1 .276.15a.556.556 0 0 1 .039.213.153.153 0 0 1-.019.085.06.06 0 0 1-.055.029.076.076 0 0 1-.054-.022A.18.18 0 0 1 .15.398.43.43 0 0 1 .126.323.87.87 0 0 1 .111.186C.111.149.117.12.129.101.141.082.159.073.184.073z"/></symbol><symbol id="aZ"><path d="M.166 0C.112 0 .071.015.042.045.014.075 0 .123 0 .187a.76.76 0 0 0 .026.19c.01.032.023.061.04.087A.176.176 0 0 0 .223.55C.293.55.34.525.366.474a.191.191 0 0 0 .063.055.178.178 0 0 0 .089.021C.571.55.611.535.638.504.666.474.68.426.68.361a.746.746 0 0 0-.008-.11H.383A3.392 3.392 0 0 0 .38.198.17.17 0 0 1 .401.104C.415.084.436.073.465.073c.03 0 .054.012.074.035A.16.16 0 0 1 .576.19h.083A.268.268 0 0 0 .626.096a.198.198 0 0 0-.065-.07A.172.172 0 0 0 .465 0a.2.2 0 0 0-.09.019.128.128 0 0 0-.058.059.203.203 0 0 0-.062-.057A.178.178 0 0 0 .166 0m0 .073c.025 0 .045.007.061.022.017.015.03.035.04.058.01.024.018.049.023.075A.68.68 0 0 1 .304.36a.154.154 0 0 1-.02.087C.271.467.25.477.223.477A.09.09 0 0 1 .162.455a.157.157 0 0 1-.04-.057.611.611 0 0 1-.037-.2c0-.042.006-.073.019-.094C.117.084.137.073.166.073m.227.251h.201l.001.019V.36a.154.154 0 0 1-.02.087.063.063 0 0 1-.057.03.087.087 0 0 1-.061-.023.167.167 0 0 1-.041-.057.387.387 0 0 1-.023-.073z"/></symbol><symbol id="ba"><path d="M.004 0 0 .132l.021.147h.082L.082.132.043 0H.004z"/></symbol><symbol id="bb"><path d="m0 0 .099.708h.065V.637C.181.666.201.687.222.7c.022.013.045.02.069.02C.33.72.361.704.386.673.411.642.424.593.424.525A.55.55 0 0 0 .393.326.278.278 0 0 0 .316.208.148.148 0 0 0 .221.17.12.12 0 0 0 .16.186.121.121 0 0 0 .116.24L.082 0H0m.209.243c.021 0 .04.007.055.021A.161.161 0 0 1 .301.32.556.556 0 0 1 .34.533a.153.153 0 0 1-.019.085.06.06 0 0 1-.055.029.076.076 0 0 1-.054-.022.18.18 0 0 1-.037-.057.43.43 0 0 1-.024-.075.87.87 0 0 1-.015-.137C.136.319.142.29.154.271.166.252.184.243.209.243z"/></symbol><symbol id="bc"><path d="M.078 0 0 .526h.087L.125.243A3.816 3.816 0 0 0 .137.149l.004-.03h.004l.012.03a1.055 1.055 0 0 1 .026.062l.013.031.117.284h.088L.167 0H.078z"/></symbol><use xlink:href="#aX" transform="matrix(8.5 0 0 -8.5 113.82 425.77)" fill="#252120"/><use xlink:href="#aq" transform="matrix(8.5 0 0 -8.5 118.698 425.77)" fill="#252120"/><use xlink:href="#al" transform="matrix(8.5 0 0 -8.5 122.65 425.77)" fill="#252120"/><use xlink:href="#aS" transform="matrix(8.5 0 0 -8.5 126.306 425.667)" fill="#252120"/><use xlink:href="#am" transform="matrix(8.5 0 0 -8.5 128.55 427.214)" fill="#252120"/><use xlink:href="#an" transform="matrix(8.5 0 0 -8.5 132.664 425.77)" fill="#252120"/><use xlink:href="#ao" transform="matrix(8.5 0 0 -8.5 136.531 425.752)" fill="#252120"/><use xlink:href="#ao" transform="matrix(8.5 0 0 -8.5 138.47 425.752)" fill="#252120"/><use xlink:href="#an" transform="matrix(8.5 0 0 -8.5 140.416 425.77)" fill="#252120"/><use xlink:href="#aQ" transform="matrix(8.5 0 0 -8.5 144.147 426.721)" fill="#252120"/><use xlink:href="#as" transform="matrix(8.5 0 0 -8.5 145.932 425.667)" fill="#252120"/><use xlink:href="#aR" transform="matrix(8.5 0 0 -8.5 148.15 425.77)" fill="#252120"/><use xlink:href="#al" transform="matrix(8.5 0 0 -8.5 152.103 425.77)" fill="#252120"/><use xlink:href="#aY" transform="matrix(8.5 0 0 -8.5 155.818 425.77)" fill="#252120"/><use xlink:href="#an" transform="matrix(8.5 0 0 -8.5 159.796 425.77)" fill="#252120"/><use xlink:href="#aS" transform="matrix(8.5 0 0 -8.5 163.51 425.667)" fill="#252120"/><use xlink:href="#am" transform="matrix(8.5 0 0 -8.5 165.754 427.214)" fill="#252120"/><use xlink:href="#ap" transform="matrix(8.5 0 0 -8.5 169.894 425.667)" fill="#252120"/><use xlink:href="#ar" transform="matrix(8.5 0 0 -8.5 171.696 425.667)" fill="#252120"/><use xlink:href="#an" transform="matrix(8.5 0 0 -8.5 175.682 425.77)" fill="#252120"/><use xlink:href="#aQ" transform="matrix(8.5 0 0 -8.5 179.414 426.721)" fill="#252120"/><use xlink:href="#as" transform="matrix(8.5 0 0 -8.5 181.199 425.667)" fill="#252120"/><use xlink:href="#aO" transform="matrix(8.5 0 0 -8.5 183.4 425.77)" fill="#252120"/><use xlink:href="#aZ" transform="matrix(8.5 0 0 -8.5 187.013 425.77)" fill="#252120"/><use xlink:href="#al" transform="matrix(8.5 0 0 -8.5 193.558 425.77)" fill="#252120"/><use xlink:href="#aS" transform="matrix(8.5 0 0 -8.5 197.213 425.667)" fill="#252120"/><use xlink:href="#as" transform="matrix(8.5 0 0 -8.5 199.397 425.667)" fill="#252120"/><use xlink:href="#at" transform="matrix(8.5 0 0 -8.5 201.624 425.77)" fill="#252120"/><use xlink:href="#ba" transform="matrix(8.5 0 0 -8.5 205.849 422.208)" fill="#252120"/><use xlink:href="#aR" transform="matrix(8.5 0 0 -8.5 206.826 425.77)" fill="#252120"/><use xlink:href="#aS" transform="matrix(8.5 0 0 -8.5 210.558 425.667)" fill="#252120"/><use xlink:href="#ao" transform="matrix(8.5 0 0 -8.5 213.031 425.752)" fill="#252120"/><use xlink:href="#ap" transform="matrix(8.5 0 0 -8.5 215.003 425.667)" fill="#252120"/><use xlink:href="#aO" transform="matrix(8.5 0 0 -8.5 216.882 425.77)" fill="#252120"/><use xlink:href="#aP" transform="matrix(8.5 0 0 -8.5 220.29 425.667)" fill="#252120"/><use xlink:href="#aR" transform="matrix(8.5 0 0 -8.5 224.26 425.77)" fill="#252120"/><use xlink:href="#al" transform="matrix(8.5 0 0 -8.5 228.212 425.77)" fill="#252120"/><use xlink:href="#ao" transform="matrix(8.5 0 0 -8.5 232.02 425.752)" fill="#252120"/><use xlink:href="#aQ" transform="matrix(8.5 0 0 -8.5 233.822 426.721)" fill="#252120"/><use xlink:href="#as" transform="matrix(8.5 0 0 -8.5 235.607 425.667)" fill="#252120"/><use xlink:href="#bb" transform="matrix(8.5 0 0 -8.5 237.537 427.214)" fill="#252120"/><use xlink:href="#aq" transform="matrix(8.5 0 0 -8.5 241.702 425.77)" fill="#252120"/><use xlink:href="#ap" transform="matrix(8.5 0 0 -8.5 245.62 425.667)" fill="#252120"/><use xlink:href="#bc" transform="matrix(8.5 0 0 -8.5 247.626 425.667)" fill="#252120"/><use xlink:href="#aS" transform="matrix(8.5 0 0 -8.5 250.856 425.667)" fill="#252120"/><use xlink:href="#aq" transform="matrix(8.5 0 0 -8.5 253.321 425.77)" fill="#252120"/><use xlink:href="#ar" transform="matrix(8.5 0 0 -8.5 257.104 425.667)" fill="#252120"/><use xlink:href="#aQ" transform="matrix(8.5 0 0 -8.5 260.946 426.721)" fill="#252120"/><use xlink:href="#as" transform="matrix(8.5 0 0 -8.5 262.731 425.667)" fill="#252120"/><use xlink:href="#aq" transform="matrix(8.5 0 0 -8.5 264.95 425.77)" fill="#252120"/><use xlink:href="#aN" transform="matrix(8.5 0 0 -8.5 268.68 425.667)" fill="#252120"/><use xlink:href="#ap" transform="matrix(8.5 0 0 -8.5 270.415 425.667)" fill="#252120"/><use xlink:href="#bc" transform="matrix(8.5 0 0 -8.5 272.42 425.667)" fill="#252120"/><use xlink:href="#an" transform="matrix(8.5 0 0 -8.5 275.812 425.77)" fill="#252120"/></g><g data-name="P"><symbol id="bd"><path d="M.248 0h.105l.248.7h-.1L.3.112.099.7H0L.248 0z"/></symbol><use xlink:href="#bd" transform="matrix(8 0 0 -8 113.45 443.754)" fill="#655841"/><use xlink:href="#u" transform="matrix(8 0 0 -8 118.178 443.858)" fill="#655841"/><use xlink:href="#r" transform="matrix(8 0 0 -8 122.97 443.754)" fill="#655841"/><use xlink:href="#L" transform="matrix(8 0 0 -8 125.266 443.858)" fill="#655841"/><use xlink:href="#M" transform="matrix(8 0 0 -8 129.186 443.754)" fill="#655841"/><use xlink:href="#A" transform="matrix(8 0 0 -8 130.722 443.858)" fill="#655841"/><use xlink:href="#B" transform="matrix(8 0 0 -8 135.762 443.754)" fill="#655841"/><use xlink:href="#v" transform="matrix(8 0 0 -8 139.418 443.754)" fill="#655841"/></g><g data-name="P"><symbol id="be"><path d="M.366 0c.162 0 .3.105.335.253H.58A.22.22 0 0 0 .366.112a.24.24 0 0 0-.251.251c0 .144.1.251.251.251A.221.221 0 0 0 .58.473h.121a.338.338 0 0 1-.335.253A.356.356 0 0 1 0 .363C0 .16.153 0 .366 0z"/></symbol><symbol id="bf"><path d="M.38.7V.415H.115V.7H0V0h.115v.305H.38V0h.115v.7H.38z"/></symbol><symbol id="bg"><path d="M.511 0h.124L.387.7H.249L0 0h.125l.047.141h.291L.511 0M.209.249l.109.32.108-.32H.209z"/></symbol><symbol id="bh"><path d="M.438 0h.137L.347.272a.223.223 0 0 1 .138.203C.485.6.385.7.26.7H0V0h.115v.255h.109L.438 0M.115.592H.26C.321.592.37.541.37.475.37.41.321.358.26.358H.115v.234z"/></symbol><symbol id="bi"><path d="M.363 0a.36.36 0 0 1 .363.363.36.36 0 0 1-.363.363A.36.36 0 0 1 0 .363.36.36 0 0 1 .363 0m0 .112a.244.244 0 0 0-.248.251c0 .144.108.251.248.251S.611.507.611.363A.244.244 0 0 0 .363.112z"/></symbol><symbol id="bj"><path d="M.385.7V.225L.09.7H0V0h.115v.475L.41 0H.5v.7H.385z"/></symbol><use xlink:href="#be" transform="matrix(8 0 0 -8 141.738 443.858)" fill="#655841"/><use xlink:href="#bf" transform="matrix(8 0 0 -8 148.146 443.754)" fill="#655841"/><use xlink:href="#bg" transform="matrix(8 0 0 -8 152.786 443.754)" fill="#655841"/><use xlink:href="#bh" transform="matrix(8 0 0 -8 158.546 443.754)" fill="#655841"/><use xlink:href="#bi" transform="matrix(8 0 0 -8 163.146 443.858)" fill="#655841"/><use xlink:href="#bj" transform="matrix(8 0 0 -8 169.874 443.754)" fill="#655841"/></g><g data-name="P" fill="#655841"><use xlink:href="#M" transform="matrix(8 0 0 -8 175.001 443.754)"/><use xlink:href="#x" transform="matrix(8 0 0 -8 176.537 443.858)"/><use xlink:href="#r" transform="matrix(8 0 0 -8 180.777 443.754)"/><use xlink:href="#R" transform="matrix(8 0 0 -8 182.921 443.858)"/><use xlink:href="#v" transform="matrix(8 0 0 -8 187.681 443.754)"/><use xlink:href="#R" transform="matrix(8 0 0 -8 189.985 443.858)"/><use xlink:href="#u" transform="matrix(8 0 0 -8 195.049 443.858)"/><use xlink:href="#v" transform="matrix(8 0 0 -8 199.313 443.754)"/><use xlink:href="#B" transform="matrix(8 0 0 -8 201.841 443.754)"/><use xlink:href="#A" transform="matrix(8 0 0 -8 205.801 443.858)"/><use xlink:href="#L" transform="matrix(8 0 0 -8 210.617 443.858)"/><use xlink:href="#v" transform="matrix(8 0 0 -8 214.009 443.754)"/><use xlink:href="#L" transform="matrix(8 0 0 -8 216.353 443.858)"/><use xlink:href="#x" transform="matrix(8 0 0 -8 219.961 443.858)"/><use xlink:href="#E" transform="matrix(8 0 0 -8 224.201 443.754)"/><use xlink:href="#x" transform="matrix(8 0 0 -8 225.737 443.858)"/><use xlink:href="#R" transform="matrix(8 0 0 -8 229.753 443.858)"/><use xlink:href="#u" transform="matrix(8 0 0 -8 234.817 443.858)"/><use xlink:href="#L" transform="matrix(8 0 0 -8 239.425 443.858)"/></g><g data-name="P"><symbol id="bk"><path d="M.44.271H.271V.44H.169V.271H0V.169h.169V0h.102v.169H.44v.102z"/></symbol><use xlink:href="#bk" transform="matrix(8 0 0 -8 245.257 442.714)" fill="#655841"/><use xlink:href="#aJ" transform="matrix(8 0 0 -8 249.497 443.754)" fill="#655841"/></g><g data-name="P"><use xlink:href="#G" transform="matrix(6.5 0 0 -6.5 253.464 443.754)" fill="#655841"/><use xlink:href="#H" transform="matrix(6.5 0 0 -6.5 253.835 443.838)" fill="#655841"/></g><g data-name="P" fill="#f05622"><use xlink:href="#a" transform="matrix(17.93 0 0 -17.93 196.104 59.768)"/><use xlink:href="#b" transform="matrix(17.93 0 0 -17.93 206.485 59.553)"/><use xlink:href="#c" transform="matrix(17.93 0 0 -17.93 217.082 59.768)"/><use xlink:href="#d" transform="matrix(17.93 0 0 -17.93 229.633 59.768)"/><use xlink:href="#e" transform="matrix(17.93 0 0 -17.93 241.664 59.553)"/><use xlink:href="#f" transform="matrix(17.93 0 0 -17.93 251.848 59.553)"/><use xlink:href="#b" transform="matrix(17.93 0 0 -17.93 256.887 59.553)"/><use xlink:href="#g" transform="matrix(17.93 0 0 -17.93 267.501 61.704)"/><use xlink:href="#h" transform="matrix(17.93 0 0 -17.93 278.134 59.553)"/><use xlink:href="#i" transform="matrix(17.93 0 0 -17.93 282.85 59.768)"/><use xlink:href="#c" transform="matrix(17.93 0 0 -17.93 291.599 59.768)"/><use xlink:href="#j" transform="matrix(17.93 0 0 -17.93 304.67 59.553)"/><use xlink:href="#k" transform="matrix(17.93 0 0 -17.93 308.973 59.768)"/></g><g data-name="Artifact"><symbol id="bl"><path d="M.001 0v.101h.154v.428H0v.08a.456.456 0 0 1 .144.04c.027.011.05.024.072.037h.059V.101h.141V0H.001z"/></symbol><symbol id="bm"><path d="M.247 0v.155H0v.096a1.478 1.478 0 0 1 .126.292C.144.596.16.647.173.698h.12a1.478 1.478 0 0 0-.15-.376.757.757 0 0 0-.039-.066h.143V.41a.735.735 0 0 1 .05.126.736.736 0 0 1 .017.06h.053v-.34h.07V.155h-.07V0h-.12z"/></symbol><symbol id="bn"><path d="M0 0z"/></symbol><symbol id="bo"><path d="M0 0v.686h.128V.408h.216v.278h.128V0H.344v.294H.128V0H0z"/></symbol><symbol id="bp"><path d="M0 0v.118h.241V0H0z"/></symbol><symbol id="bq"><path d="M.198 0a.215.215 0 0 0-.114.027.167.167 0 0 0-.064.072.25.25 0 0 0 .001.199c.014.029.036.05.067.066a.16.16 0 0 0-.056.065.221.221 0 0 0-.018.09c0 .035.007.067.02.096a.167.167 0 0 0 .062.069.187.187 0 0 0 .102.026C.238.71.273.701.3.684A.16.16 0 0 0 .361.615.216.216 0 0 0 .382.519a.211.211 0 0 0-.019-.09.15.15 0 0 0-.056-.065.142.142 0 0 0 .068-.066A.217.217 0 0 0 .396.2.24.24 0 0 0 .375.099.159.159 0 0 0 .311.027.21.21 0 0 0 .198 0m0 .1C.222.1.24.109.253.127a.137.137 0 0 1 .019.079.137.137 0 0 1-.019.079.062.062 0 0 1-.055.028.062.062 0 0 1-.055-.028.137.137 0 0 1-.019-.079C.124.171.13.145.143.127A.063.063 0 0 1 .198.1m0 .312c.02 0 .035.008.046.025a.132.132 0 0 1 .017.074.132.132 0 0 1-.017.074.051.051 0 0 1-.046.025.051.051 0 0 1-.046-.025.139.139 0 0 1-.016-.074c0-.033.005-.057.016-.074A.051.051 0 0 1 .198.412z"/></symbol><use xlink:href="#bl" transform="matrix(11 0 0 -11 234.77 78.566)" fill="#f05622"/><use xlink:href="#bm" transform="matrix(11 0 0 -11 239.996 78.566)" fill="#f05622"/><use xlink:href="#bn" transform="matrix(11 0 0 -11 245.474 78.566)" fill="#f05622"/><use xlink:href="#bo" transform="matrix(11 0 0 -11 248.092 78.566)" fill="#f05622"/><use xlink:href="#bn" transform="matrix(11 0 0 -11 254.494 78.566)" fill="#f05622"/><use xlink:href="#bp" transform="matrix(11 0 0 -11 256.628 76.245)" fill="#f05622"/><use xlink:href="#bn" transform="matrix(11 0 0 -11 260.005 78.566)" fill="#f05622"/><use xlink:href="#bl" transform="matrix(11 0 0 -11 262.392 78.566)" fill="#f05622"/><use xlink:href="#bq" transform="matrix(11 0 0 -11 267.859 78.698)" fill="#f05622"/><use xlink:href="#bn" transform="matrix(11 0 0 -11 273.095 78.566)" fill="#f05622"/><use xlink:href="#bo" transform="matrix(11 0 0 -11 275.713 78.566)" fill="#f05622"/></g><g data-name="P" fill="#f05622"><use xlink:href="#bl" transform="matrix(0 -10 -10 0 483.23 669.519)"/><use xlink:href="#bm" transform="matrix(0 -10 -10 0 483.23 664.769)"/><use xlink:href="#bn" transform="matrix(0 -10 -10 0 483.23 659.789)"/><use xlink:href="#bo" transform="matrix(0 -10 -10 0 483.23 657.409)"/><use xlink:href="#bn" transform="matrix(0 -10 -10 0 483.23 651.589)"/><use xlink:href="#bp" transform="matrix(0 -10 -10 0 481.12 649.649)"/><use xlink:href="#bn" transform="matrix(0 -10 -10 0 483.23 646.579)"/><use xlink:href="#bl" transform="matrix(0 -10 -10 0 483.23 644.409)"/><use xlink:href="#bq" transform="matrix(0 -10 -10 0 483.35 639.439)"/><use xlink:href="#bn" transform="matrix(0 -10 -10 0 483.23 634.679)"/><use xlink:href="#bo" transform="matrix(0 -10 -10 0 483.23 632.299)"/></g><path stroke-width="1.417" stroke-miterlimit="3" fill="none" stroke="#f05622" d="M486.073 627.533v42.01" data-name="Artifact"/></svg>